<svg width="136" height="29" viewBox="0 0 136 29" fill="none" xmlns="http://www.w3.org/2000/svg">
<path d="M9.92408 17.1771C9.17408 17.1771 8.42408 17.1771 7.67408 17.1771C7.32223 17.1771 6.97038 17.1771 6.61853 17.1771C5.8033 17.1771 5.89901 17.5132 5.29908 17.9132C3.62843 19.027 3.04832 20.085 2.22964 21.9271C1.78778 22.9213 1.92261 26.0122 3.17408 26.191C4.03308 26.3137 4.61571 26.6771 5.54908 26.6771C6.00219 26.6771 6.35701 26.5828 6.78519 26.4271C7.19 26.2799 7.30388 25.882 7.47964 25.5104C7.82701 24.776 8.9403 22.3232 9.16019 21.8437C9.40126 21.3181 10.2863 18.7693 10.9241 18.1771C11.2905 17.8369 10.9241 19.1771 10.9241 19.6771C10.9241 20.1586 10.9241 20.64 10.9241 21.1215C10.9241 21.9317 10.9241 22.7419 10.9241 23.5521C10.9241 24.2234 10.6718 25.1262 11.4241 25.4271C12.2709 25.7658 12.6248 26.3719 13.6741 26.4271C16.5201 26.5769 18.2196 22.6436 19.3269 20.5521C19.9931 19.2936 20.0659 18.1181 20.438 16.816C20.4745 16.688 20.4241 19.1203 20.4241 19.6215C20.4241 21.8885 20.1741 24.0063 20.1741 26.2604C20.1741 27.3632 20.6399 24.1037 20.9241 23.0382C21.2381 21.8608 22.0216 20.7667 22.4796 19.6215C22.9266 18.5042 26.2042 17.8821 27.2852 18.191C28.1089 18.4263 27.6741 22.3481 27.6741 23.1771C27.6741 24.5008 28.0115 26.6771 29.6741 26.6771C31.2918 26.6771 31.708 25.0685 32.5769 24.066C33.2398 23.301 33.3959 22.9598 33.813 22.066C34.1082 21.4332 34.1605 20.7166 34.5352 20.1215C35.1313 19.1748 34.9241 18.2228 34.9241 19.9271C34.9241 20.8437 34.9241 21.7604 34.9241 22.6771C34.9241 24.7101 35.8778 25.3736 37.5491 26.3021C39.4335 27.349 41.4805 25.4423 42.1185 23.9271C42.7345 22.4642 43.3796 18.3588 42.2991 17.0382C41.0442 15.5045 40.0608 14.9271 37.9796 14.9271C35.7641 14.9271 35.4694 15.6714 34.8963 17.6771C34.6254 18.6251 34.4241 19.0683 34.4241 20.1771C34.4241 20.6354 34.4241 21.0937 34.4241 21.5521C34.4241 22.1321 34.8718 22.0473 34.9241 22.4826C35.0646 23.6536 36.2807 25.4271 37.5491 25.4271C38.3778 25.4271 39.2065 25.4271 40.0352 25.4271C40.7601 25.4271 41.0306 24.466 41.563 24.1215C42.1486 23.7426 42.4772 22.031 42.6185 21.3715C42.8967 20.0732 43.5446 18.8811 43.6602 17.5521C43.8969 14.8295 45.1741 12.2661 45.1741 9.62153C45.1741 7.62345 45.8595 5.32375 45.4102 3.30208C45.2856 2.74151 44.4241 1.08732 44.4241 2.66319C44.4241 4.21155 44.215 5.73327 44.1741 7.28819C44.0988 10.149 43.9241 13.0253 43.9241 15.9132C43.9241 18.3356 43.0101 23.4687 44.9102 25.0521C46.0941 26.0387 47.6814 26.1771 49.1741 26.1771C50.938 26.1771 52.3059 25.1771 54.1741 25.1771" stroke="#1E1E1E" stroke-width="3" stroke-linecap="round" stroke-linejoin="round"/>
<path d="M72.6741 16.1771C72.6741 19.0616 73.0285 22.2698 72.4102 25.0521C72.0074 26.8646 72.3937 24.6085 73.0352 23.816C74.4598 22.0562 75.1367 19.7112 76.5491 17.9271C77.4724 16.7608 78.4534 15.5591 79.6741 14.7743C80.0838 14.511 80.0361 13.9271 80.5491 13.9271C80.9611 13.9271 81.3732 13.9271 81.7852 13.9271C83.2564 13.9271 82.6741 19.7376 82.6741 20.7882C82.6741 22.3082 81.6661 26.7837 81.938 25.2882C82.4798 22.3083 84.9117 20.1 85.9241 17.316C86.1401 16.7221 87.2187 16.1771 87.813 16.1771C88.5972 16.1771 89.2021 15.4271 90.0352 15.4271C91.9741 15.4271 89.4718 25.3739 91.063 25.6632C93.1163 26.0366 94.8223 25.6028 95.7852 23.6771C96.1304 22.9867 96.2627 22.4196 96.7852 21.8021C97.2411 21.2634 97.0319 20.6538 97.2991 20.066C97.954 18.6253 97.4241 20.414 97.4241 20.9271C97.4241 22.8346 97.1752 24.2611 99.0491 25.3021C101.576 26.7061 102.829 23.352 103.41 21.4132C103.854 19.9343 103.831 17.9639 103.66 16.4271C103.575 15.66 102.233 13.9271 101.424 13.9271C100.723 13.9271 99.266 13.6617 98.938 14.4271C98.5717 15.2817 97.6291 15.7646 97.438 16.816C97.1759 18.2576 97.0912 20.9758 97.8685 22.1771C98.7329 23.5129 100.349 24.1771 101.924 24.1771C103.915 24.1771 104.985 22.5079 105.619 20.7327C106.325 18.7541 107.093 16.7253 107.174 14.6216C107.258 12.4426 109.597 13.9271 110.924 13.9271C111.739 13.9271 112.554 13.9271 113.369 13.9271C114.73 13.9271 112.935 15.3552 112.674 15.7327C112.28 16.3016 111.709 17.4852 111.674 18.1771C111.626 19.1334 111.174 19.7684 111.174 20.7327C111.174 22.4645 112.597 24.162 114.174 24.8716C116.214 25.7897 120.001 25.9515 121.785 24.5105C123.408 23.1997 124.759 21.7133 126.174 20.1771C127.044 19.2326 128.318 17.4531 128.619 16.1771C128.834 15.2607 129.289 14.0645 128.369 13.4271C127.377 12.7409 126.907 12.4271 125.674 12.4271C123.816 12.4271 123.21 14.0078 122.23 15.2327C121.627 15.9861 122.174 19.4183 122.174 20.3716C122.174 22.202 123.696 23.2827 125.174 23.9827C126.999 24.8471 128.14 24.9271 130.174 24.9271C130.956 24.9271 131.589 24.8081 132.174 24.2882C132.651 23.8639 133.883 24.2599 134.174 23.6771" stroke="#1E1E1E" stroke-width="3" stroke-linecap="round" stroke-linejoin="round"/>
</svg>
