<svg width="147" height="78" viewBox="0 0 147 78" fill="none" xmlns="http://www.w3.org/2000/svg">
<path d="M135 28C132.76 25.7597 131.075 23.1041 128.556 20.9445C125.353 18.1992 120.701 17.0531 117.444 14.3889C113.84 11.4399 108.269 9.66098 103.611 8.94446C98.6219 8.17689 94.5434 4.96245 89.5555 4.05557C73.0295 1.05084 55.6395 2.00001 38.5555 2.00001C34.8246 2.00001 31.4067 1.60851 28 3.22223C24.9245 4.67904 20.0096 6.54597 17.7778 8.77779C15.0642 11.4913 12.1341 11.1763 10.2222 15C9.66609 16.1123 8.17055 17.3687 7.22221 18.2222C5.1516 20.0858 5.81152 20.6741 4.77776 23C2.23173 28.7286 1.99999 39.1384 1.99999 45.2222C1.99999 48.9512 1.37974 52.8678 3.22221 56C5.56686 59.9859 8.98513 62.2342 12.2222 65.2222C17.7887 70.3606 27.2838 72 34.4444 72C42.9629 72 51.4815 72 60 72C64.352 72 67.2504 74 71.5555 74C75.6531 74 79.5395 75 83.5 75C91.4627 75 99.2928 76 107.444 76C115.565 76 121.265 73.6136 128 70.7778C130.969 69.5278 134.201 68.8685 137 67.2222C138.15 66.5459 142.874 62.2855 143 60.7778C143.294 57.2465 145 54.8801 145 51C145 46.8833 144.151 43.1509 144 39.2222C143.718 31.8911 139.564 24 132 24" stroke="#E29DD7" stroke-width="3" stroke-linecap="round" stroke-linejoin="round"/>
</svg>
