<svg width="106" height="80" viewBox="0 0 106 80" fill="none" xmlns="http://www.w3.org/2000/svg">
<path d="M17.336 79.344C14.0507 79.344 11.3627 78.8533 9.272 77.872C7.224 76.848 5.624 75.312 4.472 73.264C3.32 71.216 2.46667 68.656 1.912 65.584C1.31467 62.512 0.888 58.928 0.632 54.832C0.418667 50.6933 0.312 46.0853 0.312 41.008C0.312 35.9307 0.44 31.152 0.696 26.672C0.952 22.192 1.44267 18.2453 2.168 14.832C3.192 10.224 4.87733 6.61867 7.224 4.016C9.61333 1.37066 13.1547 0.0479965 17.848 0.0479965C24.5893 0.0479965 30.9253 0.858663 36.856 2.48C42.8293 4.10133 48.248 6.29866 53.112 9.072C57.976 11.8027 62.1573 14.9173 65.656 18.416C69.1973 21.872 71.9067 25.4773 73.784 29.232C75.704 32.944 76.664 36.5493 76.664 40.048C76.664 44.1867 75.704 48.1973 73.784 52.08C71.9067 55.9627 69.2187 59.568 65.72 62.896C62.2213 66.1813 58.0187 69.0613 53.112 71.536C48.248 73.968 42.7867 75.888 36.728 77.296C30.712 78.6613 24.248 79.344 17.336 79.344ZM24.12 64.048C28.8133 64.048 33.0373 63.536 36.792 62.512C40.5893 61.488 43.9173 60.1227 46.776 58.416C49.6347 56.7093 52.024 54.768 53.944 52.592C55.9067 50.416 57.3787 48.1547 58.36 45.808C59.3413 43.4187 59.832 41.1147 59.832 38.896C59.832 36.9333 59.256 34.864 58.104 32.688C56.952 30.4693 55.2667 28.3147 53.048 26.224C50.872 24.0907 48.248 22.1707 45.176 20.464C42.104 18.7573 38.6267 17.392 34.744 16.368C30.904 15.3013 26.744 14.768 22.264 14.768C20.984 14.768 19.96 15.3227 19.192 16.432C18.424 17.4987 17.848 18.992 17.464 20.912C17.08 22.6187 16.7813 24.6027 16.568 26.864C16.3973 29.0827 16.312 31.4293 16.312 33.904C16.312 39.4507 16.3973 44.208 16.568 48.176C16.7813 52.1013 17.1867 55.28 17.784 57.712C18.8507 61.936 20.9627 64.048 24.12 64.048ZM95.153 79.728C92.6783 79.728 90.609 79.3013 88.945 78.448C87.281 77.5947 86.001 76.5067 85.105 75.184C84.209 73.8187 83.761 72.3893 83.761 70.896C83.761 68.848 84.4437 67.1413 85.809 65.776C87.1743 64.4107 88.8597 63.3653 90.865 62.64C92.8703 61.9147 94.833 61.552 96.753 61.552C98.545 61.552 100.124 61.8933 101.489 62.576C102.854 63.216 103.942 64.176 104.753 65.456C105.564 66.6933 105.969 68.1867 105.969 69.936C105.969 71.8133 105.478 73.4987 104.497 74.992C103.558 76.4853 102.278 77.6373 100.657 78.448C99.0357 79.3013 97.201 79.728 95.153 79.728Z" fill="#4D6F2E"/>
</svg>
