<svg width="204" height="26" viewBox="0 0 204 26" fill="none" xmlns="http://www.w3.org/2000/svg">
<path d="M8.5366 24.65C6.80994 24.65 5.4566 24.3467 4.4766 23.74C3.4966 23.1333 2.80827 22.235 2.4116 21.045C2.03827 19.8317 1.8516 18.3383 1.8516 16.565C1.8516 15.7483 1.8866 14.8733 1.9566 13.94C1.0466 13.59 0.591602 13.1583 0.591602 12.645C0.591602 12.2017 0.731602 11.8867 1.0116 11.7C1.31493 11.49 1.65327 11.3267 2.0266 11.21C2.42327 11.0933 2.74994 10.9533 3.0066 10.79C3.05327 10.51 3.12327 10.09 3.2166 9.53C3.30994 8.94667 3.40327 8.34 3.4966 7.71C3.61327 7.05667 3.71827 6.485 3.8116 5.995C3.90494 5.48167 3.96327 5.16667 3.9866 5.05C3.72994 4.91 3.37994 4.82833 2.9366 4.805C2.5166 4.75833 2.14327 4.665 1.8166 4.525C1.48993 4.385 1.3266 4.09333 1.3266 3.65C1.3266 3.18333 1.45493 2.845 1.7116 2.635C1.96827 2.40166 2.38827 2.23833 2.9716 2.145C4.46493 1.88833 5.89994 1.67833 7.2766 1.515C8.65327 1.35167 10.0883 1.27 11.5816 1.27C11.9083 1.27 12.3516 1.27 12.9116 1.27C13.4716 1.27 14.0316 1.31667 14.5916 1.41C15.1749 1.48 15.6649 1.63167 16.0616 1.865C16.4583 2.09833 16.6566 2.44833 16.6566 2.915C16.6566 3.17167 16.5749 3.39333 16.4116 3.58C16.2716 3.76667 16.1083 3.86 15.9216 3.86H10.6716C10.5783 3.86 10.3216 3.87167 9.9016 3.895C9.4816 3.895 9.0266 3.91833 8.5366 3.965C8.0466 4.01167 7.63827 4.105 7.3116 4.245C6.9616 4.385 6.6816 4.81667 6.4716 5.54C6.2616 6.26333 6.10994 7.12667 6.0166 8.13C5.92327 9.11 5.8766 10.0783 5.8766 11.035C6.17994 11.0117 6.63494 10.9883 7.2416 10.965C7.84827 10.9183 8.47827 10.8833 9.1316 10.86C9.80827 10.8367 10.3683 10.825 10.8116 10.825H12.2116C12.7483 10.825 13.1099 10.9417 13.2966 11.175C13.5066 11.4083 13.6116 11.7233 13.6116 12.12C13.6116 12.9133 13.1683 13.345 12.2816 13.415L6.3666 13.8C5.71327 13.8233 5.26994 13.94 5.0366 14.15C4.8266 14.3367 4.6866 14.6983 4.6166 15.235C4.56994 15.6783 4.53494 16.0167 4.5116 16.25C4.5116 16.4833 4.5116 16.6933 4.5116 16.88C4.53494 17.0433 4.5466 17.195 4.5466 17.335C4.5466 17.4517 4.5466 17.5567 4.5466 17.65C4.5466 18.1867 4.59327 18.7583 4.6866 19.365C4.77994 19.9483 4.98994 20.4733 5.3166 20.94C5.6666 21.4067 6.20327 21.7217 6.9266 21.885H8.7116C9.87827 21.885 11.1149 21.7917 12.4216 21.605C13.7516 21.4183 14.9183 21.2083 15.9216 20.975C15.9683 20.9517 16.0266 20.94 16.0966 20.94C16.1666 20.94 16.2133 20.94 16.2366 20.94C16.5633 20.94 16.7733 21.0567 16.8666 21.29C16.9833 21.5233 17.0416 21.78 17.0416 22.06C17.0416 23.11 15.9799 23.845 13.8566 24.265C13.1099 24.4283 12.2583 24.5333 11.3016 24.58C10.3449 24.6267 9.42327 24.65 8.5366 24.65ZM29.8943 25.525C29.4976 25.525 28.9726 25.5133 28.3193 25.49C27.6659 25.4667 27.0476 25.3617 26.4643 25.175C25.8809 25.0117 25.4959 24.7083 25.3093 24.265C25.3093 23.8917 25.3209 23.215 25.3443 22.235C25.3676 21.255 25.3793 20.0883 25.3793 18.735C25.4026 17.3583 25.4259 15.8883 25.4493 14.325C25.4726 12.7617 25.4843 11.2333 25.4843 9.74C25.4843 8.99333 25.4143 8.24667 25.2743 7.5C25.1343 6.73 24.9359 6.05333 24.6793 5.47C24.4459 4.88667 24.1543 4.51333 23.8043 4.35C23.5243 4.49 23.2443 4.595 22.9643 4.665C22.7076 4.71167 22.4509 4.735 22.1943 4.735C21.8209 4.735 21.5059 4.65333 21.2493 4.49C20.9926 4.30333 20.8643 4.035 20.8643 3.685C20.8643 3.055 21.1093 2.54167 21.5993 2.145C22.0893 1.74833 22.6959 1.445 23.4193 1.235C24.1426 1.025 24.8659 0.873332 25.5893 0.779999C26.3126 0.686665 26.8959 0.616666 27.3393 0.57C27.6659 0.57 28.1093 0.558332 28.6693 0.534998C29.2293 0.488332 29.7426 0.453332 30.2093 0.429999C30.6759 0.406666 30.9326 0.395 30.9793 0.395C32.6359 0.441666 34.2343 0.733332 35.7743 1.27C37.3376 1.80667 38.7376 2.565 39.9743 3.545C41.2343 4.50167 42.2259 5.65667 42.9493 7.01C43.6959 8.36333 44.0693 9.89167 44.0693 11.595C44.0693 13.415 43.6726 15.165 42.8793 16.845C42.0859 18.5017 41.0126 19.9833 39.6593 21.29C38.3059 22.5967 36.7893 23.635 35.1093 24.405C33.4293 25.1517 31.6909 25.525 29.8943 25.525ZM29.6843 22.585C31.0609 22.585 32.4493 22.27 33.8493 21.64C35.2726 21.01 36.5676 20.1583 37.7343 19.085C38.9243 18.0117 39.8809 16.7983 40.6043 15.445C41.3276 14.0683 41.6893 12.6567 41.6893 11.21C41.6893 9.97333 41.3626 8.85333 40.7093 7.85C40.0559 6.84667 39.1693 5.995 38.0493 5.295C36.9293 4.57167 35.6809 4.02333 34.3043 3.65C32.9509 3.27667 31.5509 3.09 30.1043 3.09C29.9409 3.09 29.7543 3.09 29.5443 3.09C29.3576 3.09 29.1709 3.10167 28.9843 3.125C28.0743 3.17167 27.5143 3.53333 27.3043 4.21C27.7009 6.03 27.9576 7.78 28.0743 9.46C28.1909 11.14 28.2493 12.89 28.2493 14.71C28.2493 15.7133 28.2143 16.7283 28.1443 17.755C28.0976 18.7817 28.0743 19.8433 28.0743 20.94V21.99C28.3309 22.2233 28.5876 22.3867 28.8443 22.48C29.1243 22.55 29.4043 22.585 29.6843 22.585ZM52.8444 23.25C51.9111 23.25 51.1061 22.9233 50.4294 22.27C49.7761 21.5933 49.2394 20.695 48.8194 19.575C48.3994 18.455 48.0844 17.2183 47.8744 15.865C47.6877 14.5117 47.5944 13.1583 47.5944 11.805C47.5944 9.65833 47.7927 7.79167 48.1894 6.205C48.2361 5.995 48.3061 5.66833 48.3994 5.225C48.5161 4.78167 48.6444 4.315 48.7844 3.825C48.9477 3.31167 49.1111 2.85667 49.2744 2.46C49.4377 2.06333 49.6011 1.81833 49.7644 1.725C49.9511 1.60833 50.1377 1.52667 50.3244 1.48C50.5111 1.41 50.6861 1.375 50.8494 1.375C51.0827 1.375 51.3044 1.445 51.5144 1.585C51.6544 1.67833 51.7594 1.78333 51.8294 1.9C51.8994 2.01667 51.9344 2.20333 51.9344 2.46C51.9344 2.67 51.8994 2.95 51.8294 3.3C51.7127 3.88333 51.5611 4.53667 51.3744 5.26C51.2111 5.98333 51.0594 6.73 50.9194 7.5C50.7794 8.27 50.6744 9.08667 50.6044 9.95C50.5344 10.79 50.4994 11.6183 50.4994 12.435C50.4994 13.835 50.6044 15.1533 50.8144 16.39C51.0244 17.6033 51.3394 18.595 51.7594 19.365C52.2027 20.1117 52.7511 20.485 53.4044 20.485C53.6377 20.485 53.9761 20.3917 54.4194 20.205C54.8627 19.995 55.2944 19.7617 55.7144 19.505C56.1577 19.2483 56.4844 19.0383 56.6944 18.875C57.9777 17.8017 59.0511 16.74 59.9144 15.69C60.8011 14.6167 61.5477 13.4733 62.1544 12.26C62.7611 11.0233 63.3094 9.65833 63.7994 8.165C64.3127 6.64833 64.8377 4.92167 65.3744 2.985C65.5611 2.58833 65.8527 2.39 66.2494 2.39C66.5294 2.39 66.7861 2.495 67.0194 2.705C67.2527 2.915 67.3461 3.21833 67.2994 3.615C67.2061 4.89833 67.1244 6.14667 67.0544 7.36C66.9844 8.55 66.9494 9.72833 66.9494 10.895C66.9494 12.0383 66.9844 13.1817 67.0544 14.325C67.1244 15.445 67.2411 16.5767 67.4044 17.72C67.5211 18.49 67.6027 19.0617 67.6494 19.435C67.6961 19.8083 67.7194 20.0767 67.7194 20.24C67.7427 20.38 67.7544 20.52 67.7544 20.66C67.7544 21.0333 67.6261 21.3483 67.3694 21.605C67.1361 21.8383 66.8444 21.955 66.4944 21.955C65.9811 21.955 65.5961 21.7567 65.3394 21.36C65.0827 20.9633 64.8961 20.38 64.7794 19.61C64.7327 19.3533 64.6627 18.91 64.5694 18.28C64.4994 17.6267 64.4294 16.8683 64.3594 16.005C64.2894 15.1417 64.2544 14.29 64.2544 13.45C63.2277 15.41 61.3027 17.8017 58.4794 20.625C57.7327 21.4183 56.8927 22.06 55.9594 22.55C55.0494 23.0167 54.0111 23.25 52.8444 23.25ZM81.8411 25.875C79.8811 25.875 78.1311 25.4433 76.5911 24.58C75.0511 23.6933 73.8378 22.48 72.9511 20.94C72.0644 19.3767 71.6211 17.6033 71.6211 15.62C71.6211 14.36 71.8078 13.0533 72.1811 11.7C72.5778 10.3467 73.1261 9.02833 73.8261 7.745C74.5494 6.46167 75.4011 5.30667 76.3811 4.28C77.3844 3.25333 78.4928 2.43667 79.7061 1.83C80.9194 1.22333 82.2028 0.919999 83.5561 0.919999C84.6061 0.919999 85.6211 1.13 86.6011 1.55C87.6044 1.94667 88.4211 2.53 89.0511 3.3C89.7044 4.07 90.0311 4.99167 90.0311 6.065C90.0311 6.57833 89.9378 6.91667 89.7511 7.08C89.5644 7.24333 89.3544 7.325 89.1211 7.325C88.7478 7.325 88.4444 7.185 88.2111 6.905C87.9778 6.60167 87.7561 6.205 87.5461 5.715C87.3594 5.34167 87.1261 4.98 86.8461 4.63C86.5661 4.25667 86.1928 3.94167 85.7261 3.685C85.2594 3.42833 84.6528 3.3 83.9061 3.3C82.4128 3.3 81.0711 3.66167 79.8811 4.385C78.7144 5.10833 77.7228 6.05333 76.9061 7.22C76.0894 8.36333 75.4711 9.6 75.0511 10.93C74.6311 12.2367 74.4211 13.485 74.4211 14.675C74.4211 15.585 74.5611 16.5417 74.8411 17.545C75.1444 18.5483 75.5761 19.4933 76.1361 20.38C76.7194 21.2433 77.4311 21.955 78.2711 22.515C79.1344 23.0517 80.1378 23.32 81.2811 23.32C82.6111 23.32 83.7428 23.1567 84.6761 22.83C85.6094 22.5033 86.4261 22.0833 87.1261 21.57C87.8494 21.0567 88.5144 20.52 89.1211 19.96C89.5878 19.5167 90.0894 19.295 90.6261 19.295C90.9761 19.295 91.2678 19.4 91.5011 19.61C91.7578 19.82 91.8861 20.135 91.8861 20.555C91.8861 20.835 91.6994 21.1967 91.3261 21.64C91.1628 21.85 90.9644 22.0483 90.7311 22.235C90.5211 22.3983 90.3228 22.5733 90.1361 22.76C88.9461 23.7633 87.6628 24.5333 86.2861 25.07C84.9094 25.6067 83.4278 25.875 81.8411 25.875ZM98.7018 24.65C98.4685 24.65 98.2351 24.58 98.0018 24.44C97.7918 24.3 97.6518 24.1483 97.5818 23.985V23.005C97.5818 22.515 97.6518 22.025 97.7918 21.535C97.9551 21.045 98.0835 20.555 98.1768 20.065C98.2235 19.8783 98.2585 19.6683 98.2818 19.435C98.3051 19.1783 98.3168 18.77 98.3168 18.21H96.3568C96.1935 18.1867 96.0301 18.1633 95.8668 18.14C95.7035 18.1167 95.5635 18.0933 95.4468 18.07C95.2835 18 95.1318 17.895 94.9918 17.755C94.8751 17.5917 94.8168 17.3117 94.8168 16.915C94.8168 16.4483 94.9218 16.1333 95.1318 15.97C95.3651 15.8067 95.7268 15.6783 96.2168 15.585C96.4735 15.5383 96.7418 15.5033 97.0218 15.48C97.3251 15.4333 97.6051 15.3983 97.8618 15.375C98.1418 15.3283 98.4335 15.2583 98.7368 15.165C99.0401 15.0717 99.3201 14.92 99.5768 14.71C99.6935 14.6167 99.8218 14.4883 99.9618 14.325C100.125 14.1617 100.207 14.08 100.207 14.08C100.253 14.0333 100.3 13.9633 100.347 13.87C100.393 13.7533 100.452 13.6133 100.522 13.45C100.568 13.3567 100.615 13.2517 100.662 13.135C100.708 12.995 100.743 12.8667 100.767 12.75C100.837 12.5633 100.895 12.3883 100.942 12.225C101.012 12.0383 101.082 11.8983 101.152 11.805C101.315 11.5017 101.56 11.0233 101.887 10.37C102.213 9.69333 102.563 8.97 102.937 8.2C103.333 7.40667 103.683 6.695 103.987 6.065C104.313 5.435 104.547 5.00333 104.687 4.77C104.92 4.37333 105.153 3.97667 105.387 3.58C105.643 3.18333 105.923 2.81 106.227 2.46C106.88 1.66667 107.452 1.27 107.942 1.27C108.385 1.27 108.77 1.38667 109.097 1.62C109.423 1.83 109.727 2.13333 110.007 2.53C110.287 2.95 110.52 3.39333 110.707 3.86C110.917 4.30333 111.127 4.75833 111.337 5.225C112.55 7.86167 113.623 10.6033 114.557 13.45C115.513 16.2967 116.272 19.1317 116.832 21.955V22.445C116.832 22.8417 116.715 23.1917 116.482 23.495C116.248 23.775 116.05 23.915 115.887 23.915C115.327 23.915 114.907 23.7167 114.627 23.32C114.37 22.9233 114.16 22.3283 113.997 21.535C113.903 21.1383 113.822 20.7533 113.752 20.38C113.705 19.9833 113.647 19.61 113.577 19.26C113.483 18.9333 113.332 18.5833 113.122 18.21C112.935 17.8133 112.748 17.4983 112.562 17.265H108.677C108.303 17.265 107.883 17.265 107.417 17.265C106.95 17.2417 106.46 17.23 105.947 17.23C105.433 17.23 104.908 17.265 104.372 17.335C103.835 17.3817 103.333 17.4983 102.867 17.685C102.26 17.9183 101.793 18.28 101.467 18.77C101.163 19.26 100.93 19.8083 100.767 20.415C100.627 20.9983 100.498 21.57 100.382 22.13C100.265 22.76 100.113 23.3433 99.9268 23.88C99.7635 24.3933 99.3551 24.65 98.7018 24.65ZM107.732 14.71C109.038 14.71 109.948 14.6983 110.462 14.675C110.975 14.6517 111.313 14.535 111.477 14.325C111.547 14.1383 111.582 13.9283 111.582 13.695C111.582 13.3683 111.523 13.0067 111.407 12.61C111.313 12.19 111.197 11.8167 111.057 11.49C110.963 11.2567 110.823 10.9067 110.637 10.44C110.45 9.95 110.24 9.41333 110.007 8.83C109.773 8.24667 109.552 7.68667 109.342 7.15C109.132 6.61333 108.968 6.19333 108.852 5.89C108.805 5.72667 108.7 5.56333 108.537 5.4C108.397 5.21333 108.222 5.12 108.012 5.12C107.825 5.12 107.638 5.23667 107.452 5.47C107.242 5.75 106.95 6.22833 106.577 6.905C106.227 7.58167 105.842 8.32833 105.422 9.145C105.002 9.96167 104.617 10.755 104.267 11.525C103.917 12.2717 103.66 12.855 103.497 13.275C103.357 13.5783 103.287 13.8233 103.287 14.01C103.287 14.3133 103.403 14.5117 103.637 14.605C103.893 14.675 104.15 14.71 104.407 14.71H107.732ZM128.479 24.3C128.176 24.3 127.907 24.2067 127.674 24.02C127.441 23.81 127.324 23.495 127.324 23.075C127.324 22.9817 127.324 22.9 127.324 22.83C127.347 22.7367 127.371 22.6433 127.394 22.55C127.814 20.4967 128.129 18.5133 128.339 16.6C128.549 14.6867 128.689 12.75 128.759 10.79C128.829 8.80667 128.864 6.73 128.864 4.56C127.651 4.56 126.659 4.58333 125.889 4.63C125.119 4.65333 124.372 4.68833 123.649 4.735C123.416 4.75833 123.171 4.78167 122.914 4.805C122.657 4.805 122.401 4.805 122.144 4.805C121.981 4.805 121.829 4.805 121.689 4.805C121.549 4.78167 121.421 4.75833 121.304 4.735C120.861 4.64167 120.546 4.50167 120.359 4.315C120.196 4.12833 120.114 3.84833 120.114 3.475C120.114 2.86833 120.371 2.495 120.884 2.355C121.397 2.19167 122.004 2.06333 122.704 1.97C123.171 1.9 123.917 1.84167 124.944 1.795C125.971 1.725 127.091 1.66667 128.304 1.62C129.541 1.55 130.742 1.49167 131.909 1.445C133.076 1.375 134.032 1.31666 134.779 1.27C135.269 1.27 135.864 1.29333 136.564 1.34C137.264 1.36333 137.952 1.45667 138.629 1.62C139.329 1.78333 139.912 2.05167 140.379 2.425C140.846 2.79833 141.079 3.335 141.079 4.035C141.079 4.33833 140.962 4.63 140.729 4.91C140.519 5.16667 140.274 5.295 139.994 5.295C139.901 5.295 139.807 5.27167 139.714 5.225C139.644 5.17833 139.562 5.13167 139.469 5.085C139.282 4.99167 139.096 4.89833 138.909 4.805C138.722 4.71167 138.524 4.64167 138.314 4.595C137.521 4.385 136.657 4.26833 135.724 4.245C134.814 4.19833 133.636 4.175 132.189 4.175C131.816 4.175 131.629 4.39667 131.629 4.84C131.629 5.72667 131.617 6.77667 131.594 7.99C131.571 9.18 131.524 10.44 131.454 11.77C131.407 13.1 131.326 14.4183 131.209 15.725C131.116 17.0083 130.999 18.1983 130.859 19.295C130.719 20.3917 130.556 21.3017 130.369 22.025C130.229 22.6317 129.996 23.18 129.669 23.67C129.506 23.9033 129.296 24.0667 129.039 24.16C128.806 24.2533 128.619 24.3 128.479 24.3ZM145.2 24.825C144.78 24.825 144.5 24.7783 144.36 24.685C144.243 24.5683 144.185 24.3117 144.185 23.915C144.185 23.495 144.266 23.215 144.43 23.075C144.616 22.9117 144.815 22.7833 145.025 22.69C145.235 22.5967 145.433 22.5033 145.62 22.41C145.806 22.3167 145.981 22.1883 146.145 22.025C146.565 21.6517 146.775 21.15 146.775 20.52C146.775 20.1933 146.763 19.7733 146.74 19.26C146.74 18.7233 146.74 18.1517 146.74 17.545C146.74 16.5883 146.74 15.5967 146.74 14.57C146.763 13.52 146.798 12.54 146.845 11.63C146.891 10.72 146.95 10.0083 147.02 9.495C147.09 8.88833 147.148 8.28167 147.195 7.675C147.265 7.06833 147.335 6.45 147.405 5.82V4.665C147.171 4.40833 146.973 4.22167 146.81 4.105C146.646 3.965 146.495 3.84833 146.355 3.755L145.69 3.335C145.526 3.24167 145.398 3.14833 145.305 3.055C145.235 2.93833 145.2 2.76333 145.2 2.53C145.2 2.06333 145.456 1.83 145.97 1.83C146.366 1.83 146.728 1.865 147.055 1.935C147.405 1.98167 147.731 2.005 148.035 2.005H148.42C148.536 2.005 148.828 1.98167 149.295 1.935C149.761 1.865 150.251 1.795 150.765 1.725C151.231 1.655 151.675 1.59667 152.095 1.55C152.515 1.48 152.771 1.445 152.865 1.445H153.075C153.448 1.445 153.705 1.515 153.845 1.655C153.985 1.77166 154.055 2.005 154.055 2.355C154.055 2.72833 153.985 2.97333 153.845 3.09C153.728 3.20666 153.553 3.28833 153.32 3.335C153.133 3.38167 152.935 3.42833 152.725 3.475C152.515 3.52167 152.316 3.56833 152.13 3.615C151.896 3.685 151.651 3.79 151.395 3.93C151.161 4.07 150.928 4.30333 150.695 4.63C150.531 5.51667 150.368 6.40333 150.205 7.29C150.065 8.15333 149.936 9.02833 149.82 9.915C149.54 12.3183 149.4 14.7683 149.4 17.265C149.4 17.7083 149.4 18.0933 149.4 18.42C149.423 18.7467 149.446 19.0967 149.47 19.47C149.493 19.8433 149.54 20.3217 149.61 20.905C149.75 21.395 150.17 21.71 150.87 21.85C151.033 21.8733 151.208 21.9083 151.395 21.955C151.605 21.9783 151.815 22.0133 152.025 22.06C152.375 22.13 152.631 22.235 152.795 22.375C152.958 22.4917 153.04 22.7017 153.04 23.005C153.04 23.2383 152.946 23.4367 152.76 23.6C152.596 23.74 152.293 23.8683 151.85 23.985C151.64 24.0317 151.418 24.0667 151.185 24.09C150.951 24.1133 150.718 24.1367 150.485 24.16L149.155 24.265C149.085 24.2883 148.991 24.3 148.875 24.3C148.758 24.3 148.618 24.3233 148.455 24.37C148.315 24.3933 148.151 24.4283 147.965 24.475C147.801 24.4983 147.626 24.5333 147.44 24.58C147.136 24.6267 146.833 24.685 146.53 24.755C146.25 24.8017 146.063 24.825 145.97 24.825H145.2ZM167.346 25C165.899 25 164.581 24.6967 163.391 24.09C162.224 23.4833 161.209 22.655 160.346 21.605C159.506 20.555 158.852 19.3767 158.386 18.07C157.919 16.74 157.686 15.375 157.686 13.975C157.686 10.9183 158.397 8.41 159.821 6.45C161.267 4.49 163.379 2.93833 166.156 1.795C166.902 1.515 167.719 1.24667 168.606 0.989998C169.492 0.709999 170.297 0.57 171.021 0.57C171.721 0.57 172.351 0.663332 172.911 0.849998C173.494 1.03667 173.972 1.34 174.346 1.76C174.602 2.04 174.777 2.33167 174.871 2.635C174.964 2.915 175.011 3.195 175.011 3.475C175.197 3.63833 175.396 3.88333 175.606 4.21C175.839 4.51333 176.049 4.805 176.236 5.085C177.099 6.275 177.682 7.48833 177.986 8.725C178.312 9.96167 178.476 11.3383 178.476 12.855C178.476 14.4417 178.207 15.9583 177.671 17.405C177.134 18.8517 176.364 20.1467 175.361 21.29C174.381 22.4333 173.202 23.3433 171.826 24.02C170.472 24.6733 168.979 25 167.346 25ZM167.696 22.445C169.072 22.445 170.262 22.13 171.266 21.5C172.269 20.8467 173.097 20.0183 173.751 19.015C174.404 17.9883 174.882 16.8917 175.186 15.725C175.512 14.535 175.676 13.4033 175.676 12.33C175.676 11.84 175.606 11.2217 175.466 10.475C175.326 9.72833 175.104 8.95833 174.801 8.165C174.521 7.34833 174.159 6.59 173.716 5.89C173.272 5.19 172.747 4.61833 172.141 4.175C171.534 3.73167 170.857 3.51 170.111 3.51C168.641 3.51 167.311 3.80167 166.121 4.385C164.931 4.96833 163.904 5.76167 163.041 6.765C162.201 7.76833 161.559 8.9 161.116 10.16C160.672 11.3967 160.451 12.6683 160.451 13.975C160.451 14.9783 160.591 15.9817 160.871 16.985C161.151 17.9883 161.582 18.8983 162.166 19.715C162.749 20.5317 163.496 21.1967 164.406 21.71C165.339 22.2 166.436 22.445 167.696 22.445ZM183.384 24.825C182.801 24.825 182.462 24.615 182.369 24.195C182.299 23.775 182.264 23.3083 182.264 22.795V22.235L182.334 21.745C182.357 21.605 182.392 21.4417 182.439 21.255C182.486 21.0683 182.521 20.8933 182.544 20.73C182.591 20.38 182.637 20.0533 182.684 19.75C182.754 19.4233 182.801 19.1783 182.824 19.015C182.871 18.665 182.929 18.105 182.999 17.335C183.092 16.565 183.174 15.7367 183.244 14.85C183.337 13.94 183.407 13.1117 183.454 12.365C183.524 11.6183 183.559 11.105 183.559 10.825C183.559 10.685 183.571 10.335 183.594 9.775C183.617 9.19167 183.641 8.56167 183.664 7.885C183.687 7.185 183.711 6.555 183.734 5.995C183.757 5.435 183.769 5.085 183.769 4.945C183.769 4.595 183.792 4.21 183.839 3.79C183.886 3.34667 184.014 2.96167 184.224 2.635C184.434 2.30833 184.772 2.145 185.239 2.145C185.566 2.145 185.904 2.355 186.254 2.775C186.627 3.17167 186.896 3.49833 187.059 3.755C187.152 3.91833 187.234 4.07 187.304 4.21C187.397 4.32667 187.479 4.44333 187.549 4.56C188.296 5.77333 189.101 7.045 189.964 8.375C190.851 9.705 191.702 11.0467 192.519 12.4C192.916 13.0533 193.417 13.8233 194.024 14.71C194.654 15.5733 195.284 16.4367 195.914 17.3C196.567 18.14 197.139 18.8633 197.629 19.47C198.049 20.0067 198.399 20.275 198.679 20.275C198.936 20.275 199.134 19.96 199.274 19.33C199.601 17.65 199.869 15.76 200.079 13.66C200.289 11.5367 200.394 9.48333 200.394 7.5C200.394 6.63667 200.371 5.82 200.324 5.05C200.277 4.25667 200.207 3.53333 200.114 2.88C200.067 2.48333 200.172 2.18 200.429 1.97C200.709 1.73667 201.036 1.62 201.409 1.62C201.852 1.62 202.156 1.67833 202.319 1.795C202.506 1.91166 202.634 2.11 202.704 2.39C202.844 3.02 202.937 3.79 202.984 4.7C203.031 5.61 203.054 6.47333 203.054 7.29C203.054 10.4867 202.949 13.2983 202.739 15.725C202.529 18.1283 202.121 20.0067 201.514 21.36C200.907 22.69 200.009 23.355 198.819 23.355C198.166 23.355 197.524 23.1333 196.894 22.69C196.264 22.2233 195.669 21.6633 195.109 21.01C194.572 20.3567 194.094 19.715 193.674 19.085C192.367 17.125 191.294 15.5033 190.454 14.22C189.637 12.9133 188.972 11.875 188.459 11.105C187.969 10.335 187.596 9.76333 187.339 9.39C187.082 8.99333 186.884 8.73667 186.744 8.62C186.627 8.50333 186.499 8.445 186.359 8.445C186.359 8.81833 186.336 9.40167 186.289 10.195C186.266 10.965 186.219 11.8633 186.149 12.89C186.079 13.9167 185.997 14.9667 185.904 16.04C185.811 17.1133 185.706 18.14 185.589 19.12C185.472 20.0767 185.356 20.8817 185.239 21.535C185.169 21.885 185.076 22.3283 184.959 22.865C184.842 23.3783 184.656 23.8333 184.399 24.23C184.166 24.6267 183.827 24.825 183.384 24.825Z" fill="#971818"/>
</svg>
