<svg width="178" height="29" viewBox="0 0 178 29" fill="none" xmlns="http://www.w3.org/2000/svg">
    <path d="M8.14891 27.65C6.42224 27.65 5.06891 27.3467 4.08891 26.74C3.10891 26.1333 2.42057 25.235 2.02391 24.045C1.65057 22.8317 1.46391 21.3383 1.46391 19.565C1.46391 18.7483 1.49891 17.8733 1.56891 16.94C0.658906 16.59 0.203906 16.1583 0.203906 15.645C0.203906 15.2017 0.343906 14.8867 0.623906 14.7C0.92724 14.49 1.26557 14.3267 1.63891 14.21C2.03557 14.0933 2.36224 13.9533 2.61891 13.79C2.66557 13.51 2.73557 13.09 2.82891 12.53C2.92224 11.9467 3.01557 11.34 3.10891 10.71C3.22557 10.0567 3.33057 9.485 3.42391 8.995C3.51724 8.48167 3.57557 8.16667 3.59891 8.05C3.34224 7.91 2.99224 7.82833 2.54891 7.805C2.12891 7.75833 1.75557 7.665 1.42891 7.525C1.10224 7.385 0.938906 7.09333 0.938906 6.65C0.938906 6.18333 1.06724 5.845 1.32391 5.635C1.58057 5.40166 2.00057 5.23833 2.58391 5.145C4.07724 4.88833 5.51224 4.67833 6.88891 4.515C8.26557 4.35167 9.70057 4.27 11.1939 4.27C11.5206 4.27 11.9639 4.27 12.5239 4.27C13.0839 4.27 13.6439 4.31667 14.2039 4.41C14.7872 4.48 15.2772 4.63167 15.6739 4.865C16.0706 5.09833 16.2689 5.44833 16.2689 5.915C16.2689 6.17167 16.1872 6.39333 16.0239 6.58C15.8839 6.76667 15.7206 6.86 15.5339 6.86H10.2839C10.1906 6.86 9.93391 6.87167 9.51391 6.895C9.09391 6.895 8.63891 6.91833 8.14891 6.965C7.65891 7.01167 7.25057 7.105 6.92391 7.245C6.57391 7.385 6.29391 7.81667 6.08391 8.54C5.87391 9.26333 5.72224 10.1267 5.62891 11.13C5.53557 12.11 5.48891 13.0783 5.48891 14.035C5.79224 14.0117 6.24724 13.9883 6.85391 13.965C7.46057 13.9183 8.09057 13.8833 8.74391 13.86C9.42057 13.8367 9.98057 13.825 10.4239 13.825H11.8239C12.3606 13.825 12.7222 13.9417 12.9089 14.175C13.1189 14.4083 13.2239 14.7233 13.2239 15.12C13.2239 15.9133 12.7806 16.345 11.8939 16.415L5.97891 16.8C5.32557 16.8233 4.88224 16.94 4.64891 17.15C4.43891 17.3367 4.29891 17.6983 4.22891 18.235C4.18224 18.6783 4.14724 19.0167 4.12391 19.25C4.12391 19.4833 4.12391 19.6933 4.12391 19.88C4.14724 20.0433 4.15891 20.195 4.15891 20.335C4.15891 20.4517 4.15891 20.5567 4.15891 20.65C4.15891 21.1867 4.20557 21.7583 4.29891 22.365C4.39224 22.9483 4.60224 23.4733 4.92891 23.94C5.27891 24.4067 5.81557 24.7217 6.53891 24.885H8.32391C9.49057 24.885 10.7272 24.7917 12.0339 24.605C13.3639 24.4183 14.5306 24.2083 15.5339 23.975C15.5806 23.9517 15.6389 23.94 15.7089 23.94C15.7789 23.94 15.8256 23.94 15.8489 23.94C16.1756 23.94 16.3856 24.0567 16.4789 24.29C16.5956 24.5233 16.6539 24.78 16.6539 25.06C16.6539 26.11 15.5922 26.845 13.4689 27.265C12.7222 27.4283 11.8706 27.5333 10.9139 27.58C9.95724 27.6267 9.03557 27.65 8.14891 27.65ZM24.7466 28.525C23.1132 28.105 21.8766 27.2417 21.0366 25.935C20.1966 24.6283 19.7766 23.1817 19.7766 21.595C19.7766 20.1017 20.1032 18.6667 20.7566 17.29C21.4332 15.89 22.3316 14.6417 23.4516 13.545C24.5716 12.425 25.8432 11.55 27.2666 10.92C28.7132 10.2667 30.2066 9.94 31.7466 9.94C32.6566 9.94 33.3682 9.96333 33.8816 10.01C34.3949 10.0567 34.9782 10.2083 35.6316 10.465C35.6549 10.115 35.7132 9.625 35.8066 8.995C35.8999 8.365 36.0049 7.7 36.1216 7C36.2382 6.27667 36.3316 5.635 36.4016 5.075C36.4716 4.56167 36.5416 4.04833 36.6116 3.535C36.7049 2.99833 36.8332 2.485 36.9966 1.995C37.3699 0.968332 37.9066 0.454998 38.6066 0.454998C39.1432 0.454998 39.4116 0.863332 39.4116 1.68C39.4116 1.79667 39.3999 1.93667 39.3766 2.1C39.3766 2.24 39.3649 2.40333 39.3416 2.59C38.9682 5.41333 38.6882 8.21333 38.5016 10.99C38.3382 13.7433 38.2566 16.4967 38.2566 19.25C38.2566 20.4167 38.2916 21.5717 38.3616 22.715C38.4316 23.835 38.5132 24.99 38.6066 26.18C38.6532 26.81 38.5366 27.3117 38.2566 27.685C37.9999 28.035 37.7082 28.21 37.3816 28.21C36.9149 28.21 36.5999 27.9183 36.4366 27.335C36.2032 26.5883 36.0166 25.8183 35.8766 25.025C35.7366 24.2083 35.6432 23.5317 35.5966 22.995C34.7332 23.9517 33.7999 24.85 32.7966 25.69C31.7932 26.53 30.7432 27.2183 29.6466 27.755C28.5732 28.2683 27.4649 28.525 26.3216 28.525H24.7466ZM26.1116 26.355C27.2316 26.355 28.3399 26.075 29.4366 25.515C30.5566 24.9317 31.5832 24.185 32.5166 23.275C33.4499 22.3417 34.1966 21.35 34.7566 20.3C35.3166 19.2267 35.5966 18.2 35.5966 17.22C35.5966 16.3333 35.4566 15.5167 35.1766 14.77C34.9199 14.0233 34.5349 13.4283 34.0216 12.985C33.5316 12.5183 32.9366 12.285 32.2366 12.285C30.9299 12.285 29.6816 12.5417 28.4916 13.055C27.3249 13.5683 26.2749 14.2683 25.3416 15.155C24.4316 16.0417 23.7082 17.0567 23.1716 18.2C22.6582 19.3433 22.4016 20.5333 22.4016 21.77V23.345C22.6349 24.2317 23.0549 24.955 23.6616 25.515C24.2682 26.075 25.0849 26.355 26.1116 26.355ZM48.2111 27.65C47.0211 27.65 46.0877 27.3233 45.4111 26.67C44.7344 25.9933 44.2444 25.13 43.9411 24.08C43.6611 23.0067 43.5211 21.875 43.5211 20.685C43.5211 19.8683 43.5327 19.215 43.5561 18.725C43.5794 18.2117 43.6261 17.6867 43.6961 17.15C43.7894 16.6133 43.9177 15.8783 44.0811 14.945C44.1744 14.4783 44.2677 14.0117 44.3611 13.545C44.4544 13.055 44.5827 12.5883 44.7461 12.145C44.9327 11.6083 45.1311 11.235 45.3411 11.025C45.5744 10.7917 45.7727 10.675 45.9361 10.675C46.3794 10.675 46.7061 10.8033 46.9161 11.06C47.1494 11.2933 47.2661 11.5967 47.2661 11.97C47.2661 12.4833 47.1961 12.9617 47.0561 13.405C46.9161 13.8483 46.7994 14.2683 46.7061 14.665C46.5427 15.715 46.4027 16.555 46.2861 17.185C46.1694 17.7917 46.0761 18.3517 46.0061 18.865C45.9594 19.355 45.9361 19.9617 45.9361 20.685C45.9361 21.035 45.9594 21.455 46.0061 21.945C46.0761 22.435 46.1927 22.9133 46.3561 23.38C46.5194 23.8467 46.7644 24.2433 47.0911 24.57C47.4177 24.8733 47.8494 25.025 48.3861 25.025C48.9461 25.025 49.4711 24.8267 49.9611 24.43C50.4744 24.01 50.8361 23.6717 51.0461 23.415C52.6327 21.4083 54.0444 19.4483 55.2811 17.535C56.5177 15.6217 57.7427 13.5333 58.9561 11.27C59.1194 11.0133 59.2477 10.85 59.3411 10.78C59.4577 10.71 59.5977 10.675 59.7611 10.675C60.2977 10.675 60.6711 10.7683 60.8811 10.955C61.0911 11.1417 61.1961 11.4567 61.1961 11.9C61.1961 12.18 61.1611 12.5183 61.0911 12.915C60.7411 14.665 60.5661 16.4033 60.5661 18.13C60.5661 19.2967 60.6711 20.3817 60.8811 21.385C61.0911 22.3883 61.4294 23.2167 61.8961 23.87C62.2461 24.3133 62.4211 24.6983 62.4211 25.025C62.4211 25.4217 62.3044 25.7367 62.0711 25.97C61.8611 26.2033 61.5927 26.32 61.2661 26.32C60.3794 26.32 59.6794 25.62 59.1661 24.22C59.0027 23.73 58.8161 23.1117 58.6061 22.365C58.4194 21.595 58.2444 20.825 58.0811 20.055C57.9177 19.285 57.8127 18.6433 57.7661 18.13C57.4627 18.62 57.1827 19.11 56.9261 19.6C56.6927 20.0667 56.3894 20.5683 56.0161 21.105C55.7594 21.4783 55.4561 21.91 55.1061 22.4C54.7561 22.8667 54.3827 23.3567 53.9861 23.87C53.1694 24.8733 52.2711 25.76 51.2911 26.53C50.3111 27.2767 49.2844 27.65 48.2111 27.65ZM73.7723 27.475C72.1389 27.475 70.7623 27.0783 69.6423 26.285C68.5223 25.4917 67.6706 24.43 67.0873 23.1C66.5039 21.7467 66.2123 20.2767 66.2123 18.69C66.2123 16.9167 66.6089 15.295 67.4023 13.825C68.1956 12.355 69.2923 11.1767 70.6923 10.29C72.0923 9.38 73.6789 8.925 75.4523 8.925C75.9423 8.925 76.5139 8.96 77.1673 9.03C77.8206 9.1 78.4506 9.24 79.0573 9.45C79.6639 9.66 80.1656 9.96333 80.5623 10.36C80.9589 10.7567 81.1573 11.2817 81.1573 11.935C81.1573 12.1917 81.0523 12.4133 80.8423 12.6C80.6323 12.7867 80.2939 12.88 79.8273 12.88C79.4539 12.88 79.1039 12.7867 78.7773 12.6C78.4739 12.4133 78.1823 12.2267 77.9023 12.04C77.4823 11.76 77.0389 11.515 76.5723 11.305C76.1289 11.0717 75.6389 10.955 75.1023 10.955C74.0756 10.955 73.1773 11.2233 72.4073 11.76C71.6373 12.2733 70.9956 12.95 70.4823 13.79C69.9689 14.6067 69.5839 15.4817 69.3273 16.415C69.0706 17.325 68.9423 18.165 68.9423 18.935C68.9423 20.4517 69.2339 21.665 69.8173 22.575C70.4239 23.4617 71.2173 24.1033 72.1973 24.5C73.2006 24.8733 74.2856 25.06 75.4523 25.06C76.5723 25.06 77.5873 24.8617 78.4973 24.465C79.4306 24.0683 80.3756 23.6483 81.3323 23.205C81.6589 23.0417 81.9273 22.96 82.1373 22.96C82.4173 22.96 82.6039 23.0767 82.6973 23.31C82.7906 23.52 82.8373 23.7883 82.8373 24.115C82.8373 24.7217 82.5923 25.235 82.1023 25.655C81.6123 26.0517 80.9939 26.3783 80.2473 26.635C79.5006 26.8683 78.6956 27.055 77.8323 27.195C76.9923 27.3117 76.2106 27.3933 75.4873 27.44C74.7639 27.4633 74.1923 27.475 73.7723 27.475ZM92.7108 28.35C91.6608 28.35 90.6808 28.1167 89.7708 27.65C88.8842 27.1833 88.1375 26.5533 87.5308 25.76C86.9242 24.9667 86.5275 24.08 86.3408 23.1V21.245C86.3408 19.915 86.5858 18.5733 87.0758 17.22C87.5658 15.8667 88.2425 14.6183 89.1058 13.475C89.9925 12.3317 91.0308 11.4217 92.2208 10.745C93.4342 10.045 94.7408 9.695 96.1408 9.695C97.0275 9.695 97.8792 9.84667 98.6958 10.15C99.5358 10.4533 100.282 10.8033 100.936 11.2C101.076 10.22 101.251 9.54333 101.461 9.17C101.671 8.79667 102.032 8.61 102.546 8.61C102.942 8.61 103.222 8.73833 103.386 8.995C103.549 9.22833 103.631 9.64833 103.631 10.255C103.631 11.655 103.596 13.0317 103.526 14.385C103.479 15.715 103.456 17.08 103.456 18.48C103.456 19.6 103.514 20.755 103.631 21.945C103.771 23.135 103.841 24.2783 103.841 25.375C103.841 25.725 103.841 26.075 103.841 26.425C103.864 26.775 103.806 27.0667 103.666 27.3C103.549 27.51 103.292 27.615 102.896 27.615C102.336 27.615 101.916 27.3583 101.636 26.845C101.379 26.3083 101.204 25.6667 101.111 24.92C101.017 24.1733 100.924 23.4733 100.831 22.82C100.597 23.45 100.201 24.0683 99.6408 24.675C99.1042 25.2817 98.5558 25.8067 97.9958 26.25C97.4592 26.67 97.0392 26.9733 96.7358 27.16C96.4558 27.3233 96.4558 27.3 96.7358 27.09C96.2225 27.4633 95.5808 27.7667 94.8108 28C94.0642 28.2333 93.3642 28.35 92.7108 28.35ZM92.3608 26.145C93.4108 26.145 94.3908 25.8417 95.3008 25.235C96.2108 24.6283 97.0042 23.8467 97.6808 22.89C98.3808 21.9333 98.9175 20.93 99.2908 19.88C99.6875 18.83 99.8858 17.8617 99.8858 16.975C99.8858 16.5317 99.8275 16.03 99.7108 15.47C99.6175 14.8867 99.4308 14.3267 99.1508 13.79C98.8708 13.2533 98.4858 12.81 97.9958 12.46C97.5292 12.11 96.9108 11.935 96.1408 11.935C95.1375 11.935 94.1808 12.2617 93.2708 12.915C92.3608 13.545 91.5442 14.3617 90.8208 15.365C90.1208 16.345 89.5725 17.36 89.1758 18.41C88.7792 19.46 88.5808 20.405 88.5808 21.245C88.5808 21.875 88.6858 22.575 88.8958 23.345C89.1292 24.115 89.5142 24.78 90.0508 25.34C90.6108 25.8767 91.3808 26.145 92.3608 26.145ZM113.654 28.7C113.071 28.7 112.639 28.5133 112.359 28.14C112.079 27.7667 111.892 27.3 111.799 26.74C111.729 26.18 111.694 25.6317 111.694 25.095C111.694 24.8383 111.694 24.5933 111.694 24.36C111.717 24.1267 111.729 23.9283 111.729 23.765C111.729 22.085 111.764 20.3933 111.834 18.69C111.904 16.9633 111.939 15.085 111.939 13.055C111.076 13.055 110.364 13.09 109.804 13.16C109.244 13.23 108.684 13.265 108.124 13.265C107.751 13.265 107.494 13.195 107.354 13.055C107.214 12.915 107.144 12.6817 107.144 12.355C107.144 11.9817 107.191 11.7133 107.284 11.55C107.401 11.3633 107.541 11.2467 107.704 11.2L111.134 10.5C111.647 10.3833 112.009 10.15 112.219 9.8C112.452 9.45 112.616 9.11167 112.709 8.785C112.756 8.59833 112.779 8.42333 112.779 8.26C112.802 8.07333 112.826 7.875 112.849 7.665C112.849 7.47833 112.849 7.30333 112.849 7.14C112.872 6.95333 112.884 6.77833 112.884 6.615C112.931 5.86833 113.047 5.32 113.234 4.97C113.444 4.62 113.841 4.445 114.424 4.445C114.961 4.445 115.276 4.655 115.369 5.075C115.486 5.495 115.544 5.89167 115.544 6.265C115.544 6.52167 115.521 6.91833 115.474 7.455C115.451 7.96833 115.427 8.48167 115.404 8.995C115.381 9.50833 115.357 9.88167 115.334 10.115H120.934C121.144 10.115 121.354 10.255 121.564 10.535C121.774 10.815 121.879 11.1767 121.879 11.62C121.879 11.76 121.821 11.9467 121.704 12.18C121.587 12.39 121.447 12.495 121.284 12.495C121.051 12.495 120.607 12.5067 119.954 12.53C119.324 12.53 118.636 12.5417 117.889 12.565C117.166 12.5883 116.524 12.6117 115.964 12.635C115.404 12.6583 115.089 12.6933 115.019 12.74C114.902 14.14 114.809 15.4933 114.739 16.8C114.692 18.0833 114.669 19.3317 114.669 20.545C114.669 21.3383 114.681 22.1083 114.704 22.855C114.751 23.5783 114.786 24.3017 114.809 25.025C114.809 25.1417 114.821 25.3167 114.844 25.55C114.867 25.7833 114.879 26.04 114.879 26.32C114.879 26.8567 114.797 27.3933 114.634 27.93C114.494 28.4433 114.167 28.7 113.654 28.7ZM128.716 5.11C127.946 5.11 127.328 4.935 126.861 4.585C126.418 4.21166 126.196 3.73333 126.196 3.15C126.196 2.61333 126.453 2.205 126.966 1.925C127.48 1.62167 128.133 1.47 128.926 1.47C129.72 1.47 130.338 1.65667 130.781 2.03C131.225 2.38 131.446 2.87 131.446 3.5C131.446 4.01333 131.19 4.41 130.676 4.69C130.186 4.97 129.533 5.11 128.716 5.11ZM126.896 27.475C126.57 27.475 126.313 27.265 126.126 26.845C125.963 26.425 125.846 25.8883 125.776 25.235C125.73 24.5817 125.706 23.905 125.706 23.205C125.706 22.8783 125.706 22.5517 125.706 22.225C125.73 21.875 125.741 21.5483 125.741 21.245C125.741 21.1517 125.776 20.8483 125.846 20.335C125.916 19.7983 125.998 19.18 126.091 18.48C126.185 17.78 126.278 17.0917 126.371 16.415C126.488 15.715 126.581 15.1667 126.651 14.77C126.721 14.4667 126.803 14.07 126.896 13.58C126.99 13.0667 127.153 12.6117 127.386 12.215C127.643 11.795 128.005 11.585 128.471 11.585C129.008 11.585 129.381 11.69 129.591 11.9C129.825 12.0867 129.941 12.39 129.941 12.81C129.941 12.9267 129.93 13.0433 129.906 13.16C129.906 13.2767 129.895 13.405 129.871 13.545C129.755 14.2917 129.603 15.225 129.416 16.345C129.253 17.4417 129.101 18.5967 128.961 19.81C128.845 21 128.81 22.1317 128.856 23.205C128.88 23.4617 128.903 23.765 128.926 24.115C128.973 24.4417 128.996 24.7683 128.996 25.095C128.996 25.7017 128.868 26.25 128.611 26.74C128.355 27.23 127.783 27.475 126.896 27.475ZM143.301 28C141.621 28 140.058 27.6383 138.611 26.915C137.165 26.1683 135.998 25.1417 135.111 23.835C134.248 22.505 133.816 20.965 133.816 19.215C133.816 18.025 134.061 16.9167 134.551 15.89C135.065 14.8633 135.718 13.8833 136.511 12.95C137.305 12.0167 138.133 11.1067 138.996 10.22C139.393 9.82333 139.848 9.54333 140.361 9.38C140.875 9.19333 141.423 9.1 142.006 9.1C143.616 9.1 145.133 9.275 146.556 9.625C147.98 9.95167 149.24 10.4883 150.336 11.235C151.456 11.9817 152.331 12.95 152.961 14.14C153.591 15.33 153.906 16.7767 153.906 18.48C153.906 19.88 153.603 21.1633 152.996 22.33C152.413 23.4967 151.608 24.5117 150.581 25.375C149.578 26.215 148.446 26.8683 147.186 27.335C145.926 27.7783 144.631 28 143.301 28ZM142.531 25.41C143.605 25.41 144.666 25.2583 145.716 24.955C146.79 24.6517 147.758 24.1967 148.621 23.59C149.485 22.96 150.173 22.1783 150.686 21.245C151.223 20.3117 151.491 19.2033 151.491 17.92C151.491 16.7533 151.235 15.7617 150.721 14.945C150.231 14.105 149.578 13.4283 148.761 12.915C147.945 12.3783 147.058 11.9817 146.101 11.725C145.145 11.4683 144.211 11.34 143.301 11.34C142.928 11.34 142.508 11.375 142.041 11.445C141.598 11.4917 141.166 11.7133 140.746 12.11C140.233 12.6 139.708 13.1017 139.171 13.615C138.658 14.105 138.18 14.6533 137.736 15.26C137.293 15.8433 136.931 16.4967 136.651 17.22C136.371 17.9433 136.231 18.725 136.231 19.565C136.231 20.9183 136.511 22.0267 137.071 22.89C137.655 23.7533 138.425 24.395 139.381 24.815C140.338 25.2117 141.388 25.41 142.531 25.41ZM159.707 27.3C159.357 27.3 159.1 27.2183 158.937 27.055C158.774 26.8917 158.657 26.6583 158.587 26.355C158.47 25.9583 158.412 25.5383 158.412 25.095V23.73C158.412 22.9833 158.435 22.3417 158.482 21.805C158.529 21.245 158.552 20.6383 158.552 19.985C158.552 19.7517 158.54 19.5067 158.517 19.25C158.517 18.97 158.505 18.6783 158.482 18.375C158.389 17.2317 158.26 16.03 158.097 14.77C157.934 13.51 157.852 12.3667 157.852 11.34V9.975C157.992 9.64833 158.12 9.45 158.237 9.38C158.377 9.31 158.564 9.275 158.797 9.275C159.357 9.275 159.754 9.49667 159.987 9.94C160.22 10.36 160.372 10.8617 160.442 11.445C160.535 12.005 160.594 12.495 160.617 12.915C160.64 13.0783 160.675 13.4283 160.722 13.965C160.792 14.5017 160.862 15.1083 160.932 15.785C161.002 16.4383 161.06 17.0683 161.107 17.675C161.177 18.2817 161.212 18.7483 161.212 19.075C161.585 18.305 162.029 17.5117 162.542 16.695C163.055 15.855 163.569 15.0733 164.082 14.35C164.619 13.6267 165.097 13.0433 165.517 12.6C166.124 11.9233 166.835 11.3983 167.652 11.025C168.492 10.6283 169.32 10.43 170.137 10.43C171.094 10.43 171.934 10.6983 172.657 11.235C173.38 11.7717 173.999 12.4717 174.512 13.335C175.049 14.1983 175.492 15.1317 175.842 16.135C176.192 17.115 176.472 18.0717 176.682 19.005C176.985 20.2417 177.207 21.3267 177.347 22.26C177.51 23.1933 177.65 24.255 177.767 25.445C177.767 25.9583 177.662 26.3667 177.452 26.67C177.242 26.9733 176.985 27.125 176.682 27.125C176.239 27.125 175.924 27.0317 175.737 26.845C175.55 26.635 175.422 26.3083 175.352 25.865C175.189 24.9783 175.025 23.975 174.862 22.855C174.722 21.735 174.524 20.6033 174.267 19.46C174.01 18.2933 173.637 17.2317 173.147 16.275C172.96 15.8317 172.727 15.3767 172.447 14.91C172.167 14.4433 171.829 14.0467 171.432 13.72C171.035 13.3933 170.545 13.23 169.962 13.23C169.192 13.23 168.41 13.5683 167.617 14.245C166.847 14.9217 166.112 15.7967 165.412 16.87C164.712 17.9433 164.07 19.0983 163.487 20.335C162.904 21.5483 162.414 22.7033 162.017 23.8C161.9 24.1733 161.749 24.5933 161.562 25.06C161.399 25.5033 161.224 25.9233 161.037 26.32C160.874 26.6467 160.687 26.8917 160.477 27.055C160.29 27.2183 160.034 27.3 159.707 27.3Z"
          fill="#971818"/>
</svg>
