<svg width="12" height="59" viewBox="0 0 12 59" fill="none" xmlns="http://www.w3.org/2000/svg">
    <path d="M5.07861 2C6.98169 2.57092 6.40997 5.64185 6.40997 7.10354C6.40997 9.21183 5.7239 9.53583 4.83206 11.3195C3.95495 13.0737 2.97319 14.7335 2.194 16.4477C1.21265 18.6067 4.22035 17.7287 5.27585 19.0858C7.3142 21.7065 6.40997 26.3463 6.40997 29.5147C6.40997 31.7425 5.63986 33.496 5.5224 35.7277C5.49357 36.2755 5.07861 40.055 5.07861 38.3905"
          stroke="#A0CEDD" stroke-width="3" stroke-linecap="round" stroke-linejoin="round"/>
    <path d="M5.0786 47.2661C4.04052 47.5256 4.63481 54.9564 4.63481 56.3391C4.63481 57.6253 5.51578 57.4686 6.31134 56.8322C7.13802 56.1708 7.96039 53.437 8.1851 52.3696C8.68775 49.982 9.8125 48.0073 9.51646 45.491C9.41227 44.6053 4.55616 45.0472 3.74724 45.0472"
          stroke="#A0CEDD" stroke-width="3" stroke-linecap="round" stroke-linejoin="round"/>
</svg>
