<svg width="185" height="37" viewBox="0 0 185 37" fill="none" xmlns="http://www.w3.org/2000/svg">
<path d="M8.41893 26.65C6.69226 26.65 5.33893 26.3467 4.35893 25.74C3.37893 25.1333 2.69059 24.235 2.29393 23.045C1.92059 21.8317 1.73393 20.3383 1.73393 18.565C1.73393 17.7483 1.76893 16.8733 1.83893 15.94C0.928926 15.59 0.473926 15.1583 0.473926 14.645C0.473926 14.2017 0.613926 13.8867 0.893926 13.7C1.19726 13.49 1.53559 13.3267 1.90893 13.21C2.30559 13.0933 2.63226 12.9533 2.88893 12.79C2.93559 12.51 3.00559 12.09 3.09893 11.53C3.19226 10.9467 3.28559 10.34 3.37893 9.71C3.49559 9.05667 3.60059 8.485 3.69393 7.995C3.78726 7.48167 3.84559 7.16667 3.86893 7.05C3.61226 6.91 3.26226 6.82833 2.81893 6.805C2.39893 6.75833 2.02559 6.665 1.69893 6.525C1.37226 6.385 1.20893 6.09333 1.20893 5.65C1.20893 5.18333 1.33726 4.845 1.59393 4.635C1.85059 4.40166 2.27059 4.23833 2.85393 4.145C4.34726 3.88833 5.78226 3.67833 7.15893 3.515C8.53559 3.35167 9.97059 3.27 11.4639 3.27C11.7906 3.27 12.2339 3.27 12.7939 3.27C13.3539 3.27 13.9139 3.31667 14.4739 3.41C15.0573 3.48 15.5473 3.63167 15.9439 3.865C16.3406 4.09833 16.5389 4.44833 16.5389 4.915C16.5389 5.17167 16.4573 5.39333 16.2939 5.58C16.1539 5.76667 15.9906 5.86 15.8039 5.86H10.5539C10.4606 5.86 10.2039 5.87167 9.78393 5.895C9.36393 5.895 8.90893 5.91833 8.41893 5.965C7.92893 6.01167 7.52059 6.105 7.19393 6.245C6.84393 6.385 6.56393 6.81667 6.35393 7.54C6.14393 8.26333 5.99226 9.12667 5.89893 10.13C5.80559 11.11 5.75893 12.0783 5.75893 13.035C6.06226 13.0117 6.51726 12.9883 7.12393 12.965C7.73059 12.9183 8.36059 12.8833 9.01393 12.86C9.69059 12.8367 10.2506 12.825 10.6939 12.825H12.0939C12.6306 12.825 12.9923 12.9417 13.1789 13.175C13.3889 13.4083 13.4939 13.7233 13.4939 14.12C13.4939 14.9133 13.0506 15.345 12.1639 15.415L6.24893 15.8C5.59559 15.8233 5.15226 15.94 4.91893 16.15C4.70893 16.3367 4.56893 16.6983 4.49893 17.235C4.45226 17.6783 4.41726 18.0167 4.39393 18.25C4.39393 18.4833 4.39393 18.6933 4.39393 18.88C4.41726 19.0433 4.42893 19.195 4.42893 19.335C4.42893 19.4517 4.42893 19.5567 4.42893 19.65C4.42893 20.1867 4.47559 20.7583 4.56893 21.365C4.66226 21.9483 4.87226 22.4733 5.19893 22.94C5.54893 23.4067 6.08559 23.7217 6.80893 23.885H8.59393C9.76059 23.885 10.9973 23.7917 12.3039 23.605C13.6339 23.4183 14.8006 23.2083 15.8039 22.975C15.8506 22.9517 15.9089 22.94 15.9789 22.94C16.0489 22.94 16.0956 22.94 16.1189 22.94C16.4456 22.94 16.6556 23.0567 16.7489 23.29C16.8656 23.5233 16.9239 23.78 16.9239 24.06C16.9239 25.11 15.8623 25.845 13.7389 26.265C12.9923 26.4283 12.1406 26.5333 11.1839 26.58C10.2273 26.6267 9.30559 26.65 8.41893 26.65ZM34.3616 27.35C34.0116 27.35 33.7199 27.2683 33.4866 27.105C33.2766 26.9417 33.0432 26.65 32.7866 26.23L30.1966 21.995C30.1032 21.8317 29.9282 21.575 29.6716 21.225C29.4149 20.875 29.1582 20.5367 28.9016 20.21C28.6682 19.8833 28.5166 19.685 28.4466 19.615C28.1666 19.8483 27.8166 20.1983 27.3966 20.665C26.9999 21.1317 26.6032 21.6217 26.2066 22.135L25.1216 23.465C25.0049 23.5817 24.8766 23.7217 24.7366 23.885C24.5966 24.025 24.4566 24.1767 24.3166 24.34C23.9899 24.69 23.7099 25.005 23.4766 25.285C23.2432 25.565 22.9516 25.8333 22.6016 26.09C22.3216 26.3 22.0182 26.405 21.6916 26.405C21.4349 26.405 21.2132 26.3233 21.0266 26.16C20.8399 25.9733 20.7466 25.6933 20.7466 25.32C20.7466 24.7133 20.9916 24.0833 21.4816 23.43C21.9949 22.7533 22.6249 22.0533 23.3716 21.33C23.7449 20.98 24.1066 20.6417 24.4566 20.315C24.8066 19.9883 25.1099 19.6733 25.3666 19.37C25.6232 19.0667 25.8682 18.7867 26.1016 18.53C26.3582 18.2733 26.6732 17.9117 27.0466 17.445C26.9766 17.305 26.7782 17.0017 26.4516 16.535C26.1249 16.045 25.7632 15.5083 25.3666 14.925C24.9699 14.3417 24.5966 13.8167 24.2466 13.35C23.9199 12.8833 23.6982 12.58 23.5816 12.44C23.2082 11.9967 22.7999 11.495 22.3566 10.935C21.9366 10.375 21.7266 9.79167 21.7266 9.185C21.7266 8.92833 21.8316 8.74167 22.0416 8.625C22.2749 8.50833 22.5432 8.45 22.8466 8.45C23.1032 8.45 23.4066 8.60167 23.7566 8.905C24.1299 9.20833 24.4449 9.535 24.7016 9.885C24.9582 10.2117 25.2966 10.655 25.7166 11.215C26.1366 11.7517 26.5449 12.265 26.9416 12.755C27.3382 13.245 27.6066 13.595 27.7466 13.805C27.8399 13.875 27.9682 14.0383 28.1316 14.295C28.3182 14.5517 28.4932 14.7967 28.6566 15.03C28.8199 15.24 28.9016 15.345 28.9016 15.345C29.8816 14.3183 30.8616 13.3033 31.8416 12.3C32.8449 11.2967 33.8366 10.2933 34.8166 9.29C35.1432 8.96333 35.3882 8.77667 35.5516 8.73C35.7382 8.66 35.9249 8.625 36.1116 8.625C36.7183 8.625 37.0216 8.94 37.0216 9.57C37.0216 9.82667 36.9866 10.0367 36.9166 10.2C36.8699 10.3633 36.7649 10.55 36.6016 10.76C35.5282 11.9267 34.6066 12.9183 33.8366 13.735C33.0666 14.5283 32.4249 15.2167 31.9116 15.8C31.3982 16.3833 30.9549 16.9317 30.5816 17.445C30.6516 17.725 30.8732 18.1917 31.2466 18.845C31.6199 19.475 32.0399 20.1633 32.5066 20.91C32.9966 21.6567 33.4399 22.3567 33.8366 23.01C34.2566 23.64 34.5482 24.095 34.7116 24.375C35.1782 25.1683 35.4116 25.8333 35.4116 26.37C35.4116 27.0233 35.0616 27.35 34.3616 27.35ZM42.6292 36.87C42.2326 36.87 41.9759 36.66 41.8592 36.24C41.7426 35.8433 41.6842 35.4 41.6842 34.91C41.6842 34.7233 41.6842 34.525 41.6842 34.315C41.7076 34.1283 41.7192 33.9533 41.7192 33.79C41.7192 31.41 41.8242 29.135 42.0342 26.965C42.2442 24.7717 42.3959 22.6483 42.4892 20.595C42.5126 20.0583 42.5359 19.3933 42.5592 18.6C42.5826 17.8067 42.5942 17.0483 42.5942 16.325C42.6176 15.6017 42.6176 15.0767 42.5942 14.75C42.1509 14.75 41.8009 14.5867 41.5442 14.26C41.2876 13.9333 41.1592 13.6183 41.1592 13.315C41.1592 13.0817 41.2642 12.7783 41.4742 12.405C41.7076 12.0083 42.0459 11.7283 42.4892 11.565C42.5359 11.4483 42.5592 11.3317 42.5592 11.215C42.5592 11.075 42.5592 10.9233 42.5592 10.76C42.5592 10.2467 42.5126 9.675 42.4192 9.045C42.3492 8.39167 42.2909 7.91333 42.2442 7.61C42.2209 7.47 42.3609 7.31833 42.6642 7.155C42.9676 6.99167 43.2709 6.91 43.5742 6.91C43.9942 6.91 44.2859 7.05 44.4492 7.33C44.6126 7.61 44.7176 7.96 44.7642 8.38C44.8109 8.8 44.8692 9.22 44.9392 9.64C45.9892 9.22 46.8409 8.905 47.4942 8.695C48.1476 8.485 48.7659 8.345 49.3492 8.275C49.9326 8.205 50.6326 8.17 51.4492 8.17C52.9659 8.17 54.3426 8.415 55.5792 8.905C56.8392 9.395 57.8426 10.13 58.5892 11.11C59.3359 12.0667 59.7092 13.2683 59.7092 14.715C59.7092 16.0917 59.4176 17.4683 58.8342 18.845C58.2742 20.2217 57.4926 21.4817 56.4892 22.625C55.5092 23.745 54.3776 24.6433 53.0942 25.32C51.8109 25.9967 50.4576 26.335 49.0342 26.335C48.6609 26.335 48.2992 26.3 47.9492 26.23C47.5992 26.1367 47.2376 26.0667 46.8642 26.02C46.7242 25.9967 46.5842 25.985 46.4442 25.985C46.3042 25.9617 46.1759 25.95 46.0592 25.95H44.9042C44.9042 26.4867 44.9042 27.2333 44.9042 28.19C44.9042 29.1467 44.8809 30.1617 44.8342 31.235C44.8109 32.3083 44.7642 33.3117 44.6942 34.245C44.6476 34.9683 44.4259 35.5867 44.0292 36.1C43.6559 36.6133 43.1892 36.87 42.6292 36.87ZM48.8592 23.99C50.0259 23.99 51.1109 23.7217 52.1142 23.185C53.1409 22.625 54.0392 21.89 54.8092 20.98C55.6026 20.07 56.2092 19.09 56.6292 18.04C57.0726 16.9667 57.2942 15.9167 57.2942 14.89C57.2942 13.77 57.0142 12.8833 56.4542 12.23C55.8942 11.5533 55.1826 11.075 54.3192 10.795C53.4792 10.4917 52.5926 10.34 51.6592 10.34C51.1926 10.34 50.7026 10.3633 50.1892 10.41C49.6759 10.4333 49.1859 10.55 48.7192 10.76C47.6926 11.2033 46.8992 11.6933 46.3392 12.23C45.8026 12.7433 45.4409 13.3617 45.2542 14.085C45.1609 14.4117 45.1026 14.75 45.0792 15.1C45.0559 15.45 45.0442 15.8117 45.0442 16.185C45.0442 16.5583 45.0559 16.955 45.0792 17.375C45.1026 17.795 45.1142 18.2383 45.1142 18.705V21.61C45.1142 22.1467 45.3242 22.6017 45.7442 22.975C46.1642 23.325 46.6659 23.5817 47.2492 23.745C47.8326 23.9083 48.3692 23.99 48.8592 23.99ZM71.9992 27.525C70.2258 27.525 68.6158 27.2683 67.1692 26.755C65.7458 26.2183 64.6142 25.39 63.7742 24.27C62.9342 23.1267 62.5142 21.6567 62.5142 19.86C62.5142 18.4367 62.7475 17.0483 63.2142 15.695C63.7042 14.3417 64.3925 13.1167 65.2792 12.02C66.1658 10.9233 67.2275 10.06 68.4642 9.43C69.7008 8.77667 71.0775 8.45 72.5942 8.45C73.6442 8.45 74.5892 8.64833 75.4292 9.045C76.2925 9.44167 76.9808 10.0017 77.4942 10.725C78.0075 11.4483 78.2642 12.3117 78.2642 13.315C78.2642 14.3883 78.0308 15.415 77.5642 16.395C77.1208 17.3517 76.5142 18.2033 75.7442 18.95C74.9742 19.6967 74.0992 20.2917 73.1192 20.735C72.1625 21.155 71.1592 21.365 70.1092 21.365C69.1992 21.365 68.3475 21.295 67.5542 21.155C66.7608 20.9917 66.0258 20.7467 65.3492 20.42C65.3492 21.3067 65.5592 22.065 65.9792 22.695C66.3992 23.3017 66.9358 23.8033 67.5892 24.2C68.2425 24.5733 68.9192 24.8533 69.6192 25.04C70.3425 25.2033 71.0075 25.285 71.6142 25.285C72.1042 25.285 72.5942 25.2617 73.0842 25.215C73.5742 25.145 74.1108 25.11 74.6942 25.11C75.5575 25.11 75.9892 25.4833 75.9892 26.23C75.9892 26.8133 75.5808 27.1867 74.7642 27.35C74.3208 27.4433 73.8658 27.49 73.3992 27.49C72.9325 27.5133 72.4658 27.525 71.9992 27.525ZM70.1092 18.565C70.9258 18.565 71.7775 18.4017 72.6642 18.075C73.5508 17.7483 74.2975 17.235 74.9042 16.535C75.5342 15.835 75.8492 14.9483 75.8492 13.875C75.8492 12.9183 75.5458 12.1483 74.9392 11.565C74.3558 10.9583 73.5742 10.655 72.5942 10.655C71.7075 10.655 70.8325 10.865 69.9692 11.285C69.1292 11.6817 68.3592 12.23 67.6592 12.93C66.9592 13.6067 66.3992 14.3767 65.9792 15.24C65.5592 16.1033 65.3492 16.99 65.3492 17.9C65.8858 18.18 66.5625 18.3667 67.3792 18.46C68.1958 18.53 69.1058 18.565 70.1092 18.565ZM83.189 27.35C82.9324 27.35 82.734 27.2333 82.594 27C82.4774 26.7667 82.3957 26.4983 82.349 26.195C82.3024 25.8917 82.2557 25.635 82.209 25.425V22.66C82.209 21.26 82.2674 19.825 82.384 18.355C82.524 16.885 82.594 15.45 82.594 14.05C82.594 13.3733 82.5474 12.6967 82.454 12.02C82.384 11.3433 82.3024 10.7717 82.209 10.305C82.1857 10.1883 82.1624 10.0833 82.139 9.99C82.139 9.89667 82.139 9.80333 82.139 9.71C82.139 9.40667 82.2324 9.20833 82.419 9.115C82.6057 9.02167 82.9207 8.975 83.364 8.975C83.9007 8.975 84.2974 9.20833 84.554 9.675C84.8107 10.1417 84.9974 10.69 85.114 11.32C85.254 11.9267 85.3824 12.475 85.499 12.965C86.1757 12.1483 86.9107 11.5533 87.704 11.18C88.4974 10.8067 89.1624 10.48 89.699 10.2C90.2124 9.94333 90.7257 9.745 91.239 9.605C91.7757 9.44167 92.3707 9.36 93.024 9.36C93.6774 9.36 94.284 9.54667 94.844 9.92C95.4274 10.27 95.719 10.655 95.719 11.075C95.719 11.565 95.5674 11.9267 95.264 12.16C94.9607 12.3933 94.6107 12.51 94.214 12.51C94.0974 12.51 93.9807 12.4983 93.864 12.475C93.7707 12.4283 93.6657 12.3933 93.549 12.37C93.3857 12.3 93.199 12.2417 92.989 12.195C92.8024 12.1483 92.6157 12.125 92.429 12.125C91.7057 12.125 91.0057 12.265 90.329 12.545C89.6524 12.8017 89.0807 13.0583 88.614 13.315C87.7974 13.7583 87.1557 14.26 86.689 14.82C86.2457 15.3567 85.8724 15.8583 85.569 16.325C85.4057 17.2117 85.3007 18.075 85.254 18.915C85.2074 19.755 85.1724 20.4083 85.149 20.875C85.1257 21.365 85.1024 21.8783 85.079 22.415C85.0557 22.9517 85.0207 23.4883 84.974 24.025C84.9274 24.585 84.8574 25.1217 84.764 25.635C84.6707 26.1483 84.5074 26.5683 84.274 26.895C84.0407 27.1983 83.679 27.35 83.189 27.35ZM100.139 4.11C99.3686 4.11 98.7503 3.935 98.2836 3.585C97.8403 3.21166 97.6186 2.73333 97.6186 2.15C97.6186 1.61333 97.8753 1.205 98.3886 0.924998C98.9019 0.621666 99.5553 0.469999 100.349 0.469999C101.142 0.469999 101.76 0.656666 102.204 1.03C102.647 1.38 102.869 1.87 102.869 2.5C102.869 3.01333 102.612 3.41 102.099 3.69C101.609 3.97 100.955 4.11 100.139 4.11ZM98.3186 26.475C97.9919 26.475 97.7353 26.265 97.5486 25.845C97.3853 25.425 97.2686 24.8883 97.1986 24.235C97.1519 23.5817 97.1286 22.905 97.1286 22.205C97.1286 21.8783 97.1286 21.5517 97.1286 21.225C97.1519 20.875 97.1636 20.5483 97.1636 20.245C97.1636 20.1517 97.1986 19.8483 97.2686 19.335C97.3386 18.7983 97.4203 18.18 97.5136 17.48C97.6069 16.78 97.7003 16.0917 97.7936 15.415C97.9103 14.715 98.0036 14.1667 98.0736 13.77C98.1436 13.4667 98.2253 13.07 98.3186 12.58C98.4119 12.0667 98.5753 11.6117 98.8086 11.215C99.0653 10.795 99.4269 10.585 99.8936 10.585C100.43 10.585 100.804 10.69 101.014 10.9C101.247 11.0867 101.364 11.39 101.364 11.81C101.364 11.9267 101.352 12.0433 101.329 12.16C101.329 12.2767 101.317 12.405 101.294 12.545C101.177 13.2917 101.025 14.225 100.839 15.345C100.675 16.4417 100.524 17.5967 100.384 18.81C100.267 20 100.232 21.1317 100.279 22.205C100.302 22.4617 100.325 22.765 100.349 23.115C100.395 23.4417 100.419 23.7683 100.419 24.095C100.419 24.7017 100.29 25.25 100.034 25.74C99.7769 26.23 99.2053 26.475 98.3186 26.475ZM114.724 27.525C112.95 27.525 111.34 27.2683 109.894 26.755C108.47 26.2183 107.339 25.39 106.499 24.27C105.659 23.1267 105.239 21.6567 105.239 19.86C105.239 18.4367 105.472 17.0483 105.939 15.695C106.429 14.3417 107.117 13.1167 108.004 12.02C108.89 10.9233 109.952 10.06 111.189 9.43C112.425 8.77667 113.802 8.45 115.319 8.45C116.369 8.45 117.314 8.64833 118.154 9.045C119.017 9.44167 119.705 10.0017 120.219 10.725C120.732 11.4483 120.989 12.3117 120.989 13.315C120.989 14.3883 120.755 15.415 120.289 16.395C119.845 17.3517 119.239 18.2033 118.469 18.95C117.699 19.6967 116.824 20.2917 115.844 20.735C114.887 21.155 113.884 21.365 112.834 21.365C111.924 21.365 111.072 21.295 110.279 21.155C109.485 20.9917 108.75 20.7467 108.074 20.42C108.074 21.3067 108.284 22.065 108.704 22.695C109.124 23.3017 109.66 23.8033 110.314 24.2C110.967 24.5733 111.644 24.8533 112.344 25.04C113.067 25.2033 113.732 25.285 114.339 25.285C114.829 25.285 115.319 25.2617 115.809 25.215C116.299 25.145 116.835 25.11 117.419 25.11C118.282 25.11 118.714 25.4833 118.714 26.23C118.714 26.8133 118.305 27.1867 117.489 27.35C117.045 27.4433 116.59 27.49 116.124 27.49C115.657 27.5133 115.19 27.525 114.724 27.525ZM112.834 18.565C113.65 18.565 114.502 18.4017 115.389 18.075C116.275 17.7483 117.022 17.235 117.629 16.535C118.259 15.835 118.574 14.9483 118.574 13.875C118.574 12.9183 118.27 12.1483 117.664 11.565C117.08 10.9583 116.299 10.655 115.319 10.655C114.432 10.655 113.557 10.865 112.694 11.285C111.854 11.6817 111.084 12.23 110.384 12.93C109.684 13.6067 109.124 14.3767 108.704 15.24C108.284 16.1033 108.074 16.99 108.074 17.9C108.61 18.18 109.287 18.3667 110.104 18.46C110.92 18.53 111.83 18.565 112.834 18.565ZM126.789 26.3C126.439 26.3 126.182 26.2183 126.019 26.055C125.855 25.8917 125.739 25.6583 125.669 25.355C125.552 24.9583 125.494 24.5383 125.494 24.095V22.73C125.494 21.9833 125.517 21.3417 125.564 20.805C125.61 20.245 125.634 19.6383 125.634 18.985C125.634 18.7517 125.622 18.5067 125.599 18.25C125.599 17.97 125.587 17.6783 125.564 17.375C125.47 16.2317 125.342 15.03 125.179 13.77C125.015 12.51 124.934 11.3667 124.934 10.34V8.975C125.074 8.64833 125.202 8.45 125.319 8.38C125.459 8.31 125.645 8.275 125.879 8.275C126.439 8.275 126.835 8.49667 127.069 8.94C127.302 9.36 127.454 9.86167 127.524 10.445C127.617 11.005 127.675 11.495 127.699 11.915C127.722 12.0783 127.757 12.4283 127.804 12.965C127.874 13.5017 127.944 14.1083 128.014 14.785C128.084 15.4383 128.142 16.0683 128.189 16.675C128.259 17.2817 128.294 17.7483 128.294 18.075C128.667 17.305 129.11 16.5117 129.624 15.695C130.137 14.855 130.65 14.0733 131.164 13.35C131.7 12.6267 132.179 12.0433 132.599 11.6C133.205 10.9233 133.917 10.3983 134.734 10.025C135.574 9.62833 136.402 9.43 137.219 9.43C138.175 9.43 139.015 9.69833 139.739 10.235C140.462 10.7717 141.08 11.4717 141.594 12.335C142.13 13.1983 142.574 14.1317 142.924 15.135C143.274 16.115 143.554 17.0717 143.764 18.005C144.067 19.2417 144.289 20.3267 144.429 21.26C144.592 22.1933 144.732 23.255 144.849 24.445C144.849 24.9583 144.744 25.3667 144.534 25.67C144.324 25.9733 144.067 26.125 143.764 26.125C143.32 26.125 143.005 26.0317 142.819 25.845C142.632 25.635 142.504 25.3083 142.434 24.865C142.27 23.9783 142.107 22.975 141.944 21.855C141.804 20.735 141.605 19.6033 141.349 18.46C141.092 17.2933 140.719 16.2317 140.229 15.275C140.042 14.8317 139.809 14.3767 139.529 13.91C139.249 13.4433 138.91 13.0467 138.514 12.72C138.117 12.3933 137.627 12.23 137.044 12.23C136.274 12.23 135.492 12.5683 134.699 13.245C133.929 13.9217 133.194 14.7967 132.494 15.87C131.794 16.9433 131.152 18.0983 130.569 19.335C129.985 20.5483 129.495 21.7033 129.099 22.8C128.982 23.1733 128.83 23.5933 128.644 24.06C128.48 24.5033 128.305 24.9233 128.119 25.32C127.955 25.6467 127.769 25.8917 127.559 26.055C127.372 26.2183 127.115 26.3 126.789 26.3ZM155.903 26.475C154.269 26.475 152.893 26.0783 151.773 25.285C150.653 24.4917 149.801 23.43 149.218 22.1C148.634 20.7467 148.343 19.2767 148.343 17.69C148.343 15.9167 148.739 14.295 149.533 12.825C150.326 11.355 151.423 10.1767 152.823 9.29C154.223 8.38 155.809 7.925 157.583 7.925C158.073 7.925 158.644 7.96 159.298 8.03C159.951 8.1 160.581 8.24 161.188 8.45C161.794 8.66 162.296 8.96333 162.693 9.36C163.089 9.75667 163.288 10.2817 163.288 10.935C163.288 11.1917 163.183 11.4133 162.973 11.6C162.763 11.7867 162.424 11.88 161.958 11.88C161.584 11.88 161.234 11.7867 160.908 11.6C160.604 11.4133 160.313 11.2267 160.033 11.04C159.613 10.76 159.169 10.515 158.703 10.305C158.259 10.0717 157.769 9.955 157.233 9.955C156.206 9.955 155.308 10.2233 154.538 10.76C153.768 11.2733 153.126 11.95 152.613 12.79C152.099 13.6067 151.714 14.4817 151.458 15.415C151.201 16.325 151.073 17.165 151.073 17.935C151.073 19.4517 151.364 20.665 151.948 21.575C152.554 22.4617 153.348 23.1033 154.328 23.5C155.331 23.8733 156.416 24.06 157.583 24.06C158.703 24.06 159.718 23.8617 160.628 23.465C161.561 23.0683 162.506 22.6483 163.463 22.205C163.789 22.0417 164.058 21.96 164.268 21.96C164.548 21.96 164.734 22.0767 164.828 22.31C164.921 22.52 164.968 22.7883 164.968 23.115C164.968 23.7217 164.723 24.235 164.233 24.655C163.743 25.0517 163.124 25.3783 162.378 25.635C161.631 25.8683 160.826 26.055 159.963 26.195C159.123 26.3117 158.341 26.3933 157.618 26.44C156.894 26.4633 156.323 26.475 155.903 26.475ZM177.956 27.525C176.183 27.525 174.573 27.2683 173.126 26.755C171.703 26.2183 170.571 25.39 169.731 24.27C168.891 23.1267 168.471 21.6567 168.471 19.86C168.471 18.4367 168.705 17.0483 169.171 15.695C169.661 14.3417 170.35 13.1167 171.236 12.02C172.123 10.9233 173.185 10.06 174.421 9.43C175.658 8.77667 177.035 8.45 178.551 8.45C179.601 8.45 180.546 8.64833 181.386 9.045C182.25 9.44167 182.938 10.0017 183.451 10.725C183.965 11.4483 184.221 12.3117 184.221 13.315C184.221 14.3883 183.988 15.415 183.521 16.395C183.078 17.3517 182.471 18.2033 181.701 18.95C180.931 19.6967 180.056 20.2917 179.076 20.735C178.12 21.155 177.116 21.365 176.066 21.365C175.156 21.365 174.305 21.295 173.511 21.155C172.718 20.9917 171.983 20.7467 171.306 20.42C171.306 21.3067 171.516 22.065 171.936 22.695C172.356 23.3017 172.893 23.8033 173.546 24.2C174.2 24.5733 174.876 24.8533 175.576 25.04C176.3 25.2033 176.965 25.285 177.571 25.285C178.061 25.285 178.551 25.2617 179.041 25.215C179.531 25.145 180.068 25.11 180.651 25.11C181.515 25.11 181.946 25.4833 181.946 26.23C181.946 26.8133 181.538 27.1867 180.721 27.35C180.278 27.4433 179.823 27.49 179.356 27.49C178.89 27.5133 178.423 27.525 177.956 27.525ZM176.066 18.565C176.883 18.565 177.735 18.4017 178.621 18.075C179.508 17.7483 180.255 17.235 180.861 16.535C181.491 15.835 181.806 14.9483 181.806 13.875C181.806 12.9183 181.503 12.1483 180.896 11.565C180.313 10.9583 179.531 10.655 178.551 10.655C177.665 10.655 176.79 10.865 175.926 11.285C175.086 11.6817 174.316 12.23 173.616 12.93C172.916 13.6067 172.356 14.3767 171.936 15.24C171.516 16.1033 171.306 16.99 171.306 17.9C171.843 18.18 172.52 18.3667 173.336 18.46C174.153 18.53 175.063 18.565 176.066 18.565Z" fill="#D996D5"/>
</svg>
