<svg width="209" height="26" viewBox="0 0 209 26" fill="none" xmlns="http://www.w3.org/2000/svg">
<path d="M8.76805 24.65C7.04138 24.65 5.68805 24.3467 4.70805 23.74C3.72805 23.1333 3.03971 22.235 2.64305 21.045C2.26971 19.8317 2.08305 18.3383 2.08305 16.565C2.08305 15.7483 2.11805 14.8733 2.18805 13.94C1.27805 13.59 0.823047 13.1583 0.823047 12.645C0.823047 12.2017 0.963047 11.8867 1.24305 11.7C1.54638 11.49 1.88471 11.3267 2.25805 11.21C2.65471 11.0933 2.98138 10.9533 3.23805 10.79C3.28471 10.51 3.35471 10.09 3.44805 9.53C3.54138 8.94667 3.63471 8.34 3.72805 7.71C3.84471 7.05667 3.94971 6.485 4.04305 5.995C4.13638 5.48167 4.19471 5.16667 4.21805 5.05C3.96138 4.91 3.61138 4.82833 3.16805 4.805C2.74805 4.75833 2.37471 4.665 2.04805 4.525C1.72138 4.385 1.55805 4.09333 1.55805 3.65C1.55805 3.18333 1.68638 2.845 1.94305 2.635C2.19971 2.40166 2.61971 2.23833 3.20305 2.145C4.69638 1.88833 6.13138 1.67833 7.50805 1.515C8.88471 1.35167 10.3197 1.27 11.813 1.27C12.1397 1.27 12.583 1.27 13.143 1.27C13.703 1.27 14.263 1.31667 14.823 1.41C15.4064 1.48 15.8964 1.63167 16.293 1.865C16.6897 2.09833 16.888 2.44833 16.888 2.915C16.888 3.17167 16.8064 3.39333 16.643 3.58C16.503 3.76667 16.3397 3.86 16.153 3.86H10.903C10.8097 3.86 10.553 3.87167 10.133 3.895C9.71305 3.895 9.25805 3.91833 8.76805 3.965C8.27805 4.01167 7.86971 4.105 7.54305 4.245C7.19305 4.385 6.91305 4.81667 6.70305 5.54C6.49305 6.26333 6.34138 7.12667 6.24805 8.13C6.15471 9.11 6.10805 10.0783 6.10805 11.035C6.41138 11.0117 6.86638 10.9883 7.47305 10.965C8.07971 10.9183 8.70971 10.8833 9.36305 10.86C10.0397 10.8367 10.5997 10.825 11.043 10.825H12.443C12.9797 10.825 13.3414 10.9417 13.528 11.175C13.738 11.4083 13.843 11.7233 13.843 12.12C13.843 12.9133 13.3997 13.345 12.513 13.415L6.59805 13.8C5.94471 13.8233 5.50138 13.94 5.26805 14.15C5.05805 14.3367 4.91805 14.6983 4.84805 15.235C4.80138 15.6783 4.76638 16.0167 4.74305 16.25C4.74305 16.4833 4.74305 16.6933 4.74305 16.88C4.76638 17.0433 4.77805 17.195 4.77805 17.335C4.77805 17.4517 4.77805 17.5567 4.77805 17.65C4.77805 18.1867 4.82471 18.7583 4.91805 19.365C5.01138 19.9483 5.22138 20.4733 5.54805 20.94C5.89805 21.4067 6.43471 21.7217 7.15805 21.885H8.94305C10.1097 21.885 11.3464 21.7917 12.653 21.605C13.983 21.4183 15.1497 21.2083 16.153 20.975C16.1997 20.9517 16.258 20.94 16.328 20.94C16.398 20.94 16.4447 20.94 16.468 20.94C16.7947 20.94 17.0047 21.0567 17.098 21.29C17.2147 21.5233 17.273 21.78 17.273 22.06C17.273 23.11 16.2114 23.845 14.088 24.265C13.3414 24.4283 12.4897 24.5333 11.533 24.58C10.5764 24.6267 9.65471 24.65 8.76805 24.65ZM38.5607 23.6C37.744 23.6 36.9507 23.3083 36.1807 22.725C35.434 22.1417 34.7457 21.4767 34.1157 20.73C33.299 19.7033 32.6224 18.7817 32.0857 17.965C31.5724 17.1483 31.1524 16.5067 30.8257 16.04C30.499 15.55 30.2074 15.305 29.9507 15.305C29.7174 15.305 29.484 15.4333 29.2507 15.69C29.0407 15.9233 28.8657 16.0983 28.7257 16.215C28.5857 16.355 28.3407 16.6583 27.9907 17.125C27.8274 17.335 27.6407 17.5683 27.4307 17.825C27.2207 18.0817 27.0107 18.35 26.8007 18.63C26.3574 19.1667 25.9607 19.6683 25.6107 20.135C25.2607 20.5783 25.0507 20.8233 24.9807 20.87C24.6307 21.3133 24.164 21.7217 23.5807 22.095C22.9974 22.4683 22.4724 22.655 22.0057 22.655C21.749 22.655 21.5507 22.5967 21.4107 22.48C21.294 22.34 21.2357 22.0483 21.2357 21.605C21.2357 21.1617 21.329 20.7417 21.5157 20.345C21.7257 19.9483 22.0174 19.5283 22.3907 19.085C22.5774 18.875 22.8457 18.5717 23.1957 18.175C23.569 17.7783 23.9657 17.3583 24.3857 16.915C24.8057 16.4483 25.2024 16.0283 25.5757 15.655C25.949 15.2583 26.229 14.955 26.4157 14.745C26.6024 14.4883 26.8474 14.15 27.1507 13.73C27.454 13.31 27.6057 12.9133 27.6057 12.54C27.6057 12.3767 27.5707 12.225 27.5007 12.085C26.684 10.9183 25.8324 9.635 24.9457 8.235C24.0824 6.81167 23.184 5.37667 22.2507 3.93C22.0407 3.60333 21.9357 3.25333 21.9357 2.88C21.9357 2.46 22.0524 2.08667 22.2857 1.76C22.519 1.43333 22.7874 1.27 23.0907 1.27C23.394 1.27 23.6857 1.45667 23.9657 1.83C25.319 3.83667 26.369 5.41167 27.1157 6.555C27.8857 7.69833 28.4457 8.53833 28.7957 9.075C29.169 9.58833 29.414 9.915 29.5307 10.055C29.6707 10.195 29.7874 10.265 29.8807 10.265C30.674 9.705 31.4207 9.11 32.1207 8.48C32.8207 7.85 33.5674 7.13833 34.3607 6.345C35.1774 5.55167 36.134 4.64167 37.2307 3.615C37.6274 3.265 38.0824 2.88 38.5957 2.46C39.1324 2.01666 39.634 1.795 40.1007 1.795C40.2874 1.795 40.4624 1.84167 40.6257 1.935C41.0457 2.19167 41.2557 2.46 41.2557 2.74C41.2557 3.02 41.104 3.31167 40.8007 3.615C40.5207 3.895 40.194 4.19833 39.8207 4.525C38.4907 5.76167 37.2657 6.95167 36.1457 8.095C35.0257 9.215 34.104 10.195 33.3807 11.035C32.6574 11.875 32.214 12.505 32.0507 12.925C32.074 13.2983 32.2607 13.7883 32.6107 14.395C32.984 15.0017 33.3924 15.5967 33.8357 16.18C34.279 16.74 34.629 17.1717 34.8857 17.475C35.7724 18.5017 36.694 19.4233 37.6507 20.24C38.6074 21.0333 39.354 21.6283 39.8907 22.025C40.1474 22.2117 40.2757 22.3983 40.2757 22.585C40.2757 22.8883 40.054 23.1333 39.6107 23.32C39.1674 23.5067 38.8174 23.6 38.5607 23.6ZM49.1255 25.35C48.5655 25.35 48.1338 25.14 47.8305 24.72C47.5505 24.3 47.3522 23.7867 47.2355 23.18C47.1422 22.5733 47.0838 21.9783 47.0605 21.395C47.0605 20.8117 47.0605 20.3683 47.0605 20.065V16.18C47.0605 14.43 47.1538 12.6217 47.3405 10.755C47.5272 8.88833 47.6205 6.905 47.6205 4.805C46.4072 4.805 45.6022 4.7 45.2055 4.49C44.8322 4.28 44.6455 3.825 44.6455 3.125C44.6455 2.72833 44.8555 2.37833 45.2755 2.075C45.6955 1.77167 46.2788 1.57333 47.0255 1.48C47.2355 1.41 47.6322 1.34 48.2155 1.27C48.8222 1.2 49.4988 1.14167 50.2455 1.095C50.9922 1.025 51.7038 0.978332 52.3805 0.954999C53.0805 0.908333 53.6288 0.885 54.0255 0.885C56.3355 0.885 58.2255 1.08333 59.6955 1.48C61.1655 1.85333 62.2505 2.495 62.9505 3.405C63.6738 4.315 64.0355 5.575 64.0355 7.185C64.0355 8.32833 63.7322 9.425 63.1255 10.475C62.5422 11.5017 61.7488 12.4233 60.7455 13.24C59.7422 14.0567 58.6105 14.7217 57.3505 15.235C56.0905 15.7483 54.8072 16.0633 53.5005 16.18C53.2672 16.2033 53.0222 16.2267 52.7655 16.25C52.5088 16.25 52.2288 16.25 51.9255 16.25C51.2255 16.25 50.5372 16.215 49.8605 16.145C49.8605 17.4283 49.8838 18.5367 49.9305 19.47C50.0005 20.38 50.0355 21.2433 50.0355 22.06V23.145C50.0355 23.5417 50.0005 23.9383 49.9305 24.335C49.8372 24.7317 49.7205 25 49.5805 25.14C49.4638 25.28 49.3122 25.35 49.1255 25.35ZM54.1305 13.24C54.6672 13.24 55.3438 13.065 56.1605 12.715C56.9772 12.3417 57.7938 11.8633 58.6105 11.28C59.4272 10.6733 60.1038 10.0083 60.6405 9.285C61.2005 8.56167 61.4805 7.85 61.4805 7.15C61.4805 6.19333 61.2355 5.49333 60.7455 5.05C60.2555 4.58333 59.6488 4.26833 58.9255 4.105C58.2255 3.94167 57.5138 3.80167 56.7905 3.685C56.4172 3.615 55.9972 3.56833 55.5305 3.545C55.0872 3.52167 54.6322 3.51 54.1655 3.51C53.0222 3.51 52.1005 3.56833 51.4005 3.685C51.2372 3.70833 51.0738 3.79 50.9105 3.93C50.7472 4.04667 50.6422 4.245 50.5955 4.525C50.4788 5.38833 50.3738 6.345 50.2805 7.395C50.1872 8.445 50.1055 9.48333 50.0355 10.51C49.9655 11.5133 49.9072 12.4233 49.8605 13.24H54.1305ZM74.9399 24.65C73.2133 24.65 71.8599 24.3467 70.8799 23.74C69.8999 23.1333 69.2116 22.235 68.8149 21.045C68.4416 19.8317 68.2549 18.3383 68.2549 16.565C68.2549 15.7483 68.2899 14.8733 68.3599 13.94C67.4499 13.59 66.9949 13.1583 66.9949 12.645C66.9949 12.2017 67.1349 11.8867 67.4149 11.7C67.7183 11.49 68.0566 11.3267 68.4299 11.21C68.8266 11.0933 69.1533 10.9533 69.4099 10.79C69.4566 10.51 69.5266 10.09 69.6199 9.53C69.7133 8.94667 69.8066 8.34 69.8999 7.71C70.0166 7.05667 70.1216 6.485 70.2149 5.995C70.3083 5.48167 70.3666 5.16667 70.3899 5.05C70.1333 4.91 69.7833 4.82833 69.3399 4.805C68.9199 4.75833 68.5466 4.665 68.2199 4.525C67.8933 4.385 67.7299 4.09333 67.7299 3.65C67.7299 3.18333 67.8583 2.845 68.1149 2.635C68.3716 2.40166 68.7916 2.23833 69.3749 2.145C70.8683 1.88833 72.3033 1.67833 73.6799 1.515C75.0566 1.35167 76.4916 1.27 77.9849 1.27C78.3116 1.27 78.7549 1.27 79.3149 1.27C79.8749 1.27 80.4349 1.31667 80.9949 1.41C81.5783 1.48 82.0683 1.63167 82.4649 1.865C82.8616 2.09833 83.0599 2.44833 83.0599 2.915C83.0599 3.17167 82.9783 3.39333 82.8149 3.58C82.6749 3.76667 82.5116 3.86 82.3249 3.86H77.0749C76.9816 3.86 76.7249 3.87167 76.3049 3.895C75.8849 3.895 75.4299 3.91833 74.9399 3.965C74.4499 4.01167 74.0416 4.105 73.7149 4.245C73.3649 4.385 73.0849 4.81667 72.8749 5.54C72.6649 6.26333 72.5133 7.12667 72.4199 8.13C72.3266 9.11 72.2799 10.0783 72.2799 11.035C72.5833 11.0117 73.0383 10.9883 73.6449 10.965C74.2516 10.9183 74.8816 10.8833 75.5349 10.86C76.2116 10.8367 76.7716 10.825 77.2149 10.825H78.6149C79.1516 10.825 79.5133 10.9417 79.6999 11.175C79.9099 11.4083 80.0149 11.7233 80.0149 12.12C80.0149 12.9133 79.5716 13.345 78.6849 13.415L72.7699 13.8C72.1166 13.8233 71.6733 13.94 71.4399 14.15C71.2299 14.3367 71.0899 14.6983 71.0199 15.235C70.9733 15.6783 70.9383 16.0167 70.9149 16.25C70.9149 16.4833 70.9149 16.6933 70.9149 16.88C70.9383 17.0433 70.9499 17.195 70.9499 17.335C70.9499 17.4517 70.9499 17.5567 70.9499 17.65C70.9499 18.1867 70.9966 18.7583 71.0899 19.365C71.1833 19.9483 71.3933 20.4733 71.7199 20.94C72.0699 21.4067 72.6066 21.7217 73.3299 21.885H75.1149C76.2816 21.885 77.5183 21.7917 78.8249 21.605C80.1549 21.4183 81.3216 21.2083 82.3249 20.975C82.3716 20.9517 82.4299 20.94 82.4999 20.94C82.5699 20.94 82.6166 20.94 82.6399 20.94C82.9666 20.94 83.1766 21.0567 83.2699 21.29C83.3866 21.5233 83.4449 21.78 83.4449 22.06C83.4449 23.11 82.3833 23.845 80.2599 24.265C79.5133 24.4283 78.6616 24.5333 77.7049 24.58C76.7483 24.6267 75.8266 24.65 74.9399 24.65ZM90.4526 25C90.0559 25 89.7876 24.9183 89.6476 24.755C89.5076 24.5683 89.3559 24.2767 89.1926 23.88C89.1459 23.7867 89.1226 23.7167 89.1226 23.67C89.0992 23.3433 89.0876 23.005 89.0876 22.655C89.0876 22.305 89.0876 21.9667 89.0876 21.64C89.0876 19.4933 89.2042 17.3583 89.4376 15.235C89.6709 13.1117 89.7876 10.9883 89.7876 8.865C89.7876 8.25833 89.7759 7.66333 89.7526 7.08C89.7526 6.47333 89.6942 5.87833 89.5776 5.295L89.5076 4.945L89.1576 4.84C88.6442 4.67667 88.2126 4.49 87.8626 4.28C87.5359 4.07 87.3726 3.755 87.3726 3.335C87.3726 3.07833 87.6292 2.78666 88.1426 2.46C88.6792 2.13333 89.4142 1.865 90.3476 1.655C91.2342 1.46833 92.1442 1.36333 93.0776 1.34C94.0109 1.29333 94.7342 1.27 95.2476 1.27C96.4842 1.27 97.7442 1.375 99.0276 1.585C100.311 1.795 101.513 2.145 102.633 2.635C103.753 3.10167 104.698 3.74333 105.468 4.56C106.261 5.35333 106.763 6.35667 106.973 7.57C107.043 7.87333 107.078 8.21167 107.078 8.585C107.078 9.79833 106.763 10.79 106.133 11.56C105.526 12.3067 104.721 12.9367 103.718 13.45C102.738 13.94 101.664 14.4067 100.498 14.85L99.5526 15.2L100.498 16.04C100.754 16.2733 101.023 16.5183 101.303 16.775C101.606 17.0083 101.886 17.265 102.143 17.545L103.718 19.26C104.184 19.7733 104.639 20.345 105.083 20.975C105.526 21.5817 105.748 22.1767 105.748 22.76C105.748 23.7633 105.246 24.265 104.243 24.265C103.916 24.265 103.718 24.23 103.648 24.16C103.648 24.16 103.636 24.16 103.613 24.16C103.613 24.1367 103.601 24.125 103.578 24.125C103.554 24.0783 103.496 24.0083 103.403 23.915C103.333 23.845 103.251 23.7633 103.158 23.67C103.064 23.5767 102.983 23.4717 102.913 23.355C102.376 22.3983 101.781 21.5583 101.128 20.835C100.474 20.0883 99.5992 19.2483 98.5026 18.315C98.1992 18.035 97.7909 17.7317 97.2776 17.405C96.7642 17.0783 96.2626 16.7283 95.7726 16.355C95.2592 15.9583 94.8626 15.585 94.5826 15.235C94.3026 14.885 94.1626 14.5817 94.1626 14.325C94.1626 14.1617 94.2559 14.0917 94.4426 14.115C94.6292 14.1383 94.9442 14.0567 95.3876 13.87C95.8309 13.6833 96.3326 13.52 96.8926 13.38C97.4526 13.2167 98.0242 13.0533 98.6076 12.89C99.1909 12.7033 99.7742 12.5167 100.358 12.33C100.964 12.12 101.513 11.8633 102.003 11.56C102.493 11.2333 103.006 10.8017 103.543 10.265C104.103 9.705 104.383 9.09833 104.383 8.445C104.383 7.72167 104.161 7.09167 103.718 6.555C103.298 6.01833 102.773 5.575 102.143 5.225C101.536 4.85167 100.953 4.595 100.393 4.455C99.7159 4.26833 98.9109 4.14 97.9776 4.07C97.0676 4 96.2392 3.965 95.4926 3.965H93.2876C93.0076 3.965 92.8676 4.11667 92.8676 4.42L91.9226 21.255C91.8992 21.4183 91.8876 21.6167 91.8876 21.85C91.9109 22.06 91.9109 22.2817 91.8876 22.515C91.8409 22.9583 91.7709 23.39 91.6776 23.81C91.4676 24.6033 91.0592 25 90.4526 25ZM111.491 24.825C111.071 24.825 110.791 24.7783 110.651 24.685C110.534 24.5683 110.476 24.3117 110.476 23.915C110.476 23.495 110.557 23.215 110.721 23.075C110.907 22.9117 111.106 22.7833 111.316 22.69C111.526 22.5967 111.724 22.5033 111.911 22.41C112.097 22.3167 112.272 22.1883 112.436 22.025C112.856 21.6517 113.066 21.15 113.066 20.52C113.066 20.1933 113.054 19.7733 113.031 19.26C113.031 18.7233 113.031 18.1517 113.031 17.545C113.031 16.5883 113.031 15.5967 113.031 14.57C113.054 13.52 113.089 12.54 113.136 11.63C113.182 10.72 113.241 10.0083 113.311 9.495C113.381 8.88833 113.439 8.28167 113.486 7.675C113.556 7.06833 113.626 6.45 113.696 5.82V4.665C113.462 4.40833 113.264 4.22167 113.101 4.105C112.937 3.965 112.786 3.84833 112.646 3.755L111.981 3.335C111.817 3.24167 111.689 3.14833 111.596 3.055C111.526 2.93833 111.491 2.76333 111.491 2.53C111.491 2.06333 111.747 1.83 112.261 1.83C112.657 1.83 113.019 1.865 113.346 1.935C113.696 1.98167 114.022 2.005 114.326 2.005H114.711C114.827 2.005 115.119 1.98167 115.586 1.935C116.052 1.865 116.542 1.795 117.056 1.725C117.522 1.655 117.966 1.59667 118.386 1.55C118.806 1.48 119.062 1.445 119.156 1.445H119.366C119.739 1.445 119.996 1.515 120.136 1.655C120.276 1.77166 120.346 2.005 120.346 2.355C120.346 2.72833 120.276 2.97333 120.136 3.09C120.019 3.20666 119.844 3.28833 119.611 3.335C119.424 3.38167 119.226 3.42833 119.016 3.475C118.806 3.52167 118.607 3.56833 118.421 3.615C118.187 3.685 117.942 3.79 117.686 3.93C117.452 4.07 117.219 4.30333 116.986 4.63C116.822 5.51667 116.659 6.40333 116.496 7.29C116.356 8.15333 116.227 9.02833 116.111 9.915C115.831 12.3183 115.691 14.7683 115.691 17.265C115.691 17.7083 115.691 18.0933 115.691 18.42C115.714 18.7467 115.737 19.0967 115.761 19.47C115.784 19.8433 115.831 20.3217 115.901 20.905C116.041 21.395 116.461 21.71 117.161 21.85C117.324 21.8733 117.499 21.9083 117.686 21.955C117.896 21.9783 118.106 22.0133 118.316 22.06C118.666 22.13 118.922 22.235 119.086 22.375C119.249 22.4917 119.331 22.7017 119.331 23.005C119.331 23.2383 119.237 23.4367 119.051 23.6C118.887 23.74 118.584 23.8683 118.141 23.985C117.931 24.0317 117.709 24.0667 117.476 24.09C117.242 24.1133 117.009 24.1367 116.776 24.16L115.446 24.265C115.376 24.2883 115.282 24.3 115.166 24.3C115.049 24.3 114.909 24.3233 114.746 24.37C114.606 24.3933 114.442 24.4283 114.256 24.475C114.092 24.4983 113.917 24.5333 113.731 24.58C113.427 24.6267 113.124 24.685 112.821 24.755C112.541 24.8017 112.354 24.825 112.261 24.825H111.491ZM131.747 24.65C130.02 24.65 128.667 24.3467 127.687 23.74C126.707 23.1333 126.018 22.235 125.622 21.045C125.248 19.8317 125.062 18.3383 125.062 16.565C125.062 15.7483 125.097 14.8733 125.167 13.94C124.257 13.59 123.802 13.1583 123.802 12.645C123.802 12.2017 123.942 11.8867 124.222 11.7C124.525 11.49 124.863 11.3267 125.237 11.21C125.633 11.0933 125.96 10.9533 126.217 10.79C126.263 10.51 126.333 10.09 126.427 9.53C126.52 8.94667 126.613 8.34 126.707 7.71C126.823 7.05667 126.928 6.485 127.022 5.995C127.115 5.48167 127.173 5.16667 127.197 5.05C126.94 4.91 126.59 4.82833 126.147 4.805C125.727 4.75833 125.353 4.665 125.027 4.525C124.7 4.385 124.537 4.09333 124.537 3.65C124.537 3.18333 124.665 2.845 124.922 2.635C125.178 2.40166 125.598 2.23833 126.182 2.145C127.675 1.88833 129.11 1.67833 130.487 1.515C131.863 1.35167 133.298 1.27 134.792 1.27C135.118 1.27 135.562 1.27 136.122 1.27C136.682 1.27 137.242 1.31667 137.802 1.41C138.385 1.48 138.875 1.63167 139.272 1.865C139.668 2.09833 139.867 2.44833 139.867 2.915C139.867 3.17167 139.785 3.39333 139.622 3.58C139.482 3.76667 139.318 3.86 139.132 3.86H133.882C133.788 3.86 133.532 3.87167 133.112 3.895C132.692 3.895 132.237 3.91833 131.747 3.965C131.257 4.01167 130.848 4.105 130.522 4.245C130.172 4.385 129.892 4.81667 129.682 5.54C129.472 6.26333 129.32 7.12667 129.227 8.13C129.133 9.11 129.087 10.0783 129.087 11.035C129.39 11.0117 129.845 10.9883 130.452 10.965C131.058 10.9183 131.688 10.8833 132.342 10.86C133.018 10.8367 133.578 10.825 134.022 10.825H135.422C135.958 10.825 136.32 10.9417 136.507 11.175C136.717 11.4083 136.822 11.7233 136.822 12.12C136.822 12.9133 136.378 13.345 135.492 13.415L129.577 13.8C128.923 13.8233 128.48 13.94 128.247 14.15C128.037 14.3367 127.897 14.6983 127.827 15.235C127.78 15.6783 127.745 16.0167 127.722 16.25C127.722 16.4833 127.722 16.6933 127.722 16.88C127.745 17.0433 127.757 17.195 127.757 17.335C127.757 17.4517 127.757 17.5567 127.757 17.65C127.757 18.1867 127.803 18.7583 127.897 19.365C127.99 19.9483 128.2 20.4733 128.527 20.94C128.877 21.4067 129.413 21.7217 130.137 21.885H131.922C133.088 21.885 134.325 21.7917 135.632 21.605C136.962 21.4183 138.128 21.2083 139.132 20.975C139.178 20.9517 139.237 20.94 139.307 20.94C139.377 20.94 139.423 20.94 139.447 20.94C139.773 20.94 139.983 21.0567 140.077 21.29C140.193 21.5233 140.252 21.78 140.252 22.06C140.252 23.11 139.19 23.845 137.067 24.265C136.32 24.4283 135.468 24.5333 134.512 24.58C133.555 24.6267 132.633 24.65 131.747 24.65ZM145.334 24.825C144.751 24.825 144.413 24.615 144.319 24.195C144.249 23.775 144.214 23.3083 144.214 22.795V22.235L144.284 21.745C144.308 21.605 144.343 21.4417 144.389 21.255C144.436 21.0683 144.471 20.8933 144.494 20.73C144.541 20.38 144.588 20.0533 144.634 19.75C144.704 19.4233 144.751 19.1783 144.774 19.015C144.821 18.665 144.879 18.105 144.949 17.335C145.043 16.565 145.124 15.7367 145.194 14.85C145.288 13.94 145.358 13.1117 145.404 12.365C145.474 11.6183 145.509 11.105 145.509 10.825C145.509 10.685 145.521 10.335 145.544 9.775C145.568 9.19167 145.591 8.56167 145.614 7.885C145.638 7.185 145.661 6.555 145.684 5.995C145.708 5.435 145.719 5.085 145.719 4.945C145.719 4.595 145.743 4.21 145.789 3.79C145.836 3.34667 145.964 2.96167 146.174 2.635C146.384 2.30833 146.723 2.145 147.189 2.145C147.516 2.145 147.854 2.355 148.204 2.775C148.578 3.17167 148.846 3.49833 149.009 3.755C149.103 3.91833 149.184 4.07 149.254 4.21C149.348 4.32667 149.429 4.44333 149.499 4.56C150.246 5.77333 151.051 7.045 151.914 8.375C152.801 9.705 153.653 11.0467 154.469 12.4C154.866 13.0533 155.368 13.8233 155.974 14.71C156.604 15.5733 157.234 16.4367 157.864 17.3C158.518 18.14 159.089 18.8633 159.579 19.47C159.999 20.0067 160.349 20.275 160.629 20.275C160.886 20.275 161.084 19.96 161.224 19.33C161.551 17.65 161.819 15.76 162.029 13.66C162.239 11.5367 162.344 9.48333 162.344 7.5C162.344 6.63667 162.321 5.82 162.274 5.05C162.228 4.25667 162.158 3.53333 162.064 2.88C162.018 2.48333 162.123 2.18 162.379 1.97C162.659 1.73667 162.986 1.62 163.359 1.62C163.803 1.62 164.106 1.67833 164.269 1.795C164.456 1.91166 164.584 2.11 164.654 2.39C164.794 3.02 164.888 3.79 164.934 4.7C164.981 5.61 165.004 6.47333 165.004 7.29C165.004 10.4867 164.899 13.2983 164.689 15.725C164.479 18.1283 164.071 20.0067 163.464 21.36C162.858 22.69 161.959 23.355 160.769 23.355C160.116 23.355 159.474 23.1333 158.844 22.69C158.214 22.2233 157.619 21.6633 157.059 21.01C156.523 20.3567 156.044 19.715 155.624 19.085C154.318 17.125 153.244 15.5033 152.404 14.22C151.588 12.9133 150.923 11.875 150.409 11.105C149.919 10.335 149.546 9.76333 149.289 9.39C149.033 8.99333 148.834 8.73667 148.694 8.62C148.578 8.50333 148.449 8.445 148.309 8.445C148.309 8.81833 148.286 9.40167 148.239 10.195C148.216 10.965 148.169 11.8633 148.099 12.89C148.029 13.9167 147.948 14.9667 147.854 16.04C147.761 17.1133 147.656 18.14 147.539 19.12C147.423 20.0767 147.306 20.8817 147.189 21.535C147.119 21.885 147.026 22.3283 146.909 22.865C146.793 23.3783 146.606 23.8333 146.349 24.23C146.116 24.6267 145.778 24.825 145.334 24.825ZM178.904 25.875C176.944 25.875 175.194 25.4433 173.654 24.58C172.114 23.6933 170.9 22.48 170.014 20.94C169.127 19.3767 168.684 17.6033 168.684 15.62C168.684 14.36 168.87 13.0533 169.244 11.7C169.64 10.3467 170.189 9.02833 170.889 7.745C171.612 6.46167 172.464 5.30667 173.444 4.28C174.447 3.25333 175.555 2.43667 176.769 1.83C177.982 1.22333 179.265 0.919999 180.619 0.919999C181.669 0.919999 182.684 1.13 183.664 1.55C184.667 1.94667 185.484 2.53 186.114 3.3C186.767 4.07 187.094 4.99167 187.094 6.065C187.094 6.57833 187 6.91667 186.814 7.08C186.627 7.24333 186.417 7.325 186.184 7.325C185.81 7.325 185.507 7.185 185.274 6.905C185.04 6.60167 184.819 6.205 184.609 5.715C184.422 5.34167 184.189 4.98 183.909 4.63C183.629 4.25667 183.255 3.94167 182.789 3.685C182.322 3.42833 181.715 3.3 180.969 3.3C179.475 3.3 178.134 3.66167 176.944 4.385C175.777 5.10833 174.785 6.05333 173.969 7.22C173.152 8.36333 172.534 9.6 172.114 10.93C171.694 12.2367 171.484 13.485 171.484 14.675C171.484 15.585 171.624 16.5417 171.904 17.545C172.207 18.5483 172.639 19.4933 173.199 20.38C173.782 21.2433 174.494 21.955 175.334 22.515C176.197 23.0517 177.2 23.32 178.344 23.32C179.674 23.32 180.805 23.1567 181.739 22.83C182.672 22.5033 183.489 22.0833 184.189 21.57C184.912 21.0567 185.577 20.52 186.184 19.96C186.65 19.5167 187.152 19.295 187.689 19.295C188.039 19.295 188.33 19.4 188.564 19.61C188.82 19.82 188.949 20.135 188.949 20.555C188.949 20.835 188.762 21.1967 188.389 21.64C188.225 21.85 188.027 22.0483 187.794 22.235C187.584 22.3983 187.385 22.5733 187.199 22.76C186.009 23.7633 184.725 24.5333 183.349 25.07C181.972 25.6067 180.49 25.875 178.904 25.875ZM200.174 24.65C198.448 24.65 197.094 24.3467 196.114 23.74C195.134 23.1333 194.446 22.235 194.049 21.045C193.676 19.8317 193.489 18.3383 193.489 16.565C193.489 15.7483 193.524 14.8733 193.594 13.94C192.684 13.59 192.229 13.1583 192.229 12.645C192.229 12.2017 192.369 11.8867 192.649 11.7C192.953 11.49 193.291 11.3267 193.664 11.21C194.061 11.0933 194.388 10.9533 194.644 10.79C194.691 10.51 194.761 10.09 194.854 9.53C194.948 8.94667 195.041 8.34 195.134 7.71C195.251 7.05667 195.356 6.485 195.449 5.995C195.543 5.48167 195.601 5.16667 195.624 5.05C195.368 4.91 195.018 4.82833 194.574 4.805C194.154 4.75833 193.781 4.665 193.454 4.525C193.128 4.385 192.964 4.09333 192.964 3.65C192.964 3.18333 193.093 2.845 193.349 2.635C193.606 2.40166 194.026 2.23833 194.609 2.145C196.103 1.88833 197.538 1.67833 198.914 1.515C200.291 1.35167 201.726 1.27 203.219 1.27C203.546 1.27 203.989 1.27 204.549 1.27C205.109 1.27 205.669 1.31667 206.229 1.41C206.813 1.48 207.303 1.63167 207.699 1.865C208.096 2.09833 208.294 2.44833 208.294 2.915C208.294 3.17167 208.213 3.39333 208.049 3.58C207.909 3.76667 207.746 3.86 207.559 3.86H202.309C202.216 3.86 201.959 3.87167 201.539 3.895C201.119 3.895 200.664 3.91833 200.174 3.965C199.684 4.01167 199.276 4.105 198.949 4.245C198.599 4.385 198.319 4.81667 198.109 5.54C197.899 6.26333 197.748 7.12667 197.654 8.13C197.561 9.11 197.514 10.0783 197.514 11.035C197.818 11.0117 198.273 10.9883 198.879 10.965C199.486 10.9183 200.116 10.8833 200.769 10.86C201.446 10.8367 202.006 10.825 202.449 10.825H203.849C204.386 10.825 204.748 10.9417 204.934 11.175C205.144 11.4083 205.249 11.7233 205.249 12.12C205.249 12.9133 204.806 13.345 203.919 13.415L198.004 13.8C197.351 13.8233 196.908 13.94 196.674 14.15C196.464 14.3367 196.324 14.6983 196.254 15.235C196.208 15.6783 196.173 16.0167 196.149 16.25C196.149 16.4833 196.149 16.6933 196.149 16.88C196.173 17.0433 196.184 17.195 196.184 17.335C196.184 17.4517 196.184 17.5567 196.184 17.65C196.184 18.1867 196.231 18.7583 196.324 19.365C196.418 19.9483 196.628 20.4733 196.954 20.94C197.304 21.4067 197.841 21.7217 198.564 21.885H200.349C201.516 21.885 202.753 21.7917 204.059 21.605C205.389 21.4183 206.556 21.2083 207.559 20.975C207.606 20.9517 207.664 20.94 207.734 20.94C207.804 20.94 207.851 20.94 207.874 20.94C208.201 20.94 208.411 21.0567 208.504 21.29C208.621 21.5233 208.679 21.78 208.679 22.06C208.679 23.11 207.618 23.845 205.494 24.265C204.748 24.4283 203.896 24.5333 202.939 24.58C201.983 24.6267 201.061 24.65 200.174 24.65Z" fill="#D996D5"/>
</svg>
