<svg width="145" height="40" viewBox="0 0 164 40" fill="none" xmlns="http://www.w3.org/2000/svg">
<g style="mix-blend-mode:multiply" opacity="0.55">
<path d="M17 40V0H16.0467C15.025 0 14.005 0.181667 13.1267 0.703333C10.21 2.43667 3.66667 7.695 3.66667 20C3.66667 23.6483 2.10833 28.445 0.498333 32.4267C-0.918333 35.9283 1.57 40 5.34833 40H17ZM146.86 0V40H147.813C148.835 40 149.855 39.8183 150.733 39.2967C153.65 37.5633 160.193 32.305 160.193 20C160.193 16.3517 161.752 11.555 163.362 7.57333C164.778 4.07167 162.29 0 158.512 0H146.86ZM17 40H146.86V0H17V40Z" fill="#FF99F8"/>
</g>
</svg>
