<svg width="349" height="26" viewBox="0 0 349 26" fill="none" xmlns="http://www.w3.org/2000/svg">
<path d="M1.3517 24.125C0.908366 24.125 0.593366 24.055 0.406699 23.915C0.243366 23.7517 0.126699 23.495 0.0566994 23.145V21.57C0.0566994 19.6333 0.138366 17.6967 0.301699 15.76C0.465033 13.8 0.616699 11.84 0.756699 9.88C0.920033 7.89667 1.0017 5.925 1.0017 3.965C1.0017 3.42833 1.1417 2.985 1.4217 2.635C1.7017 2.285 2.06337 2.11 2.5067 2.11C2.9967 2.11 3.3117 2.25 3.4517 2.53C3.61503 2.81 3.68503 3.14833 3.6617 3.545C3.6617 3.94167 3.6617 4.32667 3.6617 4.7C3.6617 7.29 3.53337 9.915 3.2767 12.575C3.02003 15.2117 2.8917 18.0117 2.8917 20.975C3.56837 20.8817 4.40837 20.7767 5.4117 20.66C6.41503 20.5433 7.4067 20.4267 8.3867 20.31C9.39003 20.1933 10.195 20.1117 10.8017 20.065H11.8867C12.1434 20.065 12.47 20.065 12.8667 20.065C13.2634 20.065 13.66 20.1 14.0567 20.17C14.4767 20.2167 14.815 20.3333 15.0717 20.52C15.3517 20.7067 15.4917 20.9867 15.4917 21.36C15.4917 21.9433 15.305 22.3167 14.9317 22.48C14.5817 22.6433 14.1734 22.725 13.7067 22.725C13.52 22.725 13.3334 22.725 13.1467 22.725C12.96 22.7017 12.7734 22.69 12.5867 22.69C11.1867 22.69 9.51837 22.8067 7.5817 23.04C5.64503 23.25 3.74337 23.6117 1.8767 24.125H1.3517ZM19.1454 24.825C18.7254 24.825 18.4454 24.7783 18.3054 24.685C18.1887 24.5683 18.1304 24.3117 18.1304 23.915C18.1304 23.495 18.212 23.215 18.3754 23.075C18.562 22.9117 18.7604 22.7833 18.9704 22.69C19.1804 22.5967 19.3787 22.5033 19.5654 22.41C19.752 22.3167 19.927 22.1883 20.0904 22.025C20.5104 21.6517 20.7204 21.15 20.7204 20.52C20.7204 20.1933 20.7087 19.7733 20.6854 19.26C20.6854 18.7233 20.6854 18.1517 20.6854 17.545C20.6854 16.5883 20.6854 15.5967 20.6854 14.57C20.7087 13.52 20.7437 12.54 20.7904 11.63C20.837 10.72 20.8954 10.0083 20.9654 9.495C21.0354 8.88833 21.0937 8.28167 21.1404 7.675C21.2104 7.06833 21.2804 6.45 21.3504 5.82V4.665C21.117 4.40833 20.9187 4.22167 20.7554 4.105C20.592 3.965 20.4404 3.84833 20.3004 3.755L19.6354 3.335C19.472 3.24167 19.3437 3.14833 19.2504 3.055C19.1804 2.93833 19.1454 2.76333 19.1454 2.53C19.1454 2.06333 19.402 1.83 19.9154 1.83C20.312 1.83 20.6737 1.865 21.0004 1.935C21.3504 1.98167 21.677 2.005 21.9804 2.005H22.3654C22.482 2.005 22.7737 1.98167 23.2404 1.935C23.707 1.865 24.197 1.795 24.7104 1.725C25.177 1.655 25.6204 1.59667 26.0404 1.55C26.4604 1.48 26.717 1.445 26.8104 1.445H27.0204C27.3937 1.445 27.6504 1.515 27.7904 1.655C27.9304 1.77166 28.0004 2.005 28.0004 2.355C28.0004 2.72833 27.9304 2.97333 27.7904 3.09C27.6737 3.20666 27.4987 3.28833 27.2654 3.335C27.0787 3.38167 26.8804 3.42833 26.6704 3.475C26.4604 3.52167 26.262 3.56833 26.0754 3.615C25.842 3.685 25.597 3.79 25.3404 3.93C25.107 4.07 24.8737 4.30333 24.6404 4.63C24.477 5.51667 24.3137 6.40333 24.1504 7.29C24.0104 8.15333 23.882 9.02833 23.7654 9.915C23.4854 12.3183 23.3454 14.7683 23.3454 17.265C23.3454 17.7083 23.3454 18.0933 23.3454 18.42C23.3687 18.7467 23.392 19.0967 23.4154 19.47C23.4387 19.8433 23.4854 20.3217 23.5554 20.905C23.6954 21.395 24.1154 21.71 24.8154 21.85C24.9787 21.8733 25.1537 21.9083 25.3404 21.955C25.5504 21.9783 25.7604 22.0133 25.9704 22.06C26.3204 22.13 26.577 22.235 26.7404 22.375C26.9037 22.4917 26.9854 22.7017 26.9854 23.005C26.9854 23.2383 26.892 23.4367 26.7054 23.6C26.542 23.74 26.2387 23.8683 25.7954 23.985C25.5854 24.0317 25.3637 24.0667 25.1304 24.09C24.897 24.1133 24.6637 24.1367 24.4304 24.16L23.1004 24.265C23.0304 24.2883 22.937 24.3 22.8204 24.3C22.7037 24.3 22.5637 24.3233 22.4004 24.37C22.2604 24.3933 22.097 24.4283 21.9104 24.475C21.747 24.4983 21.572 24.5333 21.3854 24.58C21.082 24.6267 20.7787 24.685 20.4754 24.755C20.1954 24.8017 20.0087 24.825 19.9154 24.825H19.1454ZM34.5363 24.23C34.093 24.23 33.8013 23.88 33.6613 23.18C33.498 23.04 33.3463 22.6433 33.2063 21.99C33.0663 21.3367 32.9497 20.5317 32.8563 19.575C32.7863 18.6183 32.7513 17.6267 32.7513 16.6C32.7513 16.25 32.7513 15.9117 32.7513 15.585C32.7747 15.235 32.798 14.8967 32.8213 14.57C31.9113 14.22 31.4563 13.7883 31.4563 13.275C31.4563 12.8317 31.538 12.5167 31.7013 12.33C31.888 12.12 32.1097 11.9567 32.3663 11.84C32.623 11.7233 32.8797 11.5833 33.1363 11.42C33.183 11.14 33.253 10.6733 33.3463 10.02C33.463 9.34333 33.5797 8.60833 33.6963 7.815C33.8363 6.99833 33.9763 6.24 34.1163 5.54C34.2563 4.81667 34.3963 4.26833 34.5363 3.895C34.6297 3.45167 34.898 3.00833 35.3413 2.565C35.7847 2.12167 36.4963 1.74833 37.4763 1.445C38.4563 1.11833 39.798 0.954999 41.5013 0.954999H43.0413C43.8347 0.954999 44.593 0.989999 45.3163 1.06C46.063 1.13 46.6813 1.28167 47.1713 1.515C47.6613 1.725 47.9063 2.08666 47.9063 2.6C47.9063 2.85667 47.8247 3.07833 47.6613 3.265C47.5213 3.45167 47.358 3.545 47.1713 3.545H41.9213C41.8513 3.545 41.618 3.56833 41.2213 3.615C40.848 3.63833 40.4047 3.685 39.8913 3.755C39.4013 3.825 38.923 3.91833 38.4563 4.035C38.013 4.15167 37.6747 4.30333 37.4413 4.49C37.138 4.72333 36.8697 5.23667 36.6363 6.03C36.4263 6.8 36.263 7.69833 36.1463 8.725C36.053 9.72833 36.0063 10.7083 36.0063 11.665C36.2163 11.6417 36.578 11.6183 37.0913 11.595C37.628 11.5717 38.2113 11.5483 38.8413 11.525C39.4713 11.5017 40.0663 11.49 40.6263 11.49C41.2097 11.4667 41.6647 11.455 41.9913 11.455H43.3913C43.928 11.455 44.2897 11.5717 44.4763 11.805C44.6863 12.0383 44.7913 12.3533 44.7913 12.75C44.7913 13.5433 44.348 13.975 43.4613 14.045L37.2313 14.43C36.578 14.4533 36.1347 14.5467 35.9013 14.71C35.6913 14.85 35.5513 15.025 35.4813 15.235C35.4813 16.075 35.5513 17.0783 35.6913 18.245C35.8313 19.4117 35.983 20.7767 36.1463 22.34C35.983 22.9233 35.7497 23.39 35.4463 23.74C35.143 24.0667 34.8397 24.23 34.5363 24.23ZM58.6445 24.65C56.9178 24.65 55.5645 24.3467 54.5845 23.74C53.6045 23.1333 52.9162 22.235 52.5195 21.045C52.1462 19.8317 51.9595 18.3383 51.9595 16.565C51.9595 15.7483 51.9945 14.8733 52.0645 13.94C51.1545 13.59 50.6995 13.1583 50.6995 12.645C50.6995 12.2017 50.8395 11.8867 51.1195 11.7C51.4228 11.49 51.7612 11.3267 52.1345 11.21C52.5312 11.0933 52.8578 10.9533 53.1145 10.79C53.1612 10.51 53.2312 10.09 53.3245 9.53C53.4178 8.94667 53.5112 8.34 53.6045 7.71C53.7212 7.05667 53.8262 6.485 53.9195 5.995C54.0128 5.48167 54.0712 5.16667 54.0945 5.05C53.8378 4.91 53.4878 4.82833 53.0445 4.805C52.6245 4.75833 52.2512 4.665 51.9245 4.525C51.5978 4.385 51.4345 4.09333 51.4345 3.65C51.4345 3.18333 51.5628 2.845 51.8195 2.635C52.0762 2.40166 52.4962 2.23833 53.0795 2.145C54.5728 1.88833 56.0078 1.67833 57.3845 1.515C58.7612 1.35167 60.1962 1.27 61.6895 1.27C62.0162 1.27 62.4595 1.27 63.0195 1.27C63.5795 1.27 64.1395 1.31667 64.6995 1.41C65.2828 1.48 65.7728 1.63167 66.1695 1.865C66.5662 2.09833 66.7645 2.44833 66.7645 2.915C66.7645 3.17167 66.6828 3.39333 66.5195 3.58C66.3795 3.76667 66.2162 3.86 66.0295 3.86H60.7795C60.6862 3.86 60.4295 3.87167 60.0095 3.895C59.5895 3.895 59.1345 3.91833 58.6445 3.965C58.1545 4.01167 57.7462 4.105 57.4195 4.245C57.0695 4.385 56.7895 4.81667 56.5795 5.54C56.3695 6.26333 56.2178 7.12667 56.1245 8.13C56.0312 9.11 55.9845 10.0783 55.9845 11.035C56.2878 11.0117 56.7428 10.9883 57.3495 10.965C57.9562 10.9183 58.5862 10.8833 59.2395 10.86C59.9162 10.8367 60.4762 10.825 60.9195 10.825H62.3195C62.8562 10.825 63.2178 10.9417 63.4045 11.175C63.6145 11.4083 63.7195 11.7233 63.7195 12.12C63.7195 12.9133 63.2762 13.345 62.3895 13.415L56.4745 13.8C55.8212 13.8233 55.3778 13.94 55.1445 14.15C54.9345 14.3367 54.7945 14.6983 54.7245 15.235C54.6778 15.6783 54.6428 16.0167 54.6195 16.25C54.6195 16.4833 54.6195 16.6933 54.6195 16.88C54.6428 17.0433 54.6545 17.195 54.6545 17.335C54.6545 17.4517 54.6545 17.5567 54.6545 17.65C54.6545 18.1867 54.7012 18.7583 54.7945 19.365C54.8878 19.9483 55.0978 20.4733 55.4245 20.94C55.7745 21.4067 56.3112 21.7217 57.0345 21.885H58.8195C59.9862 21.885 61.2228 21.7917 62.5295 21.605C63.8595 21.4183 65.0262 21.2083 66.0295 20.975C66.0762 20.9517 66.1345 20.94 66.2045 20.94C66.2745 20.94 66.3212 20.94 66.3445 20.94C66.6712 20.94 66.8812 21.0567 66.9745 21.29C67.0912 21.5233 67.1495 21.78 67.1495 22.06C67.1495 23.11 66.0878 23.845 63.9645 24.265C63.2178 24.4283 62.3662 24.5333 61.4095 24.58C60.4528 24.6267 59.5312 24.65 58.6445 24.65ZM94.304 25C92.8574 25 91.539 24.6967 90.349 24.09C89.1824 23.4833 88.1674 22.655 87.304 21.605C86.464 20.555 85.8107 19.3767 85.344 18.07C84.8774 16.74 84.644 15.375 84.644 13.975C84.644 10.9183 85.3557 8.41 86.779 6.45C88.2257 4.49 90.3374 2.93833 93.114 1.795C93.8607 1.515 94.6774 1.24667 95.564 0.989998C96.4507 0.709999 97.2557 0.57 97.979 0.57C98.679 0.57 99.309 0.663332 99.869 0.849998C100.452 1.03667 100.931 1.34 101.304 1.76C101.561 2.04 101.736 2.33167 101.829 2.635C101.922 2.915 101.969 3.195 101.969 3.475C102.156 3.63833 102.354 3.88333 102.564 4.21C102.797 4.51333 103.007 4.805 103.194 5.085C104.057 6.275 104.641 7.48833 104.944 8.725C105.271 9.96167 105.434 11.3383 105.434 12.855C105.434 14.4417 105.166 15.9583 104.629 17.405C104.092 18.8517 103.322 20.1467 102.319 21.29C101.339 22.4333 100.161 23.3433 98.784 24.02C97.4307 24.6733 95.9374 25 94.304 25ZM94.654 22.445C96.0307 22.445 97.2207 22.13 98.224 21.5C99.2274 20.8467 100.056 20.0183 100.709 19.015C101.362 17.9883 101.841 16.8917 102.144 15.725C102.471 14.535 102.634 13.4033 102.634 12.33C102.634 11.84 102.564 11.2217 102.424 10.475C102.284 9.72833 102.062 8.95833 101.759 8.165C101.479 7.34833 101.117 6.59 100.674 5.89C100.231 5.19 99.7057 4.61833 99.099 4.175C98.4924 3.73167 97.8157 3.51 97.069 3.51C95.599 3.51 94.269 3.80167 93.079 4.385C91.889 4.96833 90.8624 5.76167 89.999 6.765C89.159 7.76833 88.5174 8.9 88.074 10.16C87.6307 11.3967 87.409 12.6683 87.409 13.975C87.409 14.9783 87.549 15.9817 87.829 16.985C88.109 17.9883 88.5407 18.8983 89.124 19.715C89.7074 20.5317 90.454 21.1967 91.364 21.71C92.2974 22.2 93.394 22.445 94.654 22.445ZM114.403 23.25C113.469 23.25 112.664 22.9233 111.988 22.27C111.334 21.5933 110.798 20.695 110.378 19.575C109.958 18.455 109.643 17.2183 109.433 15.865C109.246 14.5117 109.153 13.1583 109.153 11.805C109.153 9.65833 109.351 7.79167 109.748 6.205C109.794 5.995 109.864 5.66833 109.958 5.225C110.074 4.78167 110.203 4.315 110.343 3.825C110.506 3.31167 110.669 2.85667 110.833 2.46C110.996 2.06333 111.159 1.81833 111.323 1.725C111.509 1.60833 111.696 1.52667 111.883 1.48C112.069 1.41 112.244 1.375 112.408 1.375C112.641 1.375 112.863 1.445 113.073 1.585C113.213 1.67833 113.318 1.78333 113.388 1.9C113.458 2.01667 113.493 2.20333 113.493 2.46C113.493 2.67 113.458 2.95 113.388 3.3C113.271 3.88333 113.119 4.53667 112.933 5.26C112.769 5.98333 112.618 6.73 112.478 7.5C112.338 8.27 112.233 9.08667 112.163 9.95C112.093 10.79 112.058 11.6183 112.058 12.435C112.058 13.835 112.163 15.1533 112.373 16.39C112.583 17.6033 112.898 18.595 113.318 19.365C113.761 20.1117 114.309 20.485 114.963 20.485C115.196 20.485 115.534 20.3917 115.978 20.205C116.421 19.995 116.853 19.7617 117.273 19.505C117.716 19.2483 118.043 19.0383 118.253 18.875C119.536 17.8017 120.609 16.74 121.473 15.69C122.359 14.6167 123.106 13.4733 123.713 12.26C124.319 11.0233 124.868 9.65833 125.358 8.165C125.871 6.64833 126.396 4.92167 126.933 2.985C127.119 2.58833 127.411 2.39 127.808 2.39C128.088 2.39 128.344 2.495 128.578 2.705C128.811 2.915 128.904 3.21833 128.858 3.615C128.764 4.89833 128.683 6.14667 128.613 7.36C128.543 8.55 128.508 9.72833 128.508 10.895C128.508 12.0383 128.543 13.1817 128.613 14.325C128.683 15.445 128.799 16.5767 128.963 17.72C129.079 18.49 129.161 19.0617 129.208 19.435C129.254 19.8083 129.278 20.0767 129.278 20.24C129.301 20.38 129.313 20.52 129.313 20.66C129.313 21.0333 129.184 21.3483 128.928 21.605C128.694 21.8383 128.403 21.955 128.053 21.955C127.539 21.955 127.154 21.7567 126.898 21.36C126.641 20.9633 126.454 20.38 126.338 19.61C126.291 19.3533 126.221 18.91 126.128 18.28C126.058 17.6267 125.988 16.8683 125.918 16.005C125.848 15.1417 125.813 14.29 125.813 13.45C124.786 15.41 122.861 17.8017 120.038 20.625C119.291 21.4183 118.451 22.06 117.518 22.55C116.608 23.0167 115.569 23.25 114.403 23.25ZM141.194 24.3C140.891 24.3 140.623 24.2067 140.389 24.02C140.156 23.81 140.039 23.495 140.039 23.075C140.039 22.9817 140.039 22.9 140.039 22.83C140.063 22.7367 140.086 22.6433 140.109 22.55C140.529 20.4967 140.844 18.5133 141.054 16.6C141.264 14.6867 141.404 12.75 141.474 10.79C141.544 8.80667 141.579 6.73 141.579 4.56C140.366 4.56 139.374 4.58333 138.604 4.63C137.834 4.65333 137.088 4.68833 136.364 4.735C136.131 4.75833 135.886 4.78167 135.629 4.805C135.373 4.805 135.116 4.805 134.859 4.805C134.696 4.805 134.544 4.805 134.404 4.805C134.264 4.78167 134.136 4.75833 134.019 4.735C133.576 4.64167 133.261 4.50167 133.074 4.315C132.911 4.12833 132.829 3.84833 132.829 3.475C132.829 2.86833 133.086 2.495 133.599 2.355C134.113 2.19167 134.719 2.06333 135.419 1.97C135.886 1.9 136.633 1.84167 137.659 1.795C138.686 1.725 139.806 1.66667 141.019 1.62C142.256 1.55 143.458 1.49167 144.624 1.445C145.791 1.375 146.748 1.31666 147.494 1.27C147.984 1.27 148.579 1.29333 149.279 1.34C149.979 1.36333 150.668 1.45667 151.344 1.62C152.044 1.78333 152.628 2.05167 153.094 2.425C153.561 2.79833 153.794 3.335 153.794 4.035C153.794 4.33833 153.678 4.63 153.444 4.91C153.234 5.16667 152.989 5.295 152.709 5.295C152.616 5.295 152.523 5.27167 152.429 5.225C152.359 5.17833 152.278 5.13167 152.184 5.085C151.998 4.99167 151.811 4.89833 151.624 4.805C151.438 4.71167 151.239 4.64167 151.029 4.595C150.236 4.385 149.373 4.26833 148.439 4.245C147.529 4.19833 146.351 4.175 144.904 4.175C144.531 4.175 144.344 4.39667 144.344 4.84C144.344 5.72667 144.333 6.77667 144.309 7.99C144.286 9.18 144.239 10.44 144.169 11.77C144.123 13.1 144.041 14.4183 143.924 15.725C143.831 17.0083 143.714 18.1983 143.574 19.295C143.434 20.3917 143.271 21.3017 143.084 22.025C142.944 22.6317 142.711 23.18 142.384 23.67C142.221 23.9033 142.011 24.0667 141.754 24.16C141.521 24.2533 141.334 24.3 141.194 24.3ZM165.055 25C163.328 25 161.835 24.7083 160.575 24.125C159.338 23.5183 158.382 22.7017 157.705 21.675C157.052 20.6483 156.725 19.4817 156.725 18.175C156.725 17.685 156.807 17.3233 156.97 17.09C157.133 16.8567 157.437 16.74 157.88 16.74C157.973 16.74 158.16 16.7867 158.44 16.88C158.72 16.95 158.93 17.09 159.07 17.3C159.327 18.07 159.653 18.8517 160.05 19.645C160.47 20.4383 161.042 21.1033 161.765 21.64C162.512 22.1767 163.48 22.445 164.67 22.445C165.813 22.445 166.84 22.3167 167.75 22.06C168.66 21.78 169.372 21.3483 169.885 20.765C170.422 20.1583 170.69 19.365 170.69 18.385C170.69 17.6383 170.468 17.0083 170.025 16.495C169.605 15.9583 169.127 15.5383 168.59 15.235C167.097 14.4183 165.778 13.73 164.635 13.17C163.492 12.61 162.523 12.0733 161.73 11.56C160.96 11.0233 160.365 10.3933 159.945 9.67C159.548 8.92333 159.35 7.96667 159.35 6.8C159.35 5.02667 160.05 3.66167 161.45 2.705C162.873 1.74833 164.717 1.27 166.98 1.27C167.517 1.27 168.147 1.34 168.87 1.48C169.617 1.59666 170.34 1.78333 171.04 2.04C171.763 2.29667 172.358 2.635 172.825 3.055C173.292 3.475 173.525 3.98833 173.525 4.595C173.525 4.92167 173.397 5.21333 173.14 5.47C172.883 5.72667 172.58 5.855 172.23 5.855C171.717 5.855 171.285 5.76167 170.935 5.575C170.608 5.365 170.247 5.13167 169.85 4.875C169.407 4.57167 168.893 4.29167 168.31 4.035C167.75 3.77833 167.027 3.65 166.14 3.65C165.463 3.65 164.81 3.77833 164.18 4.035C163.55 4.26833 163.025 4.60666 162.605 5.05C162.208 5.49333 162.01 6.00667 162.01 6.59C162.01 7.33667 162.22 7.97833 162.64 8.515C163.06 9.05167 163.562 9.51833 164.145 9.915C164.425 10.0783 164.728 10.2533 165.055 10.44C165.382 10.6033 165.72 10.7783 166.07 10.965C166.397 11.1283 166.735 11.2917 167.085 11.455C167.458 11.6183 167.82 11.7933 168.17 11.98C169.15 12.4467 170.037 12.96 170.83 13.52C171.647 14.08 172.3 14.745 172.79 15.515C173.28 16.285 173.525 17.2417 173.525 18.385C173.525 19.785 173.117 20.9867 172.3 21.99C171.483 22.97 170.433 23.7167 169.15 24.23C167.867 24.7433 166.502 25 165.055 25ZM178.354 24.825C177.934 24.825 177.654 24.7783 177.514 24.685C177.398 24.5683 177.339 24.3117 177.339 23.915C177.339 23.495 177.421 23.215 177.584 23.075C177.771 22.9117 177.969 22.7833 178.179 22.69C178.389 22.5967 178.588 22.5033 178.774 22.41C178.961 22.3167 179.136 22.1883 179.299 22.025C179.719 21.6517 179.929 21.15 179.929 20.52C179.929 20.1933 179.918 19.7733 179.894 19.26C179.894 18.7233 179.894 18.1517 179.894 17.545C179.894 16.5883 179.894 15.5967 179.894 14.57C179.918 13.52 179.953 12.54 179.999 11.63C180.046 10.72 180.104 10.0083 180.174 9.495C180.244 8.88833 180.303 8.28167 180.349 7.675C180.419 7.06833 180.489 6.45 180.559 5.82V4.665C180.326 4.40833 180.128 4.22167 179.964 4.105C179.801 3.965 179.649 3.84833 179.509 3.755L178.844 3.335C178.681 3.24167 178.553 3.14833 178.459 3.055C178.389 2.93833 178.354 2.76333 178.354 2.53C178.354 2.06333 178.611 1.83 179.124 1.83C179.521 1.83 179.883 1.865 180.209 1.935C180.559 1.98167 180.886 2.005 181.189 2.005H181.574C181.691 2.005 181.983 1.98167 182.449 1.935C182.916 1.865 183.406 1.795 183.919 1.725C184.386 1.655 184.829 1.59667 185.249 1.55C185.669 1.48 185.926 1.445 186.019 1.445H186.229C186.603 1.445 186.859 1.515 186.999 1.655C187.139 1.77166 187.209 2.005 187.209 2.355C187.209 2.72833 187.139 2.97333 186.999 3.09C186.883 3.20666 186.708 3.28833 186.474 3.335C186.288 3.38167 186.089 3.42833 185.879 3.475C185.669 3.52167 185.471 3.56833 185.284 3.615C185.051 3.685 184.806 3.79 184.549 3.93C184.316 4.07 184.083 4.30333 183.849 4.63C183.686 5.51667 183.523 6.40333 183.359 7.29C183.219 8.15333 183.091 9.02833 182.974 9.915C182.694 12.3183 182.554 14.7683 182.554 17.265C182.554 17.7083 182.554 18.0933 182.554 18.42C182.578 18.7467 182.601 19.0967 182.624 19.47C182.648 19.8433 182.694 20.3217 182.764 20.905C182.904 21.395 183.324 21.71 184.024 21.85C184.188 21.8733 184.363 21.9083 184.549 21.955C184.759 21.9783 184.969 22.0133 185.179 22.06C185.529 22.13 185.786 22.235 185.949 22.375C186.113 22.4917 186.194 22.7017 186.194 23.005C186.194 23.2383 186.101 23.4367 185.914 23.6C185.751 23.74 185.448 23.8683 185.004 23.985C184.794 24.0317 184.573 24.0667 184.339 24.09C184.106 24.1133 183.873 24.1367 183.639 24.16L182.309 24.265C182.239 24.2883 182.146 24.3 182.029 24.3C181.913 24.3 181.773 24.3233 181.609 24.37C181.469 24.3933 181.306 24.4283 181.119 24.475C180.956 24.4983 180.781 24.5333 180.594 24.58C180.291 24.6267 179.988 24.685 179.684 24.755C179.404 24.8017 179.218 24.825 179.124 24.825H178.354ZM199.87 25.525C199.474 25.525 198.949 25.5133 198.295 25.49C197.642 25.4667 197.024 25.3617 196.44 25.175C195.857 25.0117 195.472 24.7083 195.285 24.265C195.285 23.8917 195.297 23.215 195.32 22.235C195.344 21.255 195.355 20.0883 195.355 18.735C195.379 17.3583 195.402 15.8883 195.425 14.325C195.449 12.7617 195.46 11.2333 195.46 9.74C195.46 8.99333 195.39 8.24667 195.25 7.5C195.11 6.73 194.912 6.05333 194.655 5.47C194.422 4.88667 194.13 4.51333 193.78 4.35C193.5 4.49 193.22 4.595 192.94 4.665C192.684 4.71167 192.427 4.735 192.17 4.735C191.797 4.735 191.482 4.65333 191.225 4.49C190.969 4.30333 190.84 4.035 190.84 3.685C190.84 3.055 191.085 2.54167 191.575 2.145C192.065 1.74833 192.672 1.445 193.395 1.235C194.119 1.025 194.842 0.873332 195.565 0.779999C196.289 0.686665 196.872 0.616666 197.315 0.57C197.642 0.57 198.085 0.558332 198.645 0.534998C199.205 0.488332 199.719 0.453332 200.185 0.429999C200.652 0.406666 200.909 0.395 200.955 0.395C202.612 0.441666 204.21 0.733332 205.75 1.27C207.314 1.80667 208.714 2.565 209.95 3.545C211.21 4.50167 212.202 5.65667 212.925 7.01C213.672 8.36333 214.045 9.89167 214.045 11.595C214.045 13.415 213.649 15.165 212.855 16.845C212.062 18.5017 210.989 19.9833 209.635 21.29C208.282 22.5967 206.765 23.635 205.085 24.405C203.405 25.1517 201.667 25.525 199.87 25.525ZM199.66 22.585C201.037 22.585 202.425 22.27 203.825 21.64C205.249 21.01 206.544 20.1583 207.71 19.085C208.9 18.0117 209.857 16.7983 210.58 15.445C211.304 14.0683 211.665 12.6567 211.665 11.21C211.665 9.97333 211.339 8.85333 210.685 7.85C210.032 6.84667 209.145 5.995 208.025 5.295C206.905 4.57167 205.657 4.02333 204.28 3.65C202.927 3.27667 201.527 3.09 200.08 3.09C199.917 3.09 199.73 3.09 199.52 3.09C199.334 3.09 199.147 3.10167 198.96 3.125C198.05 3.17167 197.49 3.53333 197.28 4.21C197.677 6.03 197.934 7.78 198.05 9.46C198.167 11.14 198.225 12.89 198.225 14.71C198.225 15.7133 198.19 16.7283 198.12 17.755C198.074 18.7817 198.05 19.8433 198.05 20.94V21.99C198.307 22.2233 198.564 22.3867 198.82 22.48C199.1 22.55 199.38 22.585 199.66 22.585ZM225.27 24.65C223.544 24.65 222.19 24.3467 221.21 23.74C220.23 23.1333 219.542 22.235 219.145 21.045C218.772 19.8317 218.585 18.3383 218.585 16.565C218.585 15.7483 218.62 14.8733 218.69 13.94C217.78 13.59 217.325 13.1583 217.325 12.645C217.325 12.2017 217.465 11.8867 217.745 11.7C218.049 11.49 218.387 11.3267 218.76 11.21C219.157 11.0933 219.484 10.9533 219.74 10.79C219.787 10.51 219.857 10.09 219.95 9.53C220.044 8.94667 220.137 8.34 220.23 7.71C220.347 7.05667 220.452 6.485 220.545 5.995C220.639 5.48167 220.697 5.16667 220.72 5.05C220.464 4.91 220.114 4.82833 219.67 4.805C219.25 4.75833 218.877 4.665 218.55 4.525C218.224 4.385 218.06 4.09333 218.06 3.65C218.06 3.18333 218.189 2.845 218.445 2.635C218.702 2.40166 219.122 2.23833 219.705 2.145C221.199 1.88833 222.634 1.67833 224.01 1.515C225.387 1.35167 226.822 1.27 228.315 1.27C228.642 1.27 229.085 1.27 229.645 1.27C230.205 1.27 230.765 1.31667 231.325 1.41C231.909 1.48 232.399 1.63167 232.795 1.865C233.192 2.09833 233.39 2.44833 233.39 2.915C233.39 3.17167 233.309 3.39333 233.145 3.58C233.005 3.76667 232.842 3.86 232.655 3.86H227.405C227.312 3.86 227.055 3.87167 226.635 3.895C226.215 3.895 225.76 3.91833 225.27 3.965C224.78 4.01167 224.372 4.105 224.045 4.245C223.695 4.385 223.415 4.81667 223.205 5.54C222.995 6.26333 222.844 7.12667 222.75 8.13C222.657 9.11 222.61 10.0783 222.61 11.035C222.914 11.0117 223.369 10.9883 223.975 10.965C224.582 10.9183 225.212 10.8833 225.865 10.86C226.542 10.8367 227.102 10.825 227.545 10.825H228.945C229.482 10.825 229.844 10.9417 230.03 11.175C230.24 11.4083 230.345 11.7233 230.345 12.12C230.345 12.9133 229.902 13.345 229.015 13.415L223.1 13.8C222.447 13.8233 222.004 13.94 221.77 14.15C221.56 14.3367 221.42 14.6983 221.35 15.235C221.304 15.6783 221.269 16.0167 221.245 16.25C221.245 16.4833 221.245 16.6933 221.245 16.88C221.269 17.0433 221.28 17.195 221.28 17.335C221.28 17.4517 221.28 17.5567 221.28 17.65C221.28 18.1867 221.327 18.7583 221.42 19.365C221.514 19.9483 221.724 20.4733 222.05 20.94C222.4 21.4067 222.937 21.7217 223.66 21.885H225.445C226.612 21.885 227.849 21.7917 229.155 21.605C230.485 21.4183 231.652 21.2083 232.655 20.975C232.702 20.9517 232.76 20.94 232.83 20.94C232.9 20.94 232.947 20.94 232.97 20.94C233.297 20.94 233.507 21.0567 233.6 21.29C233.717 21.5233 233.775 21.78 233.775 22.06C233.775 23.11 232.714 23.845 230.59 24.265C229.844 24.4283 228.992 24.5333 228.035 24.58C227.079 24.6267 226.157 24.65 225.27 24.65ZM255.785 23.6C255.085 23.6 254.502 23.39 254.035 22.97C253.568 22.5267 253.183 21.9667 252.88 21.29C252.6 20.59 252.378 19.855 252.215 19.085C252.075 18.2917 251.97 17.5333 251.9 16.81C251.853 16.0867 251.807 15.4917 251.76 15.025C251.713 14.465 251.678 13.9283 251.655 13.415C251.632 12.9017 251.608 12.3067 251.585 11.63C251.585 10.9533 251.585 10.09 251.585 9.04C251.585 7.96667 251.585 6.59 251.585 4.91C251.585 4.42 251.62 3.895 251.69 3.335C251.76 2.75167 251.923 2.26167 252.18 1.865C252.437 1.445 252.845 1.235 253.405 1.235C253.615 1.235 253.813 1.305 254 1.445C254.21 1.56167 254.315 1.88833 254.315 2.425C254.315 2.845 254.303 3.51 254.28 4.42C254.257 5.33 254.245 6.35667 254.245 7.5C254.245 8.78333 254.257 10.125 254.28 11.525C254.303 12.9017 254.35 14.15 254.42 15.27C254.513 16.39 254.618 17.2067 254.735 17.72C254.782 17.86 254.852 18.0817 254.945 18.385C255.038 18.665 255.132 18.9333 255.225 19.19C255.318 19.4467 255.388 19.6217 255.435 19.715C255.645 20.0883 255.843 20.275 256.03 20.275C256.17 20.275 256.287 20.2167 256.38 20.1C256.497 19.96 256.59 19.8317 256.66 19.715C256.8 19.435 257.057 18.91 257.43 18.14C257.803 17.37 258.235 16.4833 258.725 15.48C259.215 14.4533 259.705 13.4383 260.195 12.435C260.685 11.4083 261.117 10.5217 261.49 9.775C261.887 9.02833 262.167 8.53833 262.33 8.305C262.75 7.65167 263.1 7.17333 263.38 6.87C263.66 6.56667 264.127 6.415 264.78 6.415C265.387 6.415 265.818 6.57833 266.075 6.905C266.355 7.20833 266.577 7.61667 266.74 8.13L269.925 17.44C270.158 17.9067 270.357 18.1867 270.52 18.28C270.683 18.3733 270.823 18.42 270.94 18.42C271.173 18.42 271.383 18.3033 271.57 18.07C271.757 17.8133 271.885 17.6033 271.955 17.44C272.912 15.1067 273.693 12.855 274.3 10.685C274.93 8.515 275.56 6.18167 276.19 3.685C276.33 3.14833 276.528 2.705 276.785 2.355C277.042 1.98167 277.415 1.795 277.905 1.795C278.325 1.795 278.64 1.9 278.85 2.11C279.083 2.32 279.177 2.58833 279.13 2.915C279.06 3.28833 278.967 3.72 278.85 4.21C278.733 4.67667 278.652 4.99167 278.605 5.155L275.14 17.125C275 17.5683 274.813 18.105 274.58 18.735C274.347 19.3417 274.055 19.9483 273.705 20.555C273.355 21.1617 272.947 21.6633 272.48 22.06C272.037 22.4567 271.535 22.655 270.975 22.655C270.275 22.655 269.727 22.4567 269.33 22.06C268.933 21.64 268.595 21.08 268.315 20.38C267.802 19.0033 267.253 17.545 266.67 16.005C266.087 14.4417 265.573 12.785 265.13 11.035C265.083 10.825 265.002 10.6267 264.885 10.44C264.792 10.23 264.675 10.125 264.535 10.125C264.372 10.125 264.208 10.2883 264.045 10.615C263.322 12.0617 262.657 13.4617 262.05 14.815C261.443 16.145 260.767 17.615 260.02 19.225C259.763 19.8317 259.448 20.4733 259.075 21.15C258.702 21.8267 258.247 22.41 257.71 22.9C257.197 23.3667 256.555 23.6 255.785 23.6ZM292.102 25C290.655 25 289.337 24.6967 288.147 24.09C286.98 23.4833 285.965 22.655 285.102 21.605C284.262 20.555 283.609 19.3767 283.142 18.07C282.675 16.74 282.442 15.375 282.442 13.975C282.442 10.9183 283.154 8.41 284.577 6.45C286.024 4.49 288.135 2.93833 290.912 1.795C291.659 1.515 292.475 1.24667 293.362 0.989998C294.249 0.709999 295.054 0.57 295.777 0.57C296.477 0.57 297.107 0.663332 297.667 0.849998C298.25 1.03667 298.729 1.34 299.102 1.76C299.359 2.04 299.534 2.33167 299.627 2.635C299.72 2.915 299.767 3.195 299.767 3.475C299.954 3.63833 300.152 3.88333 300.362 4.21C300.595 4.51333 300.805 4.805 300.992 5.085C301.855 6.275 302.439 7.48833 302.742 8.725C303.069 9.96167 303.232 11.3383 303.232 12.855C303.232 14.4417 302.964 15.9583 302.427 17.405C301.89 18.8517 301.12 20.1467 300.117 21.29C299.137 22.4333 297.959 23.3433 296.582 24.02C295.229 24.6733 293.735 25 292.102 25ZM292.452 22.445C293.829 22.445 295.019 22.13 296.022 21.5C297.025 20.8467 297.854 20.0183 298.507 19.015C299.16 17.9883 299.639 16.8917 299.942 15.725C300.269 14.535 300.432 13.4033 300.432 12.33C300.432 11.84 300.362 11.2217 300.222 10.475C300.082 9.72833 299.86 8.95833 299.557 8.165C299.277 7.34833 298.915 6.59 298.472 5.89C298.029 5.19 297.504 4.61833 296.897 4.175C296.29 3.73167 295.614 3.51 294.867 3.51C293.397 3.51 292.067 3.80167 290.877 4.385C289.687 4.96833 288.66 5.76167 287.797 6.765C286.957 7.76833 286.315 8.9 285.872 10.16C285.429 11.3967 285.207 12.6683 285.207 13.975C285.207 14.9783 285.347 15.9817 285.627 16.985C285.907 17.9883 286.339 18.8983 286.922 19.715C287.505 20.5317 288.252 21.1967 289.162 21.71C290.095 22.2 291.192 22.445 292.452 22.445ZM310.065 25C309.669 25 309.4 24.9183 309.26 24.755C309.12 24.5683 308.969 24.2767 308.805 23.88C308.759 23.7867 308.735 23.7167 308.735 23.67C308.712 23.3433 308.7 23.005 308.7 22.655C308.7 22.305 308.7 21.9667 308.7 21.64C308.7 19.4933 308.817 17.3583 309.05 15.235C309.284 13.1117 309.4 10.9883 309.4 8.865C309.4 8.25833 309.389 7.66333 309.365 7.08C309.365 6.47333 309.307 5.87833 309.19 5.295L309.12 4.945L308.77 4.84C308.257 4.67667 307.825 4.49 307.475 4.28C307.149 4.07 306.985 3.755 306.985 3.335C306.985 3.07833 307.242 2.78666 307.755 2.46C308.292 2.13333 309.027 1.865 309.96 1.655C310.847 1.46833 311.757 1.36333 312.69 1.34C313.624 1.29333 314.347 1.27 314.86 1.27C316.097 1.27 317.357 1.375 318.64 1.585C319.924 1.795 321.125 2.145 322.245 2.635C323.365 3.10167 324.31 3.74333 325.08 4.56C325.874 5.35333 326.375 6.35667 326.585 7.57C326.655 7.87333 326.69 8.21167 326.69 8.585C326.69 9.79833 326.375 10.79 325.745 11.56C325.139 12.3067 324.334 12.9367 323.33 13.45C322.35 13.94 321.277 14.4067 320.11 14.85L319.165 15.2L320.11 16.04C320.367 16.2733 320.635 16.5183 320.915 16.775C321.219 17.0083 321.499 17.265 321.755 17.545L323.33 19.26C323.797 19.7733 324.252 20.345 324.695 20.975C325.139 21.5817 325.36 22.1767 325.36 22.76C325.36 23.7633 324.859 24.265 323.855 24.265C323.529 24.265 323.33 24.23 323.26 24.16C323.26 24.16 323.249 24.16 323.225 24.16C323.225 24.1367 323.214 24.125 323.19 24.125C323.167 24.0783 323.109 24.0083 323.015 23.915C322.945 23.845 322.864 23.7633 322.77 23.67C322.677 23.5767 322.595 23.4717 322.525 23.355C321.989 22.3983 321.394 21.5583 320.74 20.835C320.087 20.0883 319.212 19.2483 318.115 18.315C317.812 18.035 317.404 17.7317 316.89 17.405C316.377 17.0783 315.875 16.7283 315.385 16.355C314.872 15.9583 314.475 15.585 314.195 15.235C313.915 14.885 313.775 14.5817 313.775 14.325C313.775 14.1617 313.869 14.0917 314.055 14.115C314.242 14.1383 314.557 14.0567 315 13.87C315.444 13.6833 315.945 13.52 316.505 13.38C317.065 13.2167 317.637 13.0533 318.22 12.89C318.804 12.7033 319.387 12.5167 319.97 12.33C320.577 12.12 321.125 11.8633 321.615 11.56C322.105 11.2333 322.619 10.8017 323.155 10.265C323.715 9.705 323.995 9.09833 323.995 8.445C323.995 7.72167 323.774 7.09167 323.33 6.555C322.91 6.01833 322.385 5.575 321.755 5.225C321.149 4.85167 320.565 4.595 320.005 4.455C319.329 4.26833 318.524 4.14 317.59 4.07C316.68 4 315.852 3.965 315.105 3.965H312.9C312.62 3.965 312.48 4.11667 312.48 4.42L311.535 21.255C311.512 21.4183 311.5 21.6167 311.5 21.85C311.524 22.06 311.524 22.2817 311.5 22.515C311.454 22.9583 311.384 23.39 311.29 23.81C311.08 24.6033 310.672 25 310.065 25ZM330.893 23.95C330.66 23.7167 330.52 23.4483 330.473 23.145C330.427 22.8417 330.403 22.4333 330.403 21.92C330.403 21.2433 330.473 20.555 330.613 19.855C330.753 19.1317 330.917 18.4083 331.103 17.685C331.29 16.915 331.477 16.1567 331.663 15.41C331.873 14.64 332.025 13.87 332.118 13.1V10.3C332.118 9.18 332.083 8.07167 332.013 6.975C331.967 5.855 331.943 4.74667 331.943 3.65V2.215C331.99 1.88833 332.083 1.67833 332.223 1.585C332.363 1.46833 332.632 1.41 333.028 1.41C333.448 1.41 333.775 1.56167 334.008 1.865C334.242 2.16833 334.405 2.55333 334.498 3.02C334.615 3.48667 334.673 3.965 334.673 4.455C334.697 4.92167 334.708 5.31833 334.708 5.645C334.708 5.83167 334.72 6.19333 334.743 6.73C334.767 7.26667 334.778 7.87333 334.778 8.55C334.802 9.20333 334.825 9.85667 334.848 10.51C334.872 11.14 334.883 11.665 334.883 12.085C334.883 12.715 335.047 13.03 335.373 13.03C335.607 13.03 335.863 12.855 336.143 12.505C336.213 12.435 336.377 12.2833 336.633 12.05C336.89 11.7933 337.17 11.5367 337.473 11.28C337.777 11 338.022 10.8017 338.208 10.685C338.372 10.545 338.617 10.3 338.943 9.95C339.27 9.6 339.62 9.215 339.993 8.795C340.367 8.375 340.705 7.99 341.008 7.64C341.312 7.29 341.533 7.045 341.673 6.905C341.86 6.695 342.058 6.45 342.268 6.17C342.478 5.89 342.677 5.59833 342.863 5.295C343.05 4.99167 343.248 4.67667 343.458 4.35C343.668 4.02333 343.89 3.70833 344.123 3.405C344.473 2.89166 344.835 2.43667 345.208 2.04C345.582 1.62 345.978 1.41 346.398 1.41C346.748 1.41 347.052 1.53833 347.308 1.795C347.565 2.05167 347.693 2.355 347.693 2.705C347.693 3.38167 347.472 4.105 347.028 4.875C346.585 5.62167 346.048 6.35667 345.418 7.08C344.788 7.78 344.182 8.42167 343.598 9.005C343.458 9.145 343.155 9.40167 342.688 9.775C342.245 10.1483 341.743 10.5683 341.183 11.035C340.647 11.4783 340.133 11.8983 339.643 12.295C339.177 12.6917 338.838 12.9833 338.628 13.17C338.395 13.3333 338.278 13.4733 338.278 13.59C338.278 13.7067 338.395 13.835 338.628 13.975L339.678 14.57C339.842 14.6633 340.11 14.8383 340.483 15.095C340.857 15.3517 341.253 15.6433 341.673 15.97C342.117 16.2733 342.525 16.5533 342.898 16.81C343.272 17.0433 343.528 17.2183 343.668 17.335C344.228 17.7317 344.847 18.21 345.523 18.77C346.223 19.33 346.818 19.9367 347.308 20.59C347.822 21.2433 348.078 21.9433 348.078 22.69C348.078 22.9 348.008 23.075 347.868 23.215C347.728 23.3317 347.425 23.39 346.958 23.39C346.748 23.39 346.48 23.2967 346.153 23.11C345.827 22.9233 345.488 22.6783 345.138 22.375C345.022 22.305 344.812 22.1533 344.508 21.92C344.228 21.6633 343.925 21.3833 343.598 21.08L342.618 20.205C342.455 20.0417 342.303 19.9133 342.163 19.82C342.023 19.7033 341.93 19.6333 341.883 19.61C341.65 19.47 341.265 19.1667 340.728 18.7C340.192 18.2333 339.62 17.7783 339.013 17.335C338.383 16.8917 337.835 16.53 337.368 16.25C336.925 15.97 336.587 15.7367 336.353 15.55L335.513 14.85C335.467 14.8033 335.397 14.7333 335.303 14.64C335.21 14.5467 335.105 14.5 334.988 14.5C334.918 14.5 334.837 14.5583 334.743 14.675C334.673 14.7683 334.603 14.955 334.533 15.235C334.417 15.6783 334.3 16.2733 334.183 17.02C334.067 17.7433 333.962 18.4317 333.868 19.085C333.775 19.7383 333.693 20.1933 333.623 20.45C333.53 20.8467 333.413 21.2667 333.273 21.71C333.157 22.1533 333.005 22.5617 332.818 22.935C332.632 23.2617 332.422 23.5183 332.188 23.705C331.955 23.8683 331.675 23.95 331.348 23.95H330.893Z" fill="#57A0B8"/>
</svg>
