<svg width="30" height="30" viewBox="0 0 41 30" fill="none" xmlns="http://www.w3.org/2000/svg">
    <path d="M2.25 3C2.25 7.31304 2.75 11.606 2.75 15.875C2.75 17.8302 3.5 19.6007 3.5 21.6389C3.5 23.4911 2.75136 26.5 5.11111 26.5C8.36841 26.5 11.5696 26.75 14.8056 26.75C17.2644 26.75 19.5543 27.75 22 27.75C23.5046 27.75 25.0093 27.75 26.5139 27.75C28.8611 27.75 31.2083 27.75 33.5556 27.75C34.5833 27.75 35.6111 27.75 36.6389 27.75C38.1358 27.75 38.5 27.9921 38.5 26.375C38.5 24.1378 39 22.1633 39 19.8889C39 17.5926 39 15.2963 39 13C39 11.7718 38.5 11.0318 38.5 9.88889C38.5 8.86111 38.5 7.83333 38.5 6.80556C38.5 5.61504 38.7889 4.78213 37.4861 4.375C36.9218 4.19866 36.1357 3.54384 35.6389 3.5C34.9993 3.44357 34.2529 3.29024 33.625 3.125C32.1082 2.72583 30.1701 2.5917 28.6111 2.5C27.1752 2.41554 25.726 2.25 24.2361 2.25C21.0741 2.25 17.912 2.25 14.75 2.25C12.5553 2.25 10.5797 2.75 8.38889 2.75C6.55249 2.75 4.09721 3.04861 2.5 2.25"
          stroke="#4D6F2EFF" stroke-width="3" stroke-linecap="round" stroke-linejoin="round"/>
    <path d="M2.5 2.25C2.5 2.78121 4.82817 5.5087 5.38889 5.80556C5.96957 6.11297 6.71838 6.94355 7.23611 7.375C7.81662 7.85876 8.83638 7.97527 9.30556 8.44444C10.6554 9.79434 12.6799 10.4438 14.0556 11.6944C14.7465 12.3226 15.5708 12.6782 16.375 13.125C17.163 13.5628 17.955 13.2692 18.6111 13.8889C19.291 14.531 20.3998 14.4042 21.1111 15.0139C21.5885 15.4231 22.7861 16.3465 23.4444 15.3889C24.0858 14.4559 25.846 14.311 26.875 13.9861C27.8202 13.6876 29.2095 13.0207 30.0556 12.5C30.9155 11.9708 31.7532 11.0282 32.3472 10.2361C32.8864 9.51719 33.7024 9.24721 34.25 8.55556C34.6427 8.05951 35.8315 7.52484 36.3611 7.22222C36.8832 6.92389 37.3569 6.07153 38 5.75"
          stroke="#4D6F2EFF" stroke-width="3" stroke-linecap="round" stroke-linejoin="round"/>
</svg>
