<svg width="41" height="57" viewBox="0 0 41 57" fill="none" xmlns="http://www.w3.org/2000/svg">
<path d="M3.19122 2.84685C3.19122 5.19531 3.19122 7.54377 3.19122 9.89222C3.19122 10.9009 3.49557 11.8411 3.58263 12.8278C3.62189 13.2727 3.97404 13.4381 3.97404 13.9042C3.97404 14.2297 4.16975 15.1865 4.16975 14.8609C4.16975 13.1858 4.08509 11.4878 4.18062 9.81612C4.31216 7.51417 5.73704 6.02894 6.90961 4.21679C7.5592 3.21288 8.37667 2.56104 9.45377 2.10752C10.8246 1.53034 11.1044 3.42773 11.6065 4.21679C12.5948 5.76986 12.4181 7.61908 12.9765 9.29424C13.4139 10.6066 13.1932 12.1738 13.7158 13.4149C13.8254 13.6752 13.9003 15.4253 13.6071 14.5456C13.0551 12.8897 12.7808 11.5884 12.7808 9.81612C12.7808 8.4061 13.2008 7.27032 14.1507 6.18471C14.6605 5.6021 15.5145 4.85031 16.3034 4.8039C16.8788 4.77005 17.5424 4.44412 18.217 4.65169C19.1188 4.92917 19.0128 6.27079 19.4347 6.94578C19.9215 7.72458 19.0109 11.9658 19.9348 12.2298C21.8228 12.7692 24.5147 12.0301 26.0452 11.0665C27.8051 9.95838 27.85 7.68021 27.85 5.88028C27.85 4.25026 26.3608 4.21679 25.1102 4.21679C24.4341 4.21679 23.6273 3.97648 23.5445 4.8039C23.4911 5.33783 23.1531 5.70437 23.1531 6.28256C23.1531 7.03276 23.1531 7.78296 23.1531 8.53316C23.1531 9.44235 24.0959 11.7137 24.7187 12.4255C25.3753 13.1758 25.8787 14.032 26.5236 14.7414C27.0657 15.3377 28.4943 15.8116 29.22 16.0026C30.6182 16.3705 31.9777 16.7419 33.4385 16.7419C36.1713 16.7419 37.3731 13.6116 39.2009 12.2407" stroke="#1E1E1E" stroke-width="3" stroke-linecap="round" stroke-linejoin="round"/>
<path d="M17 23.4304C17 24.5897 16.7322 25.6201 16.3889 26.7359C14.9202 31.5092 12.8567 35.985 10.9722 40.597C9.75701 43.5711 8.32959 46.4314 7.05556 49.3748C6.73079 50.1251 6.78951 51.233 6 51.4304" stroke="#1E1E1E" stroke-width="3" stroke-linecap="round" stroke-linejoin="round"/>
<path d="M2 44.9304C2.08324 46.5951 2.85238 47.9146 3.625 49.3054C4.01766 50.0121 3.8076 50.8195 4.01389 51.5415C4.25686 52.3919 4.92555 55.3033 5.75 54.4304C6.4212 53.7197 7.32669 53.1313 7.86111 52.2915C8.33513 51.5466 8.90193 51.8153 9.51389 51.3054C10.6034 50.3975 11.9995 50.9314 12.75 49.4304" stroke="#1E1E1E" stroke-width="3" stroke-linecap="round" stroke-linejoin="round"/>
</svg>
