<svg width="289" height="280" viewBox="0 0 289 280" fill="none" xmlns="http://www.w3.org/2000/svg">
<path d="M22.5211 27.3079C22.5211 33.6996 22.1232 39.6782 20.4464 45.9065C18.4705 53.2453 17.8433 63.413 14.5185 70.0624C11.1585 76.7825 11.851 86.3394 11.851 93.6997C11.851 102.623 10.0907 114.2 13.7776 122.598C18.4369 133.211 21.2958 143.434 27.8562 153.275C33.6821 162.013 40.5522 169.962 47.2699 178.023C53.1779 185.113 60.0745 190.988 65.9426 198.03C72.789 206.245 83.3277 210.673 90.6914 218.036C106.296 233.641 128.076 240.804 147.154 250.343C155.939 254.735 166.135 256.558 175.83 258.049C183.794 259.274 191.099 263.384 199.319 263.384C217.241 263.384 235.602 266.978 253.559 267.386C265.006 267.646 276.489 267.386 287.94 267.386" stroke="#1E1E1E" stroke-linecap="round" stroke-linejoin="round"/>
<path d="M275 253C276.106 254.493 277.444 256.742 278.946 257.494C280.513 258.277 281.782 260.445 283.368 261.057C285.534 261.892 286.203 264.724 287.6 266.61C288.768 268.187 287.104 268.692 286.126 270.012C285.129 271.358 283.577 272.625 282.251 273.222C280.979 273.795 280.571 275.519 279.255 276.111C277.972 276.689 277.281 277.463 276.712 279" stroke="#1E1E1E" stroke-linecap="round" stroke-linejoin="round"/>
<path d="M3.12304 7.72269C2.45983 11.4182 0.570642 22.5222 1.23385 18.8268C1.50607 17.3099 2.19315 15.8195 2.70187 14.3671C3.53716 11.9821 4.34933 9.43674 6.08901 7.4882C6.67517 6.83166 7.76413 5.52904 8.87553 5.68794C10.1477 5.86982 10.6403 6.84637 11.1248 7.87543C11.8026 9.31509 11.6454 11.2621 11.4338 12.7605C11.2293 14.208 10.9218 15.6455 10.6635 17.0845C10.629 17.2771 10.4033 18.5346 10.5191 17.8893C10.9462 15.5092 11.6192 13.1921 12.6341 10.9791C13.3851 9.34178 14.2877 7.5698 15.9197 6.52614C16.2054 6.34344 17.2577 5.58992 17.4732 6.27245C17.8543 7.47928 17.6912 8.82102 17.682 10.048C17.6704 11.6021 17.2761 13.1438 17.003 14.6652C16.8796 15.3529 16.856 16.1561 17.2981 16.7416C17.8249 17.4394 18.7678 17.4314 19.644 17.5886C21.8021 17.9759 24.0603 17.2344 26.0021 16.4773C28.7356 15.4114 31.2274 13.797 33.1048 11.6656C33.8968 10.7665 34.6123 9.84755 34.9538 8.70672C35.1296 8.11964 35.44 7.40427 35.3633 6.77806C35.2406 5.7776 34.0121 5.31085 33.1116 5.14924C32.7744 5.08872 32.3121 4.92568 31.9871 5.06459C31.4907 5.27679 30.9432 5.60576 30.5353 5.93824C29.6007 6.70006 28.85 7.5405 28.1814 8.50303C27.7701 9.09523 27.5857 9.9624 27.4617 10.6529C27.3034 11.5351 27.3867 12.1309 27.6696 12.9906C28.0912 14.2719 29.335 15.7705 30.5284 16.5281C30.828 16.7183 31.0563 16.9772 31.3782 17.1492C31.7116 17.3274 32.172 17.4036 32.5362 17.5274C33.5187 17.8616 34.7623 18.1158 35.7983 18.1768C36.4619 18.2158 37.2912 17.9201 37.8999 17.7233C38.8322 17.4218 39.7592 17.0345 40.6321 16.6108C41.337 16.2687 42.431 15.8375 42.9032 15.2452" stroke="#1E1E1E" stroke-linecap="round" stroke-linejoin="round"/>
</svg>
