<svg width="847" height="800" viewBox="0 0 847 800" fill="none" xmlns="http://www.w3.org/2000/svg">
<path d="M804.984 737.914C808.43 741.36 812.6 746.552 817.284 748.287C822.167 750.096 826.123 755.1 831.066 756.512C837.816 758.441 839.901 764.977 844.256 769.331C847.896 772.971 842.71 774.138 839.662 777.186C836.554 780.293 831.717 783.218 827.584 784.595C823.618 785.917 822.347 789.898 818.247 791.264C814.248 792.597 812.093 794.385 810.319 797.933" stroke="#1E1E1E" stroke-width="3" stroke-linecap="round" stroke-linejoin="round"/>
<path d="M96.4923 106.134C96.4923 123.86 95.3889 140.439 90.7387 157.711C85.2594 178.063 83.5198 206.26 74.2998 224.7C64.9818 243.336 66.9023 269.839 66.9023 290.25C66.9023 314.997 62.0208 347.102 72.2449 370.39C85.166 399.821 93.0943 428.172 111.287 455.461C127.444 479.696 146.496 501.739 165.125 524.094C181.509 543.755 200.634 560.047 216.908 579.575C235.894 602.359 265.119 614.636 285.54 635.057C328.813 678.33 389.215 698.196 442.121 724.649C466.482 736.83 494.759 741.883 521.644 746.02C543.728 749.417 563.988 760.815 586.783 760.815C636.484 760.815 687.403 770.779 737.2 771.911C768.945 772.632 800.788 771.911 832.545 771.911" stroke="#1E1E1E" stroke-width="3" stroke-linecap="round" stroke-linejoin="round"/>
<path d="M2 38.9862C2 50.549 2.29054 85.2359 2.29054 73.6732C2.29054 68.9272 3.46728 64.0357 4.16289 59.3561C5.30506 51.6725 6.30162 43.5149 10.1996 36.6619C11.513 34.3529 13.9112 29.812 17.1079 29.689C20.767 29.5483 22.64 32.2405 24.5167 35.0963C27.1421 39.0915 27.6811 45.0789 27.8417 49.7361C27.9968 54.235 27.8578 58.7598 27.8578 63.2623C27.8578 63.8649 27.8578 67.7993 27.8578 65.7803C27.8578 58.3333 28.5787 50.9434 30.3113 43.6833C31.5931 38.3116 33.2328 32.4492 37.2842 28.3978C37.9934 27.6886 40.5651 24.832 41.5131 26.7837C43.1892 30.2345 43.4071 34.3904 43.9988 38.1146C44.7483 42.8318 44.4185 47.7196 44.4185 52.4801C44.4185 54.6316 44.7565 57.0794 46.2908 58.6137C48.1194 60.4423 50.7597 59.9049 53.296 59.9049C59.5429 59.9049 65.5025 56.4287 70.5668 53.0773C77.6961 48.3594 83.8716 42.1101 88.0636 34.6282C89.8322 31.4717 91.3764 28.297 91.7599 24.6531C91.9573 22.7779 92.4679 20.4405 91.9375 18.5841C91.0901 15.6181 87.4099 14.8716 84.8032 14.8716C83.827 14.8716 82.4487 14.6289 81.6073 15.2267C80.3219 16.14 78.9521 17.435 77.9755 18.6648C75.7379 21.4825 74.0556 24.4385 72.6652 27.7198C71.8097 29.7387 71.729 32.4676 71.729 34.6282C71.729 37.3883 72.2624 39.1492 73.4883 41.6011C75.3157 45.2558 79.5578 49.1218 83.2859 50.7691C84.2217 51.1826 84.9923 51.8433 85.9815 52.1896C87.0063 52.5482 88.3356 52.5287 89.4195 52.7061C92.3429 53.1844 95.9583 53.2786 98.8942 52.8998C100.775 52.6571 102.952 51.3094 104.56 50.3818C107.023 48.9609 109.427 47.2825 111.662 45.5233C113.466 44.1027 116.317 42.2006 117.343 40.1484" stroke="#1E1E1E" stroke-width="3" stroke-linecap="round" stroke-linejoin="round"/>
<path d="M140.559 13.5558H140.559" stroke="#1E1E1E" stroke-width="8" stroke-linecap="round" stroke-linejoin="round"/>
<path d="M145.566 43.986H145.566" stroke="#1E1E1E" stroke-width="8" stroke-linecap="round" stroke-linejoin="round"/>
<path d="M153.27 2.77039C153.27 5.44685 153.487 7.7131 154.212 10.303C154.923 12.8417 155.865 15.2056 156.544 17.7715C156.965 19.3603 157.912 20.6548 158.427 22.2012C158.924 23.6913 159.178 25.0999 160.011 26.4597C162.205 30.0391 162.577 34.6951 164.441 38.4221C165.058 39.6575 165.511 40.8081 166.067 42.06C166.325 42.6401 166.752 44.1013 166.752 43.9859" stroke="#1E1E1E" stroke-width="3" stroke-linecap="round" stroke-linejoin="round"/>
<path d="M153.655 2C150.003 2 160.96 2 164.612 2C168.101 2 172.132 3.91374 174.648 6.42971C179.417 11.1983 180.234 18.0549 180.234 24.5337C180.234 29.328 178.13 32.4006 175.397 36.1965C174.279 37.7496 173.036 38.959 171.567 40.134C170.552 40.9457 167.522 43.2803 167.522 44.3711" stroke="#1E1E1E" stroke-width="3" stroke-linecap="round" stroke-linejoin="round"/>
</svg>
