<svg width="227" height="213" viewBox="0 0 227 213" fill="none" xmlns="http://www.w3.org/2000/svg">
<path d="M170.593 76.1196C172.831 76.1197 179.566 76.8717 177.648 87.966C176.807 92.8361 176.001 95.4914 174.212 98.8181C172.698 101.631 170.533 103.958 167.788 102.641" stroke="black" stroke-width="3" stroke-linecap="round" stroke-linejoin="round"/>
<path d="M56.3802 79.3159C52.5672 79.3158 46.5022 84.6233 48.5089 95.2007C50.6624 106.552 54.9919 107.49 57.2615 106.812" stroke="black" stroke-width="3" stroke-linecap="round" stroke-linejoin="round"/>
<path d="M65.5 50.8304C46.5 73.3304 71 151.33 58.5 182.83C54.2104 193.64 38 201.83 25 199.33" stroke="#FCD19C" stroke-width="3" stroke-linecap="round" stroke-linejoin="round"/>
<path d="M126 9.33043C135 0.830445 150.1 2.13043 160.5 9.33043C173.5 18.3304 186.5 33.3304 192 115.83C197.5 198.33 217 198.33 225.5 196.83" stroke="#FCD19C" stroke-width="3" stroke-linecap="round" stroke-linejoin="round"/>
<path d="M125.5 20.8304C124 24.8304 123.5 30.1889 103.5 32.8304C74.5 36.6606 53 29.8304 44.5 63.8304C36 97.8304 44.1364 151.33 36.5 172.33C28.8636 193.33 14 193.83 5.5 188.83" stroke="#FCD19C" stroke-width="3" stroke-linecap="round" stroke-linejoin="round"/>
<path d="M129.5 20.3304C129.5 30.3304 122.5 36.3304 108 37.3304C87.3307 38.7559 75.5 30.8304 57 54.8304C43.621 72.187 59.5 130.33 49 164.33C43.9952 180.536 28 183.33 24 180.83" stroke="#FCD19C" stroke-width="3" stroke-linecap="round" stroke-linejoin="round"/>
<path d="M123 16.3304C119.5 19.8304 118.5 22.5304 98.5 25.3304C73.5 28.8304 57.5 29.3304 48 42.3304" stroke="#FCD19C" stroke-width="3" stroke-linecap="round" stroke-linejoin="round"/>
<path d="M123.5 12.3304C121.333 14.9971 116.7 17.1304 101.5 18.3304C82.5 19.8304 61.5 22.8304 50.5 35.3304" stroke="#FCD19C" stroke-width="3" stroke-linecap="round" stroke-linejoin="round"/>
<path d="M124 5.33045C118.667 2.33045 100 -1.16956 79 7.33041C54.3704 17.2995 31.6573 33.3304 24.5 78.8304C17.5 123.33 16.9375 140.33 14.5 159.83C13.6875 166.33 9 168.83 4.5 168.83" stroke="#FCD19C" stroke-width="3" stroke-linecap="round" stroke-linejoin="round"/>
<path d="M121 8.83038C104 6.83034 92 8.83044 74.5 17.8304C58.9883 25.8078 42 38.3304 36.5 79.8304C31 121.33 33 144.83 29 159.83C25.7382 172.062 17 173.33 12 173.33" stroke="#FCD19C" stroke-width="3" stroke-linecap="round" stroke-linejoin="round"/>
<path d="M2 182.83C6.66667 184.33 17.6195 183.074 20.5 164.83C25 136.33 26.1179 111.136 27.5 88.3304C28.5 71.8304 30.5 46.8304 62.5 25.8304" stroke="#FCD19C" stroke-width="3" stroke-linecap="round" stroke-linejoin="round"/>
<path d="M129 11.8304C143 7.33047 162.4 6.73041 170 36.3304C179.5 73.3304 182.5 174.33 192 186.33C199.6 195.93 210.5 194.664 215 192.83" stroke="#FCD19C" stroke-width="3" stroke-linecap="round" stroke-linejoin="round"/>
<path d="M127 16.3305C138 13.3304 157.5 11.8305 164 37.3305C170.249 61.8448 163.5 140.83 166.5 162.83C169.5 184.83 185 200.33 203.5 192.83" stroke="#FCD19C" stroke-width="3" stroke-linecap="round" stroke-linejoin="round"/>
<path d="M133 22.3305C146.333 18.3305 172.4 25.9304 174 90.3304C176 170.83 175.5 191.33 205 198.33" stroke="#FCD19C" stroke-width="3" stroke-linecap="round" stroke-linejoin="round"/>
<path d="M133 26.3304C151.5 27.8304 161.4 45.0304 163 67.8304C165 96.3304 144.5 163.33 163 189.83C177.8 211.03 193.833 212.33 200 210.33" stroke="#FCD19C" stroke-width="3" stroke-linecap="round" stroke-linejoin="round"/>
<path d="M90.8755 85.2758C88.4939 85.4011 83.5301 86.7046 82.7281 90.9161C81.7255 96.1806 84.8591 98.3114 85.9872 98.8128C87.1153 99.3142 94.2597 100.693 95.1371 95.8046C96.0145 90.9161 93.6329 87.5319 92.2542 86.9052C90.8755 86.2785 86.6141 88.5346 85.9872 90.9161C85.3603 93.2977 83.3552 94.3004 85.9872 95.8046C88.6193 97.3087 90.4994 99.3142 92.2542 96.3059C94.009 93.2977 93.6329 89.6627 92.2542 89.412C90.8755 89.1614 87.7419 90.0388 87.7419 91.9189C87.7419 93.7991 88.1179 96.8073 89.1206 95.8046C89.9228 95.0024 90.6248 92.8799 90.8755 91.9189" stroke="black" stroke-width="3" stroke-linecap="round" stroke-linejoin="round"/>
<path d="M140.059 83.3488C137.677 83.4741 132.714 84.7776 131.912 88.9891C130.909 94.2536 134.043 96.3844 135.171 96.8858C136.299 97.3872 143.443 98.766 144.321 93.8776C145.198 88.9891 142.816 85.6049 141.438 84.9782C140.059 84.3515 135.798 86.6076 135.171 88.9891C134.544 91.3707 132.539 92.3734 135.171 93.8776C137.803 95.3817 139.683 97.3872 141.438 94.3789C143.193 91.3707 142.816 87.7357 141.438 87.485C140.059 87.2344 136.925 88.1118 136.925 89.9919C136.925 91.8721 137.301 94.8803 138.304 93.8776C139.106 93.0754 139.808 90.9529 140.059 89.9919" stroke="black" stroke-width="3" stroke-linecap="round" stroke-linejoin="round"/>
<path d="M140.912 93.7308C140.913 93.7308 140.913 93.7308 140.913 93.7308" stroke="white" stroke-width="3" stroke-linecap="round" stroke-linejoin="round"/>
<path d="M87.7004 91.0139C87.3103 91.092 86.4911 91.1919 86.7639 91.8724C87.0367 92.553 88.0907 92.4014 88.3443 91.8724C88.5978 91.3435 88.0907 90.1555 88.0907 90.1555" stroke="white" stroke-width="3" stroke-linecap="round" stroke-linejoin="round"/>
<path d="M136.884 89.0869C136.494 89.165 135.675 89.2649 135.947 89.9454C136.22 90.626 137.274 90.4744 137.528 89.9454C137.781 89.4165 137.274 88.2285 137.274 88.2285" stroke="white" stroke-width="3" stroke-linecap="round" stroke-linejoin="round"/>
<path d="M74.538 84.6806C78.4763 80.0466 88.4382 72.1688 96.7794 77.7296" stroke="black" stroke-width="3" stroke-linecap="round" stroke-linejoin="round"/>
<path d="M127.217 78.1132C132.136 72.3258 146.851 72.0563 149.279 78.1131" stroke="black" stroke-width="3" stroke-linecap="round" stroke-linejoin="round"/>
<path d="M117.437 111.135C113.46 111.989 110.278 117.896 113.46 121.079C117.437 125.056 125.79 125.852 126.586 121.079C127.222 117.26 125.304 115.222 123.846 114.427" stroke="black" stroke-width="3" stroke-linecap="round" stroke-linejoin="round"/>
<path d="M118.202 143.913C110.952 143.913 104.188 142.821 101.17 142C102.258 144.586 107.59 150.26 118.202 150.26C130.141 150.26 134.667 144.776 136.428 142C130.532 143.822 125.452 143.913 118.202 143.913Z" stroke="black" stroke-width="3" stroke-linecap="round" stroke-linejoin="round"/>
<path d="M59.1659 61.0073C59.1659 77.4593 59.1659 93.9113 59.1659 110.363C59.1659 123.716 64.2456 135.441 73.4684 144.928C77.1758 148.741 81.6097 151.805 85.4483 155.502C86.964 156.961 88.3932 158.391 89.8491 159.902C91.1304 161.233 93.2757 163.297 94.9222 164.12C101.299 167.308 107.386 170.382 114.756 170.996C117.472 171.222 120.283 171.027 123.008 171.027C126.135 171.027 128.021 169.901 130.709 168.826C138.071 165.881 144.074 159.009 147.854 152.079C149.876 148.371 153.466 145.255 154.883 141.199C156.371 136.938 158.36 132.85 159.161 128.364C159.923 124.099 161.456 120.074 162.584 115.895C163.733 111.638 163.66 107.119 164.784 102.845C167.143 93.8834 165.885 83.6996 165.885 74.5153C165.885 70.7236 164.234 67.2238 164.234 63.5133C164.234 61.7063 164.489 59.8658 163.684 58.2568" stroke="#1E1E1E" stroke-width="3" stroke-linecap="round" stroke-linejoin="round"/>
</svg>
