<svg width="236" height="35" viewBox="0 0 236 35" fill="none" xmlns="http://www.w3.org/2000/svg">
<path d="M14.0251 25.287C13.3205 25.287 12.6917 25.1071 12.1387 24.7473C11.5895 24.3836 11.1576 23.8666 10.8432 23.1961C10.5326 22.5219 10.3773 21.7132 10.3773 20.77C10.3773 19.8268 10.5345 19.02 10.8489 18.3495C11.1671 17.6791 11.6027 17.1658 12.1557 16.8098C12.7088 16.4537 13.3357 16.2757 14.0364 16.2757C14.5781 16.2757 15.0137 16.3666 15.3432 16.5484C15.6766 16.7264 15.9341 16.9348 16.116 17.1734C16.3016 17.412 16.4455 17.6223 16.5478 17.8041H16.6501V13.4802H18.3489V25.1166H16.6898V23.7586H16.5478C16.4455 23.9442 16.2978 24.1563 16.1046 24.395C15.9152 24.6336 15.6538 24.842 15.3205 25.02C14.9872 25.198 14.5554 25.287 14.0251 25.287ZM14.4001 23.8382C14.8887 23.8382 15.3016 23.7094 15.6387 23.4518C15.9796 23.1904 16.2372 22.8287 16.4114 22.3666C16.5895 21.9045 16.6785 21.3666 16.6785 20.7529C16.6785 20.1469 16.5913 19.6166 16.4171 19.162C16.2429 18.7075 15.9872 18.3533 15.6501 18.0995C15.3129 17.8457 14.8963 17.7188 14.4001 17.7188C13.8887 17.7188 13.4626 17.8514 13.1216 18.1166C12.7807 18.3817 12.5232 18.7435 12.3489 19.2018C12.1785 19.6601 12.0932 20.1772 12.0932 20.7529C12.0932 21.3363 12.1804 21.8609 12.3546 22.3268C12.5288 22.7927 12.7864 23.162 13.1273 23.4348C13.472 23.7037 13.8963 23.8382 14.4001 23.8382ZM23.1374 25.3098C22.5844 25.3098 22.0844 25.2075 21.6374 25.0029C21.1904 24.7946 20.8363 24.4935 20.5749 24.0995C20.3173 23.7056 20.1885 23.2226 20.1885 22.6507C20.1885 22.1582 20.2832 21.7529 20.4726 21.4348C20.662 21.1166 20.9177 20.8647 21.2397 20.6791C21.5617 20.4935 21.9215 20.3533 22.3192 20.2586C22.717 20.1639 23.1223 20.092 23.5351 20.0427C24.0579 19.9821 24.4821 19.9329 24.8079 19.895C25.1336 19.8533 25.3704 19.787 25.5181 19.6961C25.6658 19.6052 25.7397 19.4575 25.7397 19.2529V19.2132C25.7397 18.717 25.5995 18.3325 25.3192 18.0598C25.0427 17.787 24.6298 17.6507 24.0806 17.6507C23.5086 17.6507 23.0579 17.7776 22.7283 18.0313C22.4026 18.2813 22.1772 18.5598 22.0522 18.8666L20.4556 18.5029C20.645 17.9726 20.9215 17.5446 21.2851 17.2188C21.6526 16.8893 22.0749 16.6507 22.5522 16.5029C23.0295 16.3514 23.5313 16.2757 24.0579 16.2757C24.4063 16.2757 24.7757 16.3173 25.1658 16.4007C25.5598 16.4802 25.9272 16.6279 26.2681 16.8438C26.6128 17.0598 26.895 17.3685 27.1147 17.77C27.3344 18.1677 27.4442 18.6848 27.4442 19.3211V25.1166H25.7851V23.9234H25.717C25.6071 24.1431 25.4423 24.359 25.2226 24.5711C25.0029 24.7832 24.7207 24.9594 24.376 25.0995C24.0313 25.2397 23.6185 25.3098 23.1374 25.3098ZM23.5067 23.9461C23.9764 23.9461 24.3779 23.8533 24.7113 23.6677C25.0484 23.4821 25.3041 23.2397 25.4783 22.9404C25.6563 22.6374 25.7454 22.3135 25.7454 21.9688V20.8438C25.6848 20.9045 25.5673 20.9613 25.3931 21.0143C25.2226 21.0635 25.0276 21.1071 24.8079 21.145C24.5882 21.1791 24.3742 21.2113 24.1658 21.2416C23.9575 21.2681 23.7832 21.2908 23.6431 21.3098C23.3135 21.3514 23.0124 21.4215 22.7397 21.52C22.4707 21.6185 22.2548 21.7605 22.092 21.9461C21.9329 22.1279 21.8533 22.3704 21.8533 22.6734C21.8533 23.0938 22.0086 23.412 22.3192 23.6279C22.6298 23.8401 23.0257 23.9461 23.5067 23.9461ZM29.531 25.1166V16.3893H31.1731V17.7757H31.264C31.4231 17.306 31.7034 16.9367 32.1049 16.6677C32.5102 16.395 32.9685 16.2586 33.4799 16.2586C33.5859 16.2586 33.7109 16.2624 33.8549 16.27C34.0026 16.2776 34.1181 16.287 34.2015 16.2984V17.9234C34.1333 17.9045 34.0121 17.8836 33.8378 17.8609C33.6636 17.8344 33.4893 17.8211 33.3151 17.8211C32.9136 17.8211 32.5556 17.9063 32.2412 18.0768C31.9306 18.2435 31.6844 18.4764 31.5026 18.7757C31.3208 19.0711 31.2299 19.4082 31.2299 19.787V25.1166H29.531ZM35.4956 25.1166V16.3893H37.1945V25.1166H35.4956ZM36.3536 15.0427C36.0581 15.0427 35.8043 14.9442 35.5922 14.7473C35.3839 14.5465 35.2797 14.3079 35.2797 14.0313C35.2797 13.751 35.3839 13.5124 35.5922 13.3154C35.8043 13.1147 36.0581 13.0143 36.3536 13.0143C36.649 13.0143 36.9009 13.1147 37.1093 13.3154C37.3214 13.5124 37.4275 13.751 37.4275 14.0313C37.4275 14.3079 37.3214 14.5465 37.1093 14.7473C36.9009 14.9442 36.649 15.0427 36.3536 15.0427ZM41.8438 25.3098C41.2908 25.3098 40.7908 25.2075 40.3438 25.0029C39.8968 24.7946 39.5426 24.4935 39.2813 24.0995C39.0237 23.7056 38.8949 23.2226 38.8949 22.6507C38.8949 22.1582 38.9896 21.7529 39.179 21.4348C39.3684 21.1166 39.6241 20.8647 39.9461 20.6791C40.268 20.4935 40.6279 20.3533 41.0256 20.2586C41.4233 20.1639 41.8286 20.092 42.2415 20.0427C42.7642 19.9821 43.1885 19.9329 43.5142 19.895C43.84 19.8533 44.0767 19.787 44.2245 19.6961C44.3722 19.6052 44.4461 19.4575 44.4461 19.2529V19.2132C44.4461 18.717 44.3059 18.3325 44.0256 18.0598C43.7491 17.787 43.3362 17.6507 42.787 17.6507C42.215 17.6507 41.7642 17.7776 41.4347 18.0313C41.1089 18.2813 40.8836 18.5598 40.7586 18.8666L39.162 18.5029C39.3514 17.9726 39.6279 17.5446 39.9915 17.2188C40.3589 16.8893 40.7813 16.6507 41.2586 16.5029C41.7358 16.3514 42.2377 16.2757 42.7642 16.2757C43.1127 16.2757 43.482 16.3173 43.8722 16.4007C44.2661 16.4802 44.6336 16.6279 44.9745 16.8438C45.3192 17.0598 45.6014 17.3685 45.8211 17.77C46.0408 18.1677 46.1506 18.6848 46.1506 19.3211V25.1166H44.4915V23.9234H44.4233C44.3135 24.1431 44.1487 24.359 43.929 24.5711C43.7093 24.7832 43.4271 24.9594 43.0824 25.0995C42.7377 25.2397 42.3248 25.3098 41.8438 25.3098ZM42.2131 23.9461C42.6828 23.9461 43.0843 23.8533 43.4176 23.6677C43.7548 23.4821 44.0105 23.2397 44.1847 22.9404C44.3627 22.6374 44.4517 22.3135 44.4517 21.9688V20.8438C44.3911 20.9045 44.2737 20.9613 44.0995 21.0143C43.929 21.0635 43.7339 21.1071 43.5142 21.145C43.2945 21.1791 43.0805 21.2113 42.8722 21.2416C42.6639 21.2681 42.4896 21.2908 42.3495 21.3098C42.0199 21.3514 41.7188 21.4215 41.4461 21.52C41.1771 21.6185 40.9612 21.7605 40.7983 21.9461C40.6392 22.1279 40.5597 22.3704 40.5597 22.6734C40.5597 23.0938 40.715 23.412 41.0256 23.6279C41.3362 23.8401 41.732 23.9461 42.2131 23.9461ZM55.3908 16.3893L52.226 25.1166H50.4078L47.2374 16.3893H49.0612L51.2715 23.1052H51.3624L53.5669 16.3893H55.3908ZM59.1012 25.3098C58.5481 25.3098 58.0481 25.2075 57.6012 25.0029C57.1542 24.7946 56.8 24.4935 56.5387 24.0995C56.2811 23.7056 56.1523 23.2226 56.1523 22.6507C56.1523 22.1582 56.247 21.7529 56.4364 21.4348C56.6258 21.1166 56.8815 20.8647 57.2034 20.6791C57.5254 20.4935 57.8853 20.3533 58.283 20.2586C58.6807 20.1639 59.086 20.092 59.4989 20.0427C60.0216 19.9821 60.4459 19.9329 60.7716 19.895C61.0974 19.8533 61.3341 19.787 61.4818 19.6961C61.6296 19.6052 61.7034 19.4575 61.7034 19.2529V19.2132C61.7034 18.717 61.5633 18.3325 61.283 18.0598C61.0065 17.787 60.5936 17.6507 60.0443 17.6507C59.4724 17.6507 59.0216 17.7776 58.6921 18.0313C58.3663 18.2813 58.1409 18.5598 58.0159 18.8666L56.4193 18.5029C56.6087 17.9726 56.8853 17.5446 57.2489 17.2188C57.6163 16.8893 58.0387 16.6507 58.5159 16.5029C58.9932 16.3514 59.4951 16.2757 60.0216 16.2757C60.3701 16.2757 60.7394 16.3173 61.1296 16.4007C61.5235 16.4802 61.8909 16.6279 62.2318 16.8438C62.5765 17.0598 62.8587 17.3685 63.0784 17.77C63.2981 18.1677 63.408 18.6848 63.408 19.3211V25.1166H61.7489V23.9234H61.6807C61.5709 24.1431 61.4061 24.359 61.1864 24.5711C60.9667 24.7832 60.6845 24.9594 60.3398 25.0995C59.9951 25.2397 59.5822 25.3098 59.1012 25.3098ZM59.4705 23.9461C59.9402 23.9461 60.3417 23.8533 60.675 23.6677C61.0121 23.4821 61.2678 23.2397 61.4421 22.9404C61.6201 22.6374 61.7091 22.3135 61.7091 21.9688V20.8438C61.6485 20.9045 61.5311 20.9613 61.3568 21.0143C61.1864 21.0635 60.9913 21.1071 60.7716 21.145C60.5519 21.1791 60.3379 21.2113 60.1296 21.2416C59.9212 21.2681 59.747 21.2908 59.6068 21.3098C59.2773 21.3514 58.9762 21.4215 58.7034 21.52C58.4345 21.6185 58.2186 21.7605 58.0557 21.9461C57.8966 22.1279 57.8171 22.3704 57.8171 22.6734C57.8171 23.0938 57.9724 23.412 58.283 23.6279C58.5936 23.8401 58.9894 23.9461 59.4705 23.9461ZM65.4948 25.1166V16.3893H67.1368V17.7757H67.2277C67.3868 17.306 67.6671 16.9367 68.0686 16.6677C68.4739 16.395 68.9323 16.2586 69.4436 16.2586C69.5497 16.2586 69.6747 16.2624 69.8186 16.27C69.9664 16.2776 70.0819 16.287 70.1652 16.2984V17.9234C70.097 17.9045 69.9758 17.8836 69.8016 17.8609C69.6273 17.8344 69.4531 17.8211 69.2789 17.8211C68.8773 17.8211 68.5194 17.9063 68.205 18.0768C67.8944 18.2435 67.6482 18.4764 67.4664 18.7757C67.2845 19.0711 67.1936 19.4082 67.1936 19.787V25.1166H65.4948ZM73.1583 13.4802V25.1166H71.4594V13.4802H73.1583ZM77.8075 25.3098C77.2545 25.3098 76.7545 25.2075 76.3075 25.0029C75.8606 24.7946 75.5064 24.4935 75.245 24.0995C74.9875 23.7056 74.8587 23.2226 74.8587 22.6507C74.8587 22.1582 74.9534 21.7529 75.1428 21.4348C75.3322 21.1166 75.5878 20.8647 75.9098 20.6791C76.2318 20.4935 76.5916 20.3533 76.9894 20.2586C77.3871 20.1639 77.7924 20.092 78.2053 20.0427C78.728 19.9821 79.1522 19.9329 79.478 19.895C79.8037 19.8533 80.0405 19.787 80.1882 19.6961C80.3359 19.6052 80.4098 19.4575 80.4098 19.2529V19.2132C80.4098 18.717 80.2697 18.3325 79.9894 18.0598C79.7128 17.787 79.3 17.6507 78.7507 17.6507C78.1787 17.6507 77.728 17.7776 77.3984 18.0313C77.0727 18.2813 76.8473 18.5598 76.7223 18.8666L75.1257 18.5029C75.3151 17.9726 75.5916 17.5446 75.9553 17.2188C76.3227 16.8893 76.745 16.6507 77.2223 16.5029C77.6996 16.3514 78.2015 16.2757 78.728 16.2757C79.0765 16.2757 79.4458 16.3173 79.8359 16.4007C80.2299 16.4802 80.5973 16.6279 80.9382 16.8438C81.2829 17.0598 81.5651 17.3685 81.7848 17.77C82.0045 18.1677 82.1144 18.6848 82.1144 19.3211V25.1166H80.4553V23.9234H80.3871C80.2772 24.1431 80.1125 24.359 79.8928 24.5711C79.6731 24.7832 79.3909 24.9594 79.0462 25.0995C78.7015 25.2397 78.2886 25.3098 77.8075 25.3098ZM78.1769 23.9461C78.6466 23.9461 79.0481 23.8533 79.3814 23.6677C79.7185 23.4821 79.9742 23.2397 80.1484 22.9404C80.3265 22.6374 80.4155 22.3135 80.4155 21.9688V20.8438C80.3549 20.9045 80.2375 20.9613 80.0632 21.0143C79.8928 21.0635 79.6977 21.1071 79.478 21.145C79.2583 21.1791 79.0443 21.2113 78.8359 21.2416C78.6276 21.2681 78.4534 21.2908 78.3132 21.3098C77.9837 21.3514 77.6825 21.4215 77.4098 21.52C77.1409 21.6185 76.925 21.7605 76.7621 21.9461C76.603 22.1279 76.5234 22.3704 76.5234 22.6734C76.5234 23.0938 76.6787 23.412 76.9894 23.6279C77.3 23.8401 77.6958 23.9461 78.1769 23.9461ZM84.2011 25.1166V16.3893H85.8318V17.8098H85.9398C86.1216 17.3287 86.4189 16.9537 86.8318 16.6848C87.2447 16.412 87.739 16.2757 88.3148 16.2757C88.8981 16.2757 89.3867 16.412 89.7807 16.6848C90.1784 16.9575 90.472 17.3325 90.6614 17.8098H90.7523C90.9606 17.3438 91.292 16.9726 91.7466 16.6961C92.2011 16.4158 92.7428 16.2757 93.3716 16.2757C94.1633 16.2757 94.8091 16.5238 95.3091 17.02C95.8129 17.5162 96.0648 18.2643 96.0648 19.2643V25.1166H94.3659V19.4234C94.3659 18.8325 94.2049 18.4045 93.883 18.1393C93.561 17.8742 93.1765 17.7416 92.7295 17.7416C92.1765 17.7416 91.7466 17.912 91.4398 18.2529C91.133 18.5901 90.9795 19.0238 90.9795 19.5541V25.1166H89.2864V19.3154C89.2864 18.842 89.1386 18.4613 88.8432 18.1734C88.5477 17.8855 88.1633 17.7416 87.6898 17.7416C87.3678 17.7416 87.0705 17.8268 86.7977 17.9973C86.5288 18.1639 86.311 18.3969 86.1443 18.6961C85.9814 18.9954 85.9 19.342 85.9 19.7359V25.1166H84.2011ZM101.842 25.2927C101.024 25.2927 100.31 25.1052 99.6999 24.7302C99.09 24.3552 98.6165 23.8306 98.2794 23.1563C97.9423 22.4821 97.7737 21.6942 97.7737 20.7927C97.7737 19.8874 97.9423 19.0957 98.2794 18.4177C98.6165 17.7397 99.09 17.2132 99.6999 16.8382C100.31 16.4632 101.024 16.2757 101.842 16.2757C102.66 16.2757 103.374 16.4632 103.984 16.8382C104.594 17.2132 105.067 17.7397 105.404 18.4177C105.742 19.0957 105.91 19.8874 105.91 20.7927C105.91 21.6942 105.742 22.4821 105.404 23.1563C105.067 23.8306 104.594 24.3552 103.984 24.7302C103.374 25.1052 102.66 25.2927 101.842 25.2927ZM101.848 23.8666C102.378 23.8666 102.817 23.7264 103.166 23.4461C103.514 23.1658 103.772 22.7927 103.938 22.3268C104.109 21.8609 104.194 21.3476 104.194 20.787C104.194 20.2302 104.109 19.7188 103.938 19.2529C103.772 18.7832 103.514 18.4063 103.166 18.1223C102.817 17.8382 102.378 17.6961 101.848 17.6961C101.313 17.6961 100.87 17.8382 100.518 18.1223C100.17 18.4063 99.9101 18.7832 99.7396 19.2529C99.573 19.7188 99.4896 20.2302 99.4896 20.787C99.4896 21.3476 99.573 21.8609 99.7396 22.3268C99.9101 22.7927 100.17 23.1658 100.518 23.4461C100.87 23.7264 101.313 23.8666 101.848 23.8666ZM114.799 16.3893L111.635 25.1166H109.816L106.646 16.3893H108.47L110.68 23.1052H110.771L112.976 16.3893H114.799ZM118.51 25.3098C117.957 25.3098 117.457 25.2075 117.01 25.0029C116.563 24.7946 116.209 24.4935 115.947 24.0995C115.69 23.7056 115.561 23.2226 115.561 22.6507C115.561 22.1582 115.656 21.7529 115.845 21.4348C116.034 21.1166 116.29 20.8647 116.612 20.6791C116.934 20.4935 117.294 20.3533 117.692 20.2586C118.089 20.1639 118.495 20.092 118.908 20.0427C119.43 19.9821 119.854 19.9329 120.18 19.895C120.506 19.8533 120.743 19.787 120.89 19.6961C121.038 19.6052 121.112 19.4575 121.112 19.2529V19.2132C121.112 18.717 120.972 18.3325 120.692 18.0598C120.415 17.787 120.002 17.6507 119.453 17.6507C118.881 17.6507 118.43 17.7776 118.101 18.0313C117.775 18.2813 117.55 18.5598 117.425 18.8666L115.828 18.5029C116.017 17.9726 116.294 17.5446 116.658 17.2188C117.025 16.8893 117.447 16.6507 117.925 16.5029C118.402 16.3514 118.904 16.2757 119.43 16.2757C119.779 16.2757 120.148 16.3173 120.538 16.4007C120.932 16.4802 121.3 16.6279 121.64 16.8438C121.985 17.0598 122.267 17.3685 122.487 17.77C122.707 18.1677 122.817 18.6848 122.817 19.3211V25.1166H121.158V23.9234H121.089C120.979 24.1431 120.815 24.359 120.595 24.5711C120.375 24.7832 120.093 24.9594 119.748 25.0995C119.404 25.2397 118.991 25.3098 118.51 25.3098ZM118.879 23.9461C119.349 23.9461 119.75 23.8533 120.084 23.6677C120.421 23.4821 120.676 23.2397 120.851 22.9404C121.029 22.6374 121.118 22.3135 121.118 21.9688V20.8438C121.057 20.9045 120.94 20.9613 120.765 21.0143C120.595 21.0635 120.4 21.1071 120.18 21.145C119.961 21.1791 119.747 21.2113 119.538 21.2416C119.33 21.2681 119.156 21.2908 119.015 21.3098C118.686 21.3514 118.385 21.4215 118.112 21.52C117.843 21.6185 117.627 21.7605 117.464 21.9461C117.305 22.1279 117.226 22.3704 117.226 22.6734C117.226 23.0938 117.381 23.412 117.692 23.6279C118.002 23.8401 118.398 23.9461 118.879 23.9461ZM127.443 25.3098C126.89 25.3098 126.39 25.2075 125.943 25.0029C125.496 24.7946 125.142 24.4935 124.881 24.0995C124.623 23.7056 124.494 23.2226 124.494 22.6507C124.494 22.1582 124.589 21.7529 124.778 21.4348C124.968 21.1166 125.223 20.8647 125.545 20.6791C125.867 20.4935 126.227 20.3533 126.625 20.2586C127.023 20.1639 127.428 20.092 127.841 20.0427C128.364 19.9821 128.788 19.9329 129.114 19.895C129.439 19.8533 129.676 19.787 129.824 19.6961C129.972 19.6052 130.045 19.4575 130.045 19.2529V19.2132C130.045 18.717 129.905 18.3325 129.625 18.0598C129.348 17.787 128.936 17.6507 128.386 17.6507C127.814 17.6507 127.364 17.7776 127.034 18.0313C126.708 18.2813 126.483 18.5598 126.358 18.8666L124.761 18.5029C124.951 17.9726 125.227 17.5446 125.591 17.2188C125.958 16.8893 126.381 16.6507 126.858 16.5029C127.335 16.3514 127.837 16.2757 128.364 16.2757C128.712 16.2757 129.081 16.3173 129.472 16.4007C129.866 16.4802 130.233 16.6279 130.574 16.8438C130.919 17.0598 131.201 17.3685 131.42 17.77C131.64 18.1677 131.75 18.6848 131.75 19.3211V25.1166H130.091V23.9234H130.023C129.913 24.1431 129.748 24.359 129.528 24.5711C129.309 24.7832 129.026 24.9594 128.682 25.0995C128.337 25.2397 127.924 25.3098 127.443 25.3098ZM127.812 23.9461C128.282 23.9461 128.684 23.8533 129.017 23.6677C129.354 23.4821 129.61 23.2397 129.784 22.9404C129.962 22.6374 130.051 22.3135 130.051 21.9688V20.8438C129.991 20.9045 129.873 20.9613 129.699 21.0143C129.528 21.0635 129.333 21.1071 129.114 21.145C128.894 21.1791 128.68 21.2113 128.472 21.2416C128.263 21.2681 128.089 21.2908 127.949 21.3098C127.619 21.3514 127.318 21.4215 127.045 21.52C126.776 21.6185 126.561 21.7605 126.398 21.9461C126.239 22.1279 126.159 22.3704 126.159 22.6734C126.159 23.0938 126.314 23.412 126.625 23.6279C126.936 23.8401 127.331 23.9461 127.812 23.9461ZM140.842 28.2813C139.668 28.2813 138.627 28.1204 137.717 27.7984C136.812 27.4802 136.049 27.0105 135.428 26.3893C134.806 25.7719 134.335 25.0143 134.013 24.1166C133.691 23.2188 133.53 22.1942 133.53 21.0427C133.53 19.9215 133.693 18.9139 134.019 18.02C134.344 17.126 134.818 16.3647 135.439 15.7359C136.064 15.1033 136.824 14.6204 137.717 14.287C138.611 13.9537 139.627 13.787 140.763 13.787C141.85 13.787 142.808 13.9575 143.638 14.2984C144.467 14.6393 145.164 15.1071 145.729 15.7018C146.297 16.2965 146.725 16.9783 147.013 17.7473C147.301 18.5162 147.445 19.3287 147.445 20.1848C147.445 20.7832 147.407 21.3685 147.331 21.9404C147.255 22.5086 147.115 23.0238 146.911 23.4859C146.71 23.9442 146.418 24.3117 146.036 24.5882C145.657 24.8609 145.164 25.0029 144.558 25.0143C144.236 25.0257 143.924 24.9878 143.621 24.9007C143.318 24.8135 143.06 24.6734 142.848 24.4802C142.636 24.2832 142.507 24.0332 142.462 23.7302H142.394C142.303 23.9537 142.151 24.162 141.939 24.3552C141.727 24.5446 141.456 24.6961 141.127 24.8098C140.801 24.9196 140.422 24.9651 139.99 24.9461C139.513 24.9272 139.083 24.8192 138.7 24.6223C138.318 24.4253 137.99 24.1526 137.717 23.8041C137.449 23.4556 137.242 23.0427 137.098 22.5654C136.954 22.0882 136.882 21.5579 136.882 20.9745C136.882 20.4139 136.964 19.912 137.127 19.4688C137.289 19.0219 137.511 18.6374 137.791 18.3154C138.075 17.9897 138.401 17.7321 138.769 17.5427C139.136 17.3533 139.524 17.234 139.933 17.1848C140.331 17.1393 140.697 17.1507 141.03 17.2188C141.363 17.287 141.64 17.3912 141.859 17.5313C142.083 17.6715 142.223 17.8249 142.28 17.9916H142.354V17.3552H143.752V22.6279C143.752 22.9272 143.829 23.181 143.984 23.3893C144.144 23.5976 144.369 23.7018 144.661 23.7018C145.005 23.7018 145.274 23.5749 145.467 23.3211C145.664 23.0673 145.803 22.6772 145.882 22.1507C145.966 21.6242 146.007 20.9499 146.007 20.1279C146.007 19.5522 145.93 19.0105 145.774 18.5029C145.623 17.9916 145.397 17.5295 145.098 17.1166C144.803 16.6999 144.439 16.342 144.007 16.0427C143.575 15.7435 143.083 15.5124 142.53 15.3495C141.981 15.1867 141.373 15.1052 140.706 15.1052C139.801 15.1052 138.996 15.2454 138.291 15.5257C137.587 15.8022 136.992 16.2018 136.507 16.7245C136.026 17.2473 135.661 17.8742 135.411 18.6052C135.164 19.3325 135.041 20.1488 135.041 21.0541C135.041 21.9973 135.168 22.8344 135.422 23.5654C135.676 24.2927 136.051 24.9063 136.547 25.4063C137.043 25.9063 137.657 26.2851 138.388 26.5427C139.119 26.8041 139.962 26.9348 140.916 26.9348C141.341 26.9348 141.757 26.8969 142.166 26.8211C142.575 26.7492 142.939 26.6658 143.257 26.5711C143.579 26.4802 143.82 26.4063 143.979 26.3495L144.377 27.5938C144.142 27.7037 143.829 27.8117 143.439 27.9177C143.053 28.0238 142.632 28.1109 142.178 28.1791C141.727 28.2473 141.282 28.2813 140.842 28.2813ZM140.32 23.5541C140.812 23.5541 141.208 23.4556 141.507 23.2586C141.81 23.0617 142.028 22.7681 142.161 22.3779C142.297 21.984 142.365 21.4916 142.365 20.9007C142.361 20.3249 142.288 19.8666 142.144 19.5257C142.003 19.181 141.784 18.9348 141.484 18.787C141.189 18.6355 140.808 18.5598 140.342 18.5598C139.914 18.5598 139.549 18.6639 139.246 18.8723C138.947 19.0806 138.717 19.3628 138.558 19.7188C138.403 20.0749 138.324 20.4707 138.32 20.9063C138.324 21.3647 138.388 21.7965 138.513 22.2018C138.642 22.6033 138.85 22.9291 139.138 23.1791C139.43 23.4291 139.824 23.5541 140.32 23.5541ZM152.804 28.5711C152.111 28.5711 151.514 28.4802 151.014 28.2984C150.518 28.1166 150.113 27.876 149.799 27.5768C149.484 27.2776 149.249 26.9499 149.094 26.5938L150.554 25.9916C150.657 26.1582 150.793 26.3344 150.963 26.52C151.138 26.7094 151.372 26.8704 151.668 27.0029C151.967 27.1355 152.352 27.2018 152.821 27.2018C153.465 27.2018 153.997 27.0446 154.418 26.7302C154.838 26.4196 155.049 25.9234 155.049 25.2416V23.5257H154.941C154.838 23.7113 154.691 23.9177 154.497 24.145C154.308 24.3723 154.047 24.5692 153.713 24.7359C153.38 24.9026 152.946 24.9859 152.412 24.9859C151.723 24.9859 151.102 24.8249 150.549 24.5029C149.999 24.1772 149.564 23.698 149.242 23.0654C148.924 22.4291 148.764 21.6469 148.764 20.7188C148.764 19.7908 148.922 18.9954 149.236 18.3325C149.554 17.6696 149.99 17.162 150.543 16.8098C151.096 16.4537 151.723 16.2757 152.424 16.2757C152.965 16.2757 153.403 16.3666 153.736 16.5484C154.069 16.7264 154.329 16.9348 154.514 17.1734C154.704 17.412 154.85 17.6223 154.952 17.8041H155.077V16.3893H156.742V25.3098C156.742 26.0598 156.567 26.6753 156.219 27.1563C155.871 27.6374 155.399 27.9935 154.804 28.2245C154.213 28.4556 153.547 28.5711 152.804 28.5711ZM152.787 23.5768C153.276 23.5768 153.689 23.4632 154.026 23.2359C154.367 23.0048 154.624 22.6753 154.799 22.2473C154.977 21.8154 155.066 21.2984 155.066 20.6961C155.066 20.109 154.978 19.592 154.804 19.145C154.63 18.698 154.374 18.3495 154.037 18.0995C153.7 17.8457 153.283 17.7188 152.787 17.7188C152.276 17.7188 151.85 17.8514 151.509 18.1166C151.168 18.3779 150.91 18.734 150.736 19.1848C150.566 19.6355 150.48 20.1393 150.48 20.6961C150.48 21.2681 150.567 21.77 150.742 22.2018C150.916 22.6336 151.174 22.9707 151.514 23.2132C151.859 23.4556 152.283 23.5768 152.787 23.5768ZM158.844 25.1166V16.3893H160.475V17.8098H160.583C160.765 17.3287 161.062 16.9537 161.475 16.6848C161.888 16.412 162.382 16.2757 162.958 16.2757C163.541 16.2757 164.03 16.412 164.424 16.6848C164.821 16.9575 165.115 17.3325 165.304 17.8098H165.395C165.604 17.3438 165.935 16.9726 166.39 16.6961C166.844 16.4158 167.386 16.2757 168.015 16.2757C168.806 16.2757 169.452 16.5238 169.952 17.02C170.456 17.5162 170.708 18.2643 170.708 19.2643V25.1166H169.009V19.4234C169.009 18.8325 168.848 18.4045 168.526 18.1393C168.204 17.8742 167.82 17.7416 167.373 17.7416C166.82 17.7416 166.39 17.912 166.083 18.2529C165.776 18.5901 165.623 19.0238 165.623 19.5541V25.1166H163.929V19.3154C163.929 18.842 163.782 18.4613 163.486 18.1734C163.191 17.8855 162.806 17.7416 162.333 17.7416C162.011 17.7416 161.713 17.8268 161.441 17.9973C161.172 18.1639 160.954 18.3969 160.787 18.6961C160.624 18.9954 160.543 19.342 160.543 19.7359V25.1166H158.844ZM175.349 25.3098C174.796 25.3098 174.296 25.2075 173.849 25.0029C173.402 24.7946 173.047 24.4935 172.786 24.0995C172.528 23.7056 172.4 23.2226 172.4 22.6507C172.4 22.1582 172.494 21.7529 172.684 21.4348C172.873 21.1166 173.129 20.8647 173.451 20.6791C173.773 20.4935 174.133 20.3533 174.53 20.2586C174.928 20.1639 175.333 20.092 175.746 20.0427C176.269 19.9821 176.693 19.9329 177.019 19.895C177.345 19.8533 177.581 19.787 177.729 19.6961C177.877 19.6052 177.951 19.4575 177.951 19.2529V19.2132C177.951 18.717 177.811 18.3325 177.53 18.0598C177.254 17.787 176.841 17.6507 176.292 17.6507C175.72 17.6507 175.269 17.7776 174.939 18.0313C174.614 18.2813 174.388 18.5598 174.263 18.8666L172.667 18.5029C172.856 17.9726 173.133 17.5446 173.496 17.2188C173.864 16.8893 174.286 16.6507 174.763 16.5029C175.241 16.3514 175.742 16.2757 176.269 16.2757C176.617 16.2757 176.987 16.3173 177.377 16.4007C177.771 16.4802 178.138 16.6279 178.479 16.8438C178.824 17.0598 179.106 17.3685 179.326 17.77C179.546 18.1677 179.655 18.6848 179.655 19.3211V25.1166H177.996V23.9234H177.928C177.818 24.1431 177.653 24.359 177.434 24.5711C177.214 24.7832 176.932 24.9594 176.587 25.0995C176.242 25.2397 175.83 25.3098 175.349 25.3098ZM175.718 23.9461C176.188 23.9461 176.589 23.8533 176.922 23.6677C177.26 23.4821 177.515 23.2397 177.689 22.9404C177.867 22.6374 177.956 22.3135 177.956 21.9688V20.8438C177.896 20.9045 177.778 20.9613 177.604 21.0143C177.434 21.0635 177.239 21.1071 177.019 21.145C176.799 21.1791 176.585 21.2113 176.377 21.2416C176.169 21.2681 175.994 21.2908 175.854 21.3098C175.525 21.3514 175.224 21.4215 174.951 21.52C174.682 21.6185 174.466 21.7605 174.303 21.9461C174.144 22.1279 174.064 22.3704 174.064 22.6734C174.064 23.0938 174.22 23.412 174.53 23.6279C174.841 23.8401 175.237 23.9461 175.718 23.9461ZM181.742 25.1166V16.3893H183.441V25.1166H181.742ZM182.6 15.0427C182.305 15.0427 182.051 14.9442 181.839 14.7473C181.63 14.5465 181.526 14.3079 181.526 14.0313C181.526 13.751 181.63 13.5124 181.839 13.3154C182.051 13.1147 182.305 13.0143 182.6 13.0143C182.896 13.0143 183.147 13.1147 183.356 13.3154C183.568 13.5124 183.674 13.751 183.674 14.0313C183.674 14.3079 183.568 14.5465 183.356 14.7473C183.147 14.9442 182.896 15.0427 182.6 15.0427ZM187.249 13.4802V25.1166H185.551V13.4802H187.249ZM190.478 25.2245C190.168 25.2245 189.901 25.1147 189.677 24.895C189.454 24.6715 189.342 24.4026 189.342 24.0882C189.342 23.7776 189.454 23.5124 189.677 23.2927C189.901 23.0692 190.168 22.9575 190.478 22.9575C190.789 22.9575 191.056 23.0692 191.279 23.2927C191.503 23.5124 191.615 23.7776 191.615 24.0882C191.615 24.2965 191.562 24.4878 191.455 24.662C191.353 24.8325 191.217 24.9688 191.046 25.0711C190.876 25.1734 190.687 25.2245 190.478 25.2245ZM197.39 25.2927C196.546 25.2927 195.818 25.1014 195.208 24.7188C194.602 24.3325 194.136 23.8003 193.811 23.1223C193.485 22.4442 193.322 21.6677 193.322 20.7927C193.322 19.9063 193.489 19.1242 193.822 18.4461C194.155 17.7643 194.625 17.2321 195.231 16.8495C195.837 16.467 196.551 16.2757 197.373 16.2757C198.036 16.2757 198.627 16.3988 199.146 16.645C199.665 16.8874 200.083 17.2283 200.402 17.6677C200.724 18.1071 200.915 18.6204 200.976 19.2075H199.322C199.231 18.7984 199.023 18.4461 198.697 18.1507C198.375 17.8552 197.943 17.7075 197.402 17.7075C196.928 17.7075 196.513 17.8325 196.157 18.0825C195.805 18.3287 195.53 18.681 195.333 19.1393C195.136 19.5938 195.038 20.1317 195.038 20.7529C195.038 21.3893 195.135 21.9385 195.328 22.4007C195.521 22.8628 195.794 23.2207 196.146 23.4745C196.502 23.7283 196.921 23.8552 197.402 23.8552C197.724 23.8552 198.015 23.7965 198.277 23.6791C198.542 23.5579 198.763 23.3855 198.941 23.162C199.123 22.9385 199.25 22.6696 199.322 22.3552H200.976C200.915 22.9196 200.731 23.4234 200.424 23.8666C200.118 24.3098 199.707 24.6582 199.191 24.912C198.68 25.1658 198.08 25.2927 197.39 25.2927ZM206.292 25.2927C205.474 25.2927 204.76 25.1052 204.15 24.7302C203.541 24.3552 203.067 23.8306 202.73 23.1563C202.393 22.4821 202.224 21.6942 202.224 20.7927C202.224 19.8874 202.393 19.0957 202.73 18.4177C203.067 17.7397 203.541 17.2132 204.15 16.8382C204.76 16.4632 205.474 16.2757 206.292 16.2757C207.111 16.2757 207.825 16.4632 208.434 16.8382C209.044 17.2132 209.518 17.7397 209.855 18.4177C210.192 19.0957 210.361 19.8874 210.361 20.7927C210.361 21.6942 210.192 22.4821 209.855 23.1563C209.518 23.8306 209.044 24.3552 208.434 24.7302C207.825 25.1052 207.111 25.2927 206.292 25.2927ZM206.298 23.8666C206.828 23.8666 207.268 23.7264 207.616 23.4461C207.965 23.1658 208.222 22.7927 208.389 22.3268C208.559 21.8609 208.645 21.3476 208.645 20.787C208.645 20.2302 208.559 19.7188 208.389 19.2529C208.222 18.7832 207.965 18.4063 207.616 18.1223C207.268 17.8382 206.828 17.6961 206.298 17.6961C205.764 17.6961 205.321 17.8382 204.969 18.1223C204.62 18.4063 204.361 18.7832 204.19 19.2529C204.023 19.7188 203.94 20.2302 203.94 20.787C203.94 21.3476 204.023 21.8609 204.19 22.3268C204.361 22.7927 204.62 23.1658 204.969 23.4461C205.321 23.7264 205.764 23.8666 206.298 23.8666ZM212.081 25.1166V16.3893H213.712V17.8098H213.82C214.001 17.3287 214.299 16.9537 214.712 16.6848C215.124 16.412 215.619 16.2757 216.195 16.2757C216.778 16.2757 217.266 16.412 217.66 16.6848C218.058 16.9575 218.352 17.3325 218.541 17.8098H218.632C218.84 17.3438 219.172 16.9726 219.626 16.6961C220.081 16.4158 220.623 16.2757 221.251 16.2757C222.043 16.2757 222.689 16.5238 223.189 17.02C223.693 17.5162 223.945 18.2643 223.945 19.2643V25.1166H222.246V19.4234C222.246 18.8325 222.085 18.4045 221.763 18.1393C221.441 17.8742 221.056 17.7416 220.609 17.7416C220.056 17.7416 219.626 17.912 219.32 18.2529C219.013 18.5901 218.859 19.0238 218.859 19.5541V25.1166H217.166V19.3154C217.166 18.842 217.018 18.4613 216.723 18.1734C216.427 17.8855 216.043 17.7416 215.57 17.7416C215.248 17.7416 214.95 17.8268 214.677 17.9973C214.409 18.1639 214.191 18.3969 214.024 18.6961C213.861 18.9954 213.78 19.342 213.78 19.7359V25.1166H212.081Z" fill="#1E1E1E"/>
<path d="M2.20141 19.7615C2.20141 16.6726 2.20141 13.5836 2.20141 10.4946C2.20141 6.90768 0.892716 3.77616 4.94715 3.54448C7.15172 3.4185 8.84095 2 11.2967 2C13.1558 2 15.0149 2 16.874 2C19.9629 2 23.0519 2 26.1408 2" stroke="#5E803D" stroke-width="3" stroke-linecap="round" stroke-linejoin="round"/>
<path d="M233.348 15.6679C233.348 18.7569 233.348 21.8458 233.348 24.9348C233.348 28.5218 234.657 31.6533 230.603 31.885C228.398 32.0109 226.709 33.4294 224.253 33.4294C222.394 33.4294 220.535 33.4294 218.676 33.4294C215.587 33.4294 212.498 33.4294 209.409 33.4294" stroke="#5E803D" stroke-width="3" stroke-linecap="round" stroke-linejoin="round"/>
</svg>
