<svg width="163" height="27" viewBox="0 0 163 27" fill="none" xmlns="http://www.w3.org/2000/svg">
<path d="M23.375 2.55859C23.375 3.55469 22.4961 4.43359 21.5 4.43359H14V25.0586C14 26.0547 13.1211 26.875 12.125 26.875C11.0703 26.875 10.25 26.0547 10.25 25.0586V4.43359H2.75C1.69531 4.43359 0.875 3.55469 0.875 2.55859C0.875 1.50391 1.69531 0.683594 2.75 0.683594H21.5C22.4961 0.683594 23.375 1.50391 23.375 2.55859ZM36.5 0.683594C43.707 0.683594 49.625 6.54297 49.625 13.8086C49.625 21.0156 43.707 26.9336 36.5 26.9336C29.2344 26.9336 23.375 21.0156 23.375 13.8086C23.375 6.54297 29.2344 0.683594 36.5 0.683594ZM36.5 23.125C41.6562 23.125 45.875 18.9062 45.875 13.75C45.875 8.65234 41.6562 4.43359 36.5 4.43359C31.2852 4.43359 27.125 8.59375 27.125 13.75C27.125 18.9648 31.2852 23.125 36.5 23.125ZM62.75 0.683594C69.957 0.683594 75.875 6.54297 75.875 13.8086C75.875 21.0156 69.957 26.9336 62.75 26.9336C55.4844 26.9336 49.625 21.0156 49.625 13.8086C49.625 6.54297 55.4844 0.683594 62.75 0.683594ZM62.75 23.125C67.9062 23.125 72.125 18.9062 72.125 13.75C72.125 8.65234 67.9062 4.43359 62.75 4.43359C57.5352 4.43359 53.375 8.59375 53.375 13.75C53.375 18.9648 57.5352 23.125 62.75 23.125ZM94.625 25C94.625 26.0547 93.7461 26.875 92.75 26.875H79.625C78.5703 26.875 77.75 26.0547 77.75 25V2.5C77.75 1.50391 78.5703 0.683594 79.625 0.683594C80.6211 0.683594 81.5 1.50391 81.5 2.55859V23.1836H92.75C93.7461 23.125 94.625 24.0039 94.625 25ZM109.684 12.9883C111.852 14.2773 113.375 16.6797 113.375 19.375C113.375 23.5352 109.977 26.875 105.875 26.875H96.5C95.4453 26.875 94.625 26.0547 94.625 25V2.5C94.625 1.50391 95.4453 0.625 96.5 0.625H104C108.102 0.625 111.5 4.02344 111.5 8.125C111.5 10 110.797 11.6992 109.684 12.9883ZM98.375 4.43359V11.9336H104C106.051 11.9336 107.75 10.2344 107.75 8.18359C107.75 6.07422 106.051 4.43359 104 4.43359H98.375ZM105.875 23.125C107.926 23.125 109.625 21.4844 109.625 19.375C109.625 17.3242 107.926 15.625 105.875 15.625H98.375V23.125H105.875ZM126.5 0.683594C133.707 0.683594 139.625 6.54297 139.625 13.8086C139.625 21.0156 133.707 26.9336 126.5 26.9336C119.234 26.9336 113.375 21.0156 113.375 13.8086C113.375 6.54297 119.234 0.683594 126.5 0.683594ZM126.5 23.125C131.656 23.125 135.875 18.9062 135.875 13.75C135.875 8.65234 131.656 4.43359 126.5 4.43359C121.285 4.43359 117.125 8.59375 117.125 13.75C117.125 18.9648 121.285 23.125 126.5 23.125ZM161.656 23.8281C162.301 24.6484 162.242 25.8203 161.422 26.4648C161.07 26.7578 160.66 26.875 160.25 26.875C159.664 26.875 159.137 26.6992 158.785 26.2305L150.875 16.6797L142.906 26.1719C142.555 26.6406 142.027 26.875 141.5 26.875C141.031 26.875 140.621 26.6992 140.27 26.4062C139.449 25.7617 139.391 24.5898 140.035 23.7695L148.414 13.75L140.035 3.73047C139.391 2.91016 139.449 1.73828 140.27 1.09375C141.09 0.449219 142.262 0.507812 142.906 1.32812L150.875 10.8203L158.785 1.32812C159.43 0.507812 160.602 0.449219 161.422 1.09375C162.242 1.73828 162.301 2.91016 161.656 3.73047L153.277 13.75L161.656 23.8281Z" fill="#5E803D"/>
</svg>
