<svg width="161" height="26" viewBox="0 0 161 26" fill="none" xmlns="http://www.w3.org/2000/svg">
<path d="M9.14391 24.3C8.84057 24.3 8.57224 24.2067 8.33891 24.02C8.10557 23.81 7.98891 23.495 7.98891 23.075C7.98891 22.9817 7.98891 22.9 7.98891 22.83C8.01224 22.7367 8.03557 22.6433 8.05891 22.55C8.47891 20.4967 8.79391 18.5133 9.00391 16.6C9.21391 14.6867 9.35391 12.75 9.42391 10.79C9.49391 8.80667 9.52891 6.73 9.52891 4.56C8.31557 4.56 7.32391 4.58333 6.55391 4.63C5.78391 4.65333 5.03724 4.68833 4.31391 4.735C4.08057 4.75833 3.83557 4.78167 3.57891 4.805C3.32224 4.805 3.06557 4.805 2.80891 4.805C2.64557 4.805 2.49391 4.805 2.35391 4.805C2.21391 4.78167 2.08557 4.75833 1.96891 4.735C1.52557 4.64167 1.21057 4.50167 1.02391 4.315C0.860573 4.12833 0.778906 3.84833 0.778906 3.475C0.778906 2.86833 1.03557 2.495 1.54891 2.355C2.06224 2.19167 2.66891 2.06333 3.36891 1.97C3.83557 1.9 4.58224 1.84167 5.60891 1.795C6.63557 1.725 7.75557 1.66667 8.96891 1.62C10.2056 1.55 11.4072 1.49167 12.5739 1.445C13.7406 1.375 14.6972 1.31666 15.4439 1.27C15.9339 1.27 16.5289 1.29333 17.2289 1.34C17.9289 1.36333 18.6172 1.45667 19.2939 1.62C19.9939 1.78333 20.5772 2.05167 21.0439 2.425C21.5106 2.79833 21.7439 3.335 21.7439 4.035C21.7439 4.33833 21.6272 4.63 21.3939 4.91C21.1839 5.16667 20.9389 5.295 20.6589 5.295C20.5656 5.295 20.4722 5.27167 20.3789 5.225C20.3089 5.17833 20.2272 5.13167 20.1339 5.085C19.9472 4.99167 19.7606 4.89833 19.5739 4.805C19.3872 4.71167 19.1889 4.64167 18.9789 4.595C18.1856 4.385 17.3222 4.26833 16.3889 4.245C15.4789 4.19833 14.3006 4.175 12.8539 4.175C12.4806 4.175 12.2939 4.39667 12.2939 4.84C12.2939 5.72667 12.2822 6.77667 12.2589 7.99C12.2356 9.18 12.1889 10.44 12.1189 11.77C12.0722 13.1 11.9906 14.4183 11.8739 15.725C11.7806 17.0083 11.6639 18.1983 11.5239 19.295C11.3839 20.3917 11.2206 21.3017 11.0339 22.025C10.8939 22.6317 10.6606 23.18 10.3339 23.67C10.1706 23.9033 9.96057 24.0667 9.70391 24.16C9.47057 24.2533 9.28391 24.3 9.14391 24.3ZM34.5096 25C33.0629 25 31.7446 24.6967 30.5546 24.09C29.3879 23.4833 28.3729 22.655 27.5096 21.605C26.6696 20.555 26.0163 19.3767 25.5496 18.07C25.0829 16.74 24.8496 15.375 24.8496 13.975C24.8496 10.9183 25.5613 8.41 26.9846 6.45C28.4313 4.49 30.5429 2.93833 33.3196 1.795C34.0663 1.515 34.8829 1.24667 35.7696 0.989998C36.6563 0.709999 37.4613 0.57 38.1846 0.57C38.8846 0.57 39.5146 0.663332 40.0746 0.849998C40.6579 1.03667 41.1363 1.34 41.5096 1.76C41.7663 2.04 41.9413 2.33167 42.0346 2.635C42.1279 2.915 42.1746 3.195 42.1746 3.475C42.3613 3.63833 42.5596 3.88333 42.7696 4.21C43.0029 4.51333 43.2129 4.805 43.3996 5.085C44.2629 6.275 44.8463 7.48833 45.1496 8.725C45.4763 9.96167 45.6396 11.3383 45.6396 12.855C45.6396 14.4417 45.3713 15.9583 44.8346 17.405C44.2979 18.8517 43.5279 20.1467 42.5246 21.29C41.5446 22.4333 40.3663 23.3433 38.9896 24.02C37.6363 24.6733 36.1429 25 34.5096 25ZM34.8596 22.445C36.2363 22.445 37.4263 22.13 38.4296 21.5C39.4329 20.8467 40.2613 20.0183 40.9146 19.015C41.5679 17.9883 42.0463 16.8917 42.3496 15.725C42.6763 14.535 42.8396 13.4033 42.8396 12.33C42.8396 11.84 42.7696 11.2217 42.6296 10.475C42.4896 9.72833 42.2679 8.95833 41.9646 8.165C41.6846 7.34833 41.3229 6.59 40.8796 5.89C40.4363 5.19 39.9113 4.61833 39.3046 4.175C38.6979 3.73167 38.0213 3.51 37.2746 3.51C35.8046 3.51 34.4746 3.80167 33.2846 4.385C32.0946 4.96833 31.0679 5.76167 30.2046 6.765C29.3646 7.76833 28.7229 8.9 28.2796 10.16C27.8363 11.3967 27.6146 12.6683 27.6146 13.975C27.6146 14.9783 27.7546 15.9817 28.0346 16.985C28.3146 17.9883 28.7463 18.8983 29.3296 19.715C29.9129 20.5317 30.6596 21.1967 31.5696 21.71C32.5029 22.2 33.5996 22.445 34.8596 22.445ZM58.9481 25C57.5014 25 56.1831 24.6967 54.9931 24.09C53.8264 23.4833 52.8114 22.655 51.9481 21.605C51.1081 20.555 50.4548 19.3767 49.9881 18.07C49.5214 16.74 49.2881 15.375 49.2881 13.975C49.2881 10.9183 49.9998 8.41 51.4231 6.45C52.8698 4.49 54.9814 2.93833 57.7581 1.795C58.5048 1.515 59.3214 1.24667 60.2081 0.989998C61.0948 0.709999 61.8998 0.57 62.6231 0.57C63.3231 0.57 63.9531 0.663332 64.5131 0.849998C65.0964 1.03667 65.5748 1.34 65.9481 1.76C66.2048 2.04 66.3798 2.33167 66.4731 2.635C66.5664 2.915 66.6131 3.195 66.6131 3.475C66.7998 3.63833 66.9981 3.88333 67.2081 4.21C67.4414 4.51333 67.6514 4.805 67.8381 5.085C68.7014 6.275 69.2848 7.48833 69.5881 8.725C69.9148 9.96167 70.0781 11.3383 70.0781 12.855C70.0781 14.4417 69.8098 15.9583 69.2731 17.405C68.7364 18.8517 67.9664 20.1467 66.9631 21.29C65.9831 22.4333 64.8048 23.3433 63.4281 24.02C62.0748 24.6733 60.5814 25 58.9481 25ZM59.2981 22.445C60.6748 22.445 61.8648 22.13 62.8681 21.5C63.8714 20.8467 64.6998 20.0183 65.3531 19.015C66.0064 17.9883 66.4848 16.8917 66.7881 15.725C67.1148 14.535 67.2781 13.4033 67.2781 12.33C67.2781 11.84 67.2081 11.2217 67.0681 10.475C66.9281 9.72833 66.7064 8.95833 66.4031 8.165C66.1231 7.34833 65.7614 6.59 65.3181 5.89C64.8748 5.19 64.3498 4.61833 63.7431 4.175C63.1364 3.73167 62.4598 3.51 61.7131 3.51C60.2431 3.51 58.9131 3.80167 57.7231 4.385C56.5331 4.96833 55.5064 5.76167 54.6431 6.765C53.8031 7.76833 53.1614 8.9 52.7181 10.16C52.2748 11.3967 52.0531 12.6683 52.0531 13.975C52.0531 14.9783 52.1931 15.9817 52.4731 16.985C52.7531 17.9883 53.1848 18.8983 53.7681 19.715C54.3514 20.5317 55.0981 21.1967 56.0081 21.71C56.9414 22.2 58.0381 22.445 59.2981 22.445ZM75.3366 24.125C74.8932 24.125 74.5782 24.055 74.3916 23.915C74.2282 23.7517 74.1116 23.495 74.0416 23.145V21.57C74.0416 19.6333 74.1232 17.6967 74.2866 15.76C74.4499 13.8 74.6016 11.84 74.7416 9.88C74.9049 7.89667 74.9866 5.925 74.9866 3.965C74.9866 3.42833 75.1266 2.985 75.4066 2.635C75.6866 2.285 76.0482 2.11 76.4916 2.11C76.9816 2.11 77.2966 2.25 77.4366 2.53C77.5999 2.81 77.6699 3.14833 77.6466 3.545C77.6466 3.94167 77.6466 4.32667 77.6466 4.7C77.6466 7.29 77.5182 9.915 77.2616 12.575C77.0049 15.2117 76.8766 18.0117 76.8766 20.975C77.5532 20.8817 78.3932 20.7767 79.3966 20.66C80.3999 20.5433 81.3916 20.4267 82.3716 20.31C83.3749 20.1933 84.1799 20.1117 84.7866 20.065H85.8716C86.1282 20.065 86.4549 20.065 86.8516 20.065C87.2482 20.065 87.6449 20.1 88.0416 20.17C88.4616 20.2167 88.7999 20.3333 89.0566 20.52C89.3366 20.7067 89.4766 20.9867 89.4766 21.36C89.4766 21.9433 89.2899 22.3167 88.9166 22.48C88.5666 22.6433 88.1582 22.725 87.6916 22.725C87.5049 22.725 87.3182 22.725 87.1316 22.725C86.9449 22.7017 86.7582 22.69 86.5716 22.69C85.1716 22.69 83.5032 22.8067 81.5666 23.04C79.6299 23.25 77.7282 23.6117 75.8616 24.125H75.3366ZM100.13 25.175C98.6836 25.175 97.5286 24.9767 96.6652 24.58C95.8252 24.1833 95.4052 23.6117 95.4052 22.865C94.9152 22.795 94.5769 22.6083 94.3902 22.305C94.2036 21.9783 94.0869 21.5933 94.0402 21.15C94.0169 20.7067 94.0052 20.275 94.0052 19.855V19.155C94.1686 17.8717 94.3202 16.6817 94.4602 15.585C94.6236 14.465 94.7052 13.2633 94.7052 11.98C94.7052 10.9533 94.6936 10.0667 94.6702 9.32C94.6702 8.57333 94.6236 7.69833 94.5302 6.695C94.6002 6.22833 94.3319 5.87833 93.7252 5.645C93.6319 5.59833 93.5152 5.56333 93.3752 5.54C93.2352 5.49333 93.0836 5.435 92.9202 5.365C92.6869 5.27167 92.4886 5.155 92.3252 5.015C92.1852 4.85167 92.1152 4.595 92.1152 4.245C92.1152 3.685 92.3952 3.18333 92.9552 2.74C93.5152 2.29667 94.2269 1.92333 95.0902 1.62C95.9536 1.29333 96.8636 1.025 97.8202 0.814998C98.8002 0.604998 99.7102 0.453332 100.55 0.359998C101.39 0.266666 102.044 0.22 102.51 0.22C103.677 0.22 104.75 0.441666 105.73 0.885C106.71 1.305 107.504 1.92333 108.11 2.74C108.717 3.55667 109.02 4.54833 109.02 5.715C109.02 6.765 108.822 7.69833 108.425 8.515C108.029 9.30833 107.364 9.90333 106.43 10.3C107.784 10.4867 108.939 10.8133 109.895 11.28C110.852 11.7233 111.587 12.4117 112.1 13.345C112.637 14.255 112.905 15.5033 112.905 17.09C112.905 18.9333 112.334 20.45 111.19 21.64C110.07 22.83 108.542 23.7167 106.605 24.3C104.669 24.8833 102.51 25.175 100.13 25.175ZM99.7452 22.445C100.655 22.445 101.612 22.41 102.615 22.34C103.619 22.2467 104.599 22.0367 105.555 21.71C106.535 21.36 107.434 20.8 108.25 20.03C108.834 19.4933 109.324 18.98 109.72 18.49C110.117 17.9767 110.315 17.2767 110.315 16.39C110.315 15.6667 110.105 15.06 109.685 14.57C109.265 14.08 108.74 13.6833 108.11 13.38C107.504 13.0767 106.874 12.8433 106.22 12.68C105.987 12.61 105.73 12.5633 105.45 12.54C105.194 12.5167 104.937 12.505 104.68 12.505C103.98 12.505 103.292 12.5633 102.615 12.68C101.962 12.7967 101.414 12.855 100.97 12.855C100.69 12.855 100.469 12.7967 100.305 12.68C100.165 12.54 100.095 12.3883 100.095 12.225C100.095 11.8283 100.142 11.5017 100.235 11.245C100.329 10.965 100.527 10.7083 100.83 10.475C101.11 10.2883 101.402 10.1133 101.705 9.95C101.892 9.83333 102.079 9.74 102.265 9.67C102.452 9.57667 102.639 9.48333 102.825 9.39C103.455 9.11 104.039 8.795 104.575 8.445C105.135 8.095 105.579 7.675 105.905 7.185C106.255 6.695 106.43 6.08833 106.43 5.365C106.43 4.735 106.197 4.23333 105.73 3.86C105.287 3.46333 104.762 3.18333 104.155 3.02C103.549 2.85667 103 2.775 102.51 2.775C101.95 2.775 101.32 2.82167 100.62 2.915C99.9436 3.00833 99.2902 3.20667 98.6602 3.51C98.0302 3.79 97.5169 4.21 97.1202 4.77V6.45C97.1202 7.66333 97.1436 8.865 97.1902 10.055C97.2602 11.245 97.2952 12.4233 97.2952 13.59V15.27C97.2952 15.4567 97.2836 15.7833 97.2602 16.25C97.2369 16.6933 97.2019 17.1483 97.1552 17.615C97.1319 18.0817 97.1202 18.4083 97.1202 18.595C97.1202 18.7583 97.0852 18.945 97.0152 19.155C96.9686 19.365 96.9102 19.5983 96.8402 19.855C96.7702 20.1583 96.7002 20.4733 96.6302 20.8C96.5836 21.1033 96.5602 21.4417 96.5602 21.815C96.8636 22.1183 97.3069 22.305 97.8902 22.375C98.4736 22.4217 99.0919 22.445 99.7452 22.445ZM126.043 25C124.596 25 123.278 24.6967 122.088 24.09C120.921 23.4833 119.906 22.655 119.043 21.605C118.203 20.555 117.549 19.3767 117.083 18.07C116.616 16.74 116.383 15.375 116.383 13.975C116.383 10.9183 117.094 8.41 118.518 6.45C119.964 4.49 122.076 2.93833 124.853 1.795C125.599 1.515 126.416 1.24667 127.303 0.989998C128.189 0.709999 128.994 0.57 129.718 0.57C130.418 0.57 131.048 0.663332 131.608 0.849998C132.191 1.03667 132.669 1.34 133.043 1.76C133.299 2.04 133.474 2.33167 133.568 2.635C133.661 2.915 133.708 3.195 133.708 3.475C133.894 3.63833 134.093 3.88333 134.303 4.21C134.536 4.51333 134.746 4.805 134.933 5.085C135.796 6.275 136.379 7.48833 136.683 8.725C137.009 9.96167 137.173 11.3383 137.173 12.855C137.173 14.4417 136.904 15.9583 136.368 17.405C135.831 18.8517 135.061 20.1467 134.058 21.29C133.078 22.4333 131.899 23.3433 130.523 24.02C129.169 24.6733 127.676 25 126.043 25ZM126.393 22.445C127.769 22.445 128.959 22.13 129.963 21.5C130.966 20.8467 131.794 20.0183 132.448 19.015C133.101 17.9883 133.579 16.8917 133.883 15.725C134.209 14.535 134.373 13.4033 134.373 12.33C134.373 11.84 134.303 11.2217 134.163 10.475C134.023 9.72833 133.801 8.95833 133.498 8.165C133.218 7.34833 132.856 6.59 132.413 5.89C131.969 5.19 131.444 4.61833 130.838 4.175C130.231 3.73167 129.554 3.51 128.808 3.51C127.338 3.51 126.008 3.80167 124.818 4.385C123.628 4.96833 122.601 5.76167 121.738 6.765C120.898 7.76833 120.256 8.9 119.813 10.16C119.369 11.3967 119.148 12.6683 119.148 13.975C119.148 14.9783 119.288 15.9817 119.568 16.985C119.848 17.9883 120.279 18.8983 120.863 19.715C121.446 20.5317 122.193 21.1967 123.103 21.71C124.036 22.2 125.133 22.445 126.393 22.445ZM158.286 23.6C157.47 23.6 156.676 23.3083 155.906 22.725C155.16 22.1417 154.471 21.4767 153.841 20.73C153.025 19.7033 152.348 18.7817 151.811 17.965C151.298 17.1483 150.878 16.5067 150.551 16.04C150.225 15.55 149.933 15.305 149.676 15.305C149.443 15.305 149.21 15.4333 148.976 15.69C148.766 15.9233 148.591 16.0983 148.451 16.215C148.311 16.355 148.066 16.6583 147.716 17.125C147.553 17.335 147.366 17.5683 147.156 17.825C146.946 18.0817 146.736 18.35 146.526 18.63C146.083 19.1667 145.686 19.6683 145.336 20.135C144.986 20.5783 144.776 20.8233 144.706 20.87C144.356 21.3133 143.89 21.7217 143.306 22.095C142.723 22.4683 142.198 22.655 141.731 22.655C141.475 22.655 141.276 22.5967 141.136 22.48C141.02 22.34 140.961 22.0483 140.961 21.605C140.961 21.1617 141.055 20.7417 141.241 20.345C141.451 19.9483 141.743 19.5283 142.116 19.085C142.303 18.875 142.571 18.5717 142.921 18.175C143.295 17.7783 143.691 17.3583 144.111 16.915C144.531 16.4483 144.928 16.0283 145.301 15.655C145.675 15.2583 145.955 14.955 146.141 14.745C146.328 14.4883 146.573 14.15 146.876 13.73C147.18 13.31 147.331 12.9133 147.331 12.54C147.331 12.3767 147.296 12.225 147.226 12.085C146.41 10.9183 145.558 9.635 144.671 8.235C143.808 6.81167 142.91 5.37667 141.976 3.93C141.766 3.60333 141.661 3.25333 141.661 2.88C141.661 2.46 141.778 2.08667 142.011 1.76C142.245 1.43333 142.513 1.27 142.816 1.27C143.12 1.27 143.411 1.45667 143.691 1.83C145.045 3.83667 146.095 5.41167 146.841 6.555C147.611 7.69833 148.171 8.53833 148.521 9.075C148.895 9.58833 149.14 9.915 149.256 10.055C149.396 10.195 149.513 10.265 149.606 10.265C150.4 9.705 151.146 9.11 151.846 8.48C152.546 7.85 153.293 7.13833 154.086 6.345C154.903 5.55167 155.86 4.64167 156.956 3.615C157.353 3.265 157.808 2.88 158.321 2.46C158.858 2.01666 159.36 1.795 159.826 1.795C160.013 1.795 160.188 1.84167 160.351 1.935C160.771 2.19167 160.981 2.46 160.981 2.74C160.981 3.02 160.83 3.31167 160.526 3.615C160.246 3.895 159.92 4.19833 159.546 4.525C158.216 5.76167 156.991 6.95167 155.871 8.095C154.751 9.215 153.83 10.195 153.106 11.035C152.383 11.875 151.94 12.505 151.776 12.925C151.8 13.2983 151.986 13.7883 152.336 14.395C152.71 15.0017 153.118 15.5967 153.561 16.18C154.005 16.74 154.355 17.1717 154.611 17.475C155.498 18.5017 156.42 19.4233 157.376 20.24C158.333 21.0333 159.08 21.6283 159.616 22.025C159.873 22.2117 160.001 22.3983 160.001 22.585C160.001 22.8883 159.78 23.1333 159.336 23.32C158.893 23.5067 158.543 23.6 158.286 23.6Z" fill="#5E803D"/>
</svg>
