<svg width="144" height="29" viewBox="0 0 144 29" fill="none" xmlns="http://www.w3.org/2000/svg">
<path d="M9.12047 27.3C8.81714 27.3 8.5488 27.2067 8.31547 27.02C8.08214 26.81 7.96547 26.495 7.96547 26.075C7.96547 25.9817 7.96547 25.9 7.96547 25.83C7.9888 25.7367 8.01214 25.6433 8.03547 25.55C8.45547 23.4967 8.77047 21.5133 8.98047 19.6C9.19047 17.6867 9.33047 15.75 9.40047 13.79C9.47047 11.8067 9.50547 9.73 9.50547 7.56C8.29214 7.56 7.30047 7.58333 6.53047 7.63C5.76047 7.65333 5.0138 7.68833 4.29047 7.735C4.05714 7.75833 3.81214 7.78167 3.55547 7.805C3.2988 7.805 3.04214 7.805 2.78547 7.805C2.62214 7.805 2.47047 7.805 2.33047 7.805C2.19047 7.78167 2.06214 7.75833 1.94547 7.735C1.50214 7.64167 1.18714 7.50167 1.00047 7.315C0.837136 7.12833 0.755469 6.84833 0.755469 6.475C0.755469 5.86833 1.01214 5.495 1.52547 5.355C2.0388 5.19167 2.64547 5.06333 3.34547 4.97C3.81214 4.9 4.5588 4.84167 5.58547 4.795C6.61214 4.725 7.73214 4.66667 8.94547 4.62C10.1821 4.55 11.3838 4.49167 12.5505 4.445C13.7171 4.375 14.6738 4.31666 15.4205 4.27C15.9105 4.27 16.5055 4.29333 17.2055 4.34C17.9055 4.36333 18.5938 4.45667 19.2705 4.62C19.9705 4.78333 20.5538 5.05167 21.0205 5.425C21.4871 5.79833 21.7205 6.335 21.7205 7.035C21.7205 7.33833 21.6038 7.63 21.3705 7.91C21.1605 8.16667 20.9155 8.295 20.6355 8.295C20.5421 8.295 20.4488 8.27167 20.3555 8.225C20.2855 8.17833 20.2038 8.13167 20.1105 8.085C19.9238 7.99167 19.7371 7.89833 19.5505 7.805C19.3638 7.71167 19.1655 7.64167 18.9555 7.595C18.1621 7.385 17.2988 7.26833 16.3655 7.245C15.4555 7.19833 14.2771 7.175 12.8305 7.175C12.4571 7.175 12.2705 7.39667 12.2705 7.84C12.2705 8.72667 12.2588 9.77667 12.2355 10.99C12.2121 12.18 12.1655 13.44 12.0955 14.77C12.0488 16.1 11.9671 17.4183 11.8505 18.725C11.7571 20.0083 11.6405 21.1983 11.5005 22.295C11.3605 23.3917 11.1971 24.3017 11.0105 25.025C10.8705 25.6317 10.6371 26.18 10.3105 26.67C10.1471 26.9033 9.93714 27.0667 9.68047 27.16C9.44714 27.2533 9.26047 27.3 9.12047 27.3ZM34.3112 28C32.6312 28 31.0678 27.6383 29.6212 26.915C28.1745 26.1683 27.0078 25.1417 26.1212 23.835C25.2578 22.505 24.8262 20.965 24.8262 19.215C24.8262 18.025 25.0712 16.9167 25.5612 15.89C26.0745 14.8633 26.7278 13.8833 27.5212 12.95C28.3145 12.0167 29.1428 11.1067 30.0062 10.22C30.4028 9.82333 30.8578 9.54333 31.3712 9.38C31.8845 9.19333 32.4328 9.1 33.0162 9.1C34.6262 9.1 36.1428 9.275 37.5662 9.625C38.9895 9.95167 40.2495 10.4883 41.3462 11.235C42.4662 11.9817 43.3412 12.95 43.9712 14.14C44.6012 15.33 44.9162 16.7767 44.9162 18.48C44.9162 19.88 44.6128 21.1633 44.0062 22.33C43.4228 23.4967 42.6178 24.5117 41.5912 25.375C40.5878 26.215 39.4562 26.8683 38.1962 27.335C36.9362 27.7783 35.6412 28 34.3112 28ZM33.5412 25.41C34.6145 25.41 35.6762 25.2583 36.7262 24.955C37.7995 24.6517 38.7678 24.1967 39.6312 23.59C40.4945 22.96 41.1828 22.1783 41.6962 21.245C42.2328 20.3117 42.5012 19.2033 42.5012 17.92C42.5012 16.7533 42.2445 15.7617 41.7312 14.945C41.2412 14.105 40.5878 13.4283 39.7712 12.915C38.9545 12.3783 38.0678 11.9817 37.1112 11.725C36.1545 11.4683 35.2212 11.34 34.3112 11.34C33.9378 11.34 33.5178 11.375 33.0512 11.445C32.6078 11.4917 32.1762 11.7133 31.7562 12.11C31.2428 12.6 30.7178 13.1017 30.1812 13.615C29.6678 14.105 29.1895 14.6533 28.7462 15.26C28.3028 15.8433 27.9412 16.4967 27.6612 17.22C27.3812 17.9433 27.2412 18.725 27.2412 19.565C27.2412 20.9183 27.5212 22.0267 28.0812 22.89C28.6645 23.7533 29.4345 24.395 30.3912 24.815C31.3478 25.2117 32.3978 25.41 33.5412 25.41ZM58.0319 28C56.3519 28 54.7885 27.6383 53.3419 26.915C51.8952 26.1683 50.7285 25.1417 49.8419 23.835C48.9785 22.505 48.5469 20.965 48.5469 19.215C48.5469 18.025 48.7919 16.9167 49.2819 15.89C49.7952 14.8633 50.4485 13.8833 51.2419 12.95C52.0352 12.0167 52.8635 11.1067 53.7269 10.22C54.1235 9.82333 54.5785 9.54333 55.0919 9.38C55.6052 9.19333 56.1535 9.1 56.7369 9.1C58.3469 9.1 59.8635 9.275 61.2869 9.625C62.7102 9.95167 63.9702 10.4883 65.0669 11.235C66.1869 11.9817 67.0619 12.95 67.6919 14.14C68.3219 15.33 68.6369 16.7767 68.6369 18.48C68.6369 19.88 68.3335 21.1633 67.7269 22.33C67.1435 23.4967 66.3385 24.5117 65.3119 25.375C64.3085 26.215 63.1769 26.8683 61.9169 27.335C60.6569 27.7783 59.3619 28 58.0319 28ZM57.2619 25.41C58.3352 25.41 59.3969 25.2583 60.4469 24.955C61.5202 24.6517 62.4885 24.1967 63.3519 23.59C64.2152 22.96 64.9035 22.1783 65.4169 21.245C65.9535 20.3117 66.2219 19.2033 66.2219 17.92C66.2219 16.7533 65.9652 15.7617 65.4519 14.945C64.9619 14.105 64.3085 13.4283 63.4919 12.915C62.6752 12.3783 61.7885 11.9817 60.8319 11.725C59.8752 11.4683 58.9419 11.34 58.0319 11.34C57.6585 11.34 57.2385 11.375 56.7719 11.445C56.3285 11.4917 55.8969 11.7133 55.4769 12.11C54.9635 12.6 54.4385 13.1017 53.9019 13.615C53.3885 14.105 52.9102 14.6533 52.4669 15.26C52.0235 15.8433 51.6619 16.4967 51.3819 17.22C51.1019 17.9433 50.9619 18.725 50.9619 19.565C50.9619 20.9183 51.2419 22.0267 51.8019 22.89C52.3852 23.7533 53.1552 24.395 54.1119 24.815C55.0685 25.2117 56.1185 25.41 57.2619 25.41ZM75.4526 28.175C75.0092 28.175 74.6709 28 74.4376 27.65C74.2042 27.3 74.0409 26.8683 73.9476 26.355C73.8542 25.8417 73.7959 25.3283 73.7726 24.815C73.7726 24.3017 73.7726 23.8933 73.7726 23.59C73.7726 23.4033 73.7609 23.1933 73.7376 22.96C73.7376 22.7267 73.7376 22.4933 73.7376 22.26C73.7376 21.0933 73.7726 19.6817 73.8426 18.025C73.9126 16.345 74.0059 14.5833 74.1226 12.74C74.2626 10.8733 74.4142 9.05333 74.5776 7.28C74.7642 5.50667 74.9626 3.93167 75.1726 2.555C75.3592 1.87833 75.6042 1.38833 75.9076 1.085C76.2342 0.781665 76.5492 0.629998 76.8526 0.629998C77.1326 0.629998 77.3776 0.758331 77.5876 1.015C77.8209 1.27167 77.9376 1.63333 77.9376 2.1C77.9376 2.19333 77.9376 2.275 77.9376 2.345C77.9376 2.415 77.9259 2.49667 77.9026 2.59C77.3192 5.41333 76.9459 8.365 76.7826 11.445C76.6192 14.525 76.5376 17.4883 76.5376 20.335C76.5376 21.5017 76.5492 22.54 76.5726 23.45C76.6192 24.3367 76.6426 25.2583 76.6426 26.215C76.6426 26.7283 76.5259 27.1833 76.2926 27.58C76.0826 27.9767 75.8026 28.175 75.4526 28.175ZM88.9886 27.65C88.1486 27.65 87.3552 27.5333 86.6086 27.3C85.8619 27.0433 85.2319 26.7867 84.7186 26.53C84.3686 26.95 84.0069 27.2183 83.6336 27.335C83.2836 27.4283 82.9569 27.475 82.6536 27.475C82.0236 27.475 81.7086 26.985 81.7086 26.005C81.7086 25.4917 81.7202 25.06 81.7436 24.71C81.7902 24.3367 81.8952 23.8467 82.0586 23.24C82.4552 20.51 82.7586 17.6983 82.9686 14.805C83.2019 11.8883 83.3186 9.00667 83.3186 6.16C83.3186 4.69 83.2836 3.24333 83.2136 1.82C83.2136 1.58667 83.2952 1.44667 83.4586 1.4C83.6219 1.35333 83.7852 1.33 83.9486 1.33C84.4852 1.33 84.8819 1.4 85.1386 1.54C85.4186 1.65667 85.5819 1.96 85.6286 2.45V4.375C85.6286 5.93833 85.5936 7.50167 85.5236 9.065C85.4769 10.605 85.4536 12.285 85.4536 14.105C85.4536 14.3383 85.4652 14.56 85.4886 14.77C85.5352 14.98 85.6169 15.085 85.7336 15.085C85.8269 15.085 85.9552 15.015 86.1186 14.875C86.2819 14.735 86.4919 14.4783 86.7486 14.105C87.7752 12.915 88.9302 11.9233 90.2136 11.13C91.4969 10.3133 93.0719 9.905 94.9386 9.905C95.5452 9.905 96.1752 9.98667 96.8286 10.15C97.5052 10.29 98.1352 10.5817 98.7186 11.025C99.3019 11.445 99.7686 12.0867 100.119 12.95C100.492 13.79 100.679 14.91 100.679 16.31C100.679 17.9433 100.375 19.46 99.7686 20.86C99.1619 22.2367 98.3219 23.4383 97.2486 24.465C96.1752 25.4683 94.9269 26.25 93.5036 26.81C92.1036 27.37 90.5986 27.65 88.9886 27.65ZM88.9886 25.305C90.0852 25.305 91.1819 25.0483 92.2786 24.535C93.3752 24.0217 94.3786 23.3333 95.2886 22.47C96.2219 21.6067 96.9686 20.65 97.5286 19.6C98.0886 18.5267 98.3686 17.43 98.3686 16.31C98.3686 15.6567 98.2052 15.0267 97.8786 14.42C97.5752 13.8133 97.1319 13.3117 96.5486 12.915C95.9886 12.495 95.3352 12.285 94.5886 12.285C93.8419 12.285 93.0369 12.5183 92.1736 12.985C91.3102 13.4517 90.4586 14.0583 89.6186 14.805C88.7786 15.5517 88.0086 16.38 87.3086 17.29C86.6319 18.1767 86.0836 19.0633 85.6636 19.95C85.2669 20.8367 85.0686 21.6417 85.0686 22.365C85.0686 22.9017 85.2086 23.3567 85.4886 23.73C85.7919 24.1033 86.1652 24.4067 86.6086 24.64C87.0519 24.8733 87.4836 25.0483 87.9036 25.165C88.3469 25.2583 88.7086 25.305 88.9886 25.305ZM113.061 28C111.381 28 109.818 27.6383 108.371 26.915C106.925 26.1683 105.758 25.1417 104.871 23.835C104.008 22.505 103.576 20.965 103.576 19.215C103.576 18.025 103.821 16.9167 104.311 15.89C104.825 14.8633 105.478 13.8833 106.271 12.95C107.065 12.0167 107.893 11.1067 108.756 10.22C109.153 9.82333 109.608 9.54333 110.121 9.38C110.635 9.19333 111.183 9.1 111.766 9.1C113.376 9.1 114.893 9.275 116.316 9.625C117.74 9.95167 119 10.4883 120.096 11.235C121.216 11.9817 122.091 12.95 122.721 14.14C123.351 15.33 123.666 16.7767 123.666 18.48C123.666 19.88 123.363 21.1633 122.756 22.33C122.173 23.4967 121.368 24.5117 120.341 25.375C119.338 26.215 118.206 26.8683 116.946 27.335C115.686 27.7783 114.391 28 113.061 28ZM112.291 25.41C113.365 25.41 114.426 25.2583 115.476 24.955C116.55 24.6517 117.518 24.1967 118.381 23.59C119.245 22.96 119.933 22.1783 120.446 21.245C120.983 20.3117 121.251 19.2033 121.251 17.92C121.251 16.7533 120.995 15.7617 120.481 14.945C119.991 14.105 119.338 13.4283 118.521 12.915C117.705 12.3783 116.818 11.9817 115.861 11.725C114.905 11.4683 113.971 11.34 113.061 11.34C112.688 11.34 112.268 11.375 111.801 11.445C111.358 11.4917 110.926 11.7133 110.506 12.11C109.993 12.6 109.468 13.1017 108.931 13.615C108.418 14.105 107.94 14.6533 107.496 15.26C107.053 15.8433 106.691 16.4967 106.411 17.22C106.131 17.9433 105.991 18.725 105.991 19.565C105.991 20.9183 106.271 22.0267 106.831 22.89C107.415 23.7533 108.185 24.395 109.141 24.815C110.098 25.2117 111.148 25.41 112.291 25.41ZM140.912 28.35C140.562 28.35 140.27 28.2683 140.037 28.105C139.827 27.9417 139.594 27.65 139.337 27.23L136.747 22.995C136.654 22.8317 136.479 22.575 136.222 22.225C135.965 21.875 135.709 21.5367 135.452 21.21C135.219 20.8833 135.067 20.685 134.997 20.615C134.717 20.8483 134.367 21.1983 133.947 21.665C133.55 22.1317 133.154 22.6217 132.757 23.135L131.672 24.465C131.555 24.5817 131.427 24.7217 131.287 24.885C131.147 25.025 131.007 25.1767 130.867 25.34C130.54 25.69 130.26 26.005 130.027 26.285C129.794 26.565 129.502 26.8333 129.152 27.09C128.872 27.3 128.569 27.405 128.242 27.405C127.985 27.405 127.764 27.3233 127.577 27.16C127.39 26.9733 127.297 26.6933 127.297 26.32C127.297 25.7133 127.542 25.0833 128.032 24.43C128.545 23.7533 129.175 23.0533 129.922 22.33C130.295 21.98 130.657 21.6417 131.007 21.315C131.357 20.9883 131.66 20.6733 131.917 20.37C132.174 20.0667 132.419 19.7867 132.652 19.53C132.909 19.2733 133.224 18.9117 133.597 18.445C133.527 18.305 133.329 18.0017 133.002 17.535C132.675 17.045 132.314 16.5083 131.917 15.925C131.52 15.3417 131.147 14.8167 130.797 14.35C130.47 13.8833 130.249 13.58 130.132 13.44C129.759 12.9967 129.35 12.495 128.907 11.935C128.487 11.375 128.277 10.7917 128.277 10.185C128.277 9.92833 128.382 9.74167 128.592 9.625C128.825 9.50833 129.094 9.45 129.397 9.45C129.654 9.45 129.957 9.60167 130.307 9.905C130.68 10.2083 130.995 10.535 131.252 10.885C131.509 11.2117 131.847 11.655 132.267 12.215C132.687 12.7517 133.095 13.265 133.492 13.755C133.889 14.245 134.157 14.595 134.297 14.805C134.39 14.875 134.519 15.0383 134.682 15.295C134.869 15.5517 135.044 15.7967 135.207 16.03C135.37 16.24 135.452 16.345 135.452 16.345C136.432 15.3183 137.412 14.3033 138.392 13.3C139.395 12.2967 140.387 11.2933 141.367 10.29C141.694 9.96333 141.939 9.77667 142.102 9.73C142.289 9.66 142.475 9.625 142.662 9.625C143.269 9.625 143.572 9.94 143.572 10.57C143.572 10.8267 143.537 11.0367 143.467 11.2C143.42 11.3633 143.315 11.55 143.152 11.76C142.079 12.9267 141.157 13.9183 140.387 14.735C139.617 15.5283 138.975 16.2167 138.462 16.8C137.949 17.3833 137.505 17.9317 137.132 18.445C137.202 18.725 137.424 19.1917 137.797 19.845C138.17 20.475 138.59 21.1633 139.057 21.91C139.547 22.6567 139.99 23.3567 140.387 24.01C140.807 24.64 141.099 25.095 141.262 25.375C141.729 26.1683 141.962 26.8333 141.962 27.37C141.962 28.0233 141.612 28.35 140.912 28.35Z" fill="#5E803D"/>
</svg>
