<svg width="431" height="23" viewBox="0 0 431 23" fill="none" xmlns="http://www.w3.org/2000/svg">
<path d="M2 18.0052C5.0092 18.0052 11.8132 13.6224 14.3003 11.6327C16.9882 9.48239 21.7444 6.93844 24.674 5.7049C36.1994 0.85209 42.3276 12.244 52.9795 12.6701C57.8197 12.8637 60.5026 16.6714 66.0207 16.6714C68.4413 16.6714 70.8618 16.6714 73.2823 16.6714C75.7836 16.6714 77.25 13.8322 79.6548 12.9665C84.1373 11.3528 88.0712 7.01938 92.696 4.96392C98.3098 2.46891 105.352 3.33377 111.369 3.33377C118.276 3.33377 120.923 4.25331 126.781 5.9272C129.809 6.79216 132.393 10.1981 136.118 11.2623C144.409 13.6312 152.543 14.0039 161.755 14.0039C170.329 14.0039 175.92 4.66753 184.726 4.66753C194.131 4.66753 203.566 2.54321 210.067 10.6695C214.179 15.8092 230.676 15.0701 236.076 12.6701C244.66 8.85501 252.942 3.33377 262.751 3.33377C267.617 3.33377 272.483 3.33377 277.348 3.33377C282.533 3.33377 286.557 7.00084 290.76 9.33571C298.206 13.4723 308.029 20.1872 316.769 20.6727C329.987 21.4071 341.109 23.0073 351.447 12.6701C358.976 5.14078 368.253 2 378.789 2C391.212 2 392.881 8.71018 402.722 14.078C407.893 16.8983 409.981 18.0052 416.208 18.0052C422.458 18.0052 423.333 12.7043 428.805 11.3364" stroke="#5E803D" stroke-width="3" stroke-linecap="round" stroke-linejoin="round"/>
</svg>
