<svg width="400" height="23" viewBox="0 0 400 23" fill="none" xmlns="http://www.w3.org/2000/svg">
<path d="M2 17.8185C4.79201 17.8185 11.1049 13.4869 13.4125 11.5204C15.9064 9.3951 20.3193 6.88082 23.0375 5.66168C33.7311 0.865482 39.417 12.1245 49.3 12.5456C53.7909 12.737 56.2802 16.5003 61.4 16.5003C63.6458 16.5003 65.8917 16.5003 68.1375 16.5003C70.4582 16.5003 71.8188 13.6942 74.05 12.8386C78.2089 11.2437 81.859 6.96083 86.15 4.92935C91.3586 2.46344 97.8926 3.31821 103.475 3.31821C109.884 3.31821 112.339 4.22702 117.775 5.88138C120.584 6.73625 122.982 10.1025 126.437 11.1542C134.13 13.4955 141.677 13.8638 150.225 13.8638C158.179 13.8638 163.367 4.63641 171.537 4.63641C180.264 4.63641 189.018 2.53687 195.05 10.5683C198.865 15.6481 214.171 14.9177 219.181 12.5456C227.146 8.77504 234.83 3.31821 243.931 3.31821C248.446 3.31821 252.96 3.31821 257.475 3.31821C262.286 3.31821 266.019 6.9425 269.919 9.25013C276.827 13.3385 285.941 19.975 294.05 20.4549C306.314 21.1807 316.634 22.7623 326.225 12.5456C333.211 5.10414 341.818 2 351.594 2C363.121 2 364.669 8.6319 373.8 13.9371C378.597 16.7245 380.535 17.8185 386.312 17.8185C392.111 17.8185 392.923 12.5794 398 11.2274" stroke="#5E803D" stroke-width="3" stroke-linecap="round" stroke-linejoin="round"/>
</svg>
